<?xml version="1.0" standalone="no"?>
<!DOCTYPE svg PUBLIC "-//W3C//DTD SVG 1.1//EN" "http://www.w3.org/Graphics/SVG/1.1/DTD/svg11.dtd" >
<svg xmlns="http://www.w3.org/2000/svg" xmlns:xlink="http://www.w3.org/1999/xlink" version="1.1">
<metadata>
Created by FontForge 20200427 at Thu Nov  6 01:53:07 2014
 By www
Copyright (c) 2010 Linotype GmbH, www.linotype.com. All rights reserved. This font software may not be reproduced, modified, disclosed or transferred without the express written approval of Linotype GmbH.
</metadata>
<defs>
<font id="DINNextRoundedLTW04-Regular" horiz-adv-x="542" >
  <font-face 
    font-family="DINNextRoundedLTW04-Regular"
    font-weight="400"
    font-stretch="normal"
    units-per-em="1000"
    panose-1="2 15 5 3 2 2 3 5 2 3"
    ascent="800"
    descent="-200"
    x-height="479"
    cap-height="685"
    bbox="-140 -220 1007 918"
    underline-thickness="50"
    underline-position="-125"
    unicode-range="U+0020-FB04"
  />
<missing-glyph horiz-adv-x="477" 
d="M0 655q0 25 25 25h427q25 0 25 -25v-630q0 -25 -25 -25h-427q-25 0 -25 25v630zM49 53q0 -6 6 -6h367q6 0 6 6v574q0 6 -6 6h-367q-6 0 -6 -6v-574zM227 226q-13 0 -21 8t-8 22v12q0 21 5 35t17 29l39 48q18 23 25 37.5t7 32.5q0 26 -17 43t-44 17q-26 0 -40.5 -12.5
t-24.5 -38.5q-10 -20 -26 -20q-12 0 -19.5 7.5t-7.5 20.5q0 6 2 14q10 34 39.5 57.5t78.5 23.5q54 0 86 -32t32 -79q0 -27 -8.5 -46.5t-27.5 -42.5l-41 -50q-11 -13 -14 -22t-3 -25v-9q0 -14 -8 -22t-21 -8zM189 147q0 16 11 26.5t27 10.5q15 0 26 -10.5t11 -26.5t-11 -27
t-26 -11q-16 0 -27 11t-11 27z" />
    <glyph glyph-name="IJ" unicode="IJ" horiz-adv-x="746" 
d="M84 637q0 23 12.5 35.5t32.5 12.5t32 -12.5t12 -35.5v-594q0 -23 -12 -35.5t-32 -12.5t-32.5 12.5t-12.5 35.5v594zM309 39q-15 13 -15 33q0 17 11.5 28.5t28.5 11.5q14 0 32 -12q19 -12 42 -20t47 -8q57 0 90 34t33 112v419q0 23 12.5 35.5t32.5 12.5t32 -12.5t12 -35.5
v-419q0 -114 -57.5 -171.5t-156.5 -57.5q-44 0 -82.5 15t-61.5 35z" />
    <glyph glyph-name="ij" unicode="ij" horiz-adv-x="496" 
d="M124 575q-23 0 -39 16t-16 39t16 39t39 16t39 -16t16 -39t-16 -39t-39 -16zM82 439q0 21 12 33t30 12t30 -12t12 -33v-399q0 -21 -12 -33t-30 -12t-30 12t-12 33v399zM372 575q-23 0 -39 16t-16 39t16 39t39 16t39 -16t16 -39t-16 -39t-39 -16zM330 439q0 21 12 33t30 12
t30 -12t12 -33v-475q0 -77 -34.5 -110.5t-103.5 -33.5q-20 0 -30 11t-10 28t9.5 27t27.5 12q33 3 45 15.5t12 49.5v476z" />
    <glyph glyph-name="napostrophe" unicode="&#x22;n" horiz-adv-x="544" 
d="M82 439q0 21 12 33t30 12t30 -12t12 -33v-14h1q17 28 51 46.5t83 18.5q78 0 122 -49t44 -131v-270q0 -21 -12 -33t-30 -12t-30 12t-12 33v250q0 58 -26.5 90t-80.5 32q-49 0 -79.5 -31.5t-30.5 -85.5v-255q0 -21 -12 -33t-30 -12t-30 12t-12 33v399zM78 547
q-11 -30 -36 -30q-17 0 -27.5 9.5t-10.5 26.5q0 9 3 17l26 83q10 30 36 30q17 0 28 -9.5t11 -26.5q0 -10 -3 -17z" />
    <glyph glyph-name="uniFB00" unicode="ff" horiz-adv-x="638" 
d="M259 479q17 0 26.5 -9.5t9.5 -24.5t-9.5 -24.5t-26.5 -9.5h-71q-6 0 -6 -6v-365q0 -21 -12 -33t-30 -12t-30 12t-12 33v365q0 6 -6 6h-27q-17 0 -26.5 9.5t-9.5 24.5t9.5 24.5t26.5 9.5h27q6 0 6 6v42q0 86 36.5 119.5t111.5 33.5h7q22 0 33 -11t11 -28t-10.5 -28
t-30.5 -11q-23 0 -37.5 -3t-22.5 -10.5t-11 -21t-3 -35.5v-47q0 -6 6 -6h71zM578 479q17 0 26.5 -9.5t9.5 -24.5t-9.5 -24.5t-26.5 -9.5h-71q-6 0 -6 -6v-365q0 -21 -12 -33t-30 -12t-30 12t-12 33v365q0 6 -6 6h-27q-17 0 -26.5 9.5t-9.5 24.5t9.5 24.5t26.5 9.5h27
q6 0 6 6v42q0 86 36.5 119.5t111.5 33.5h7q22 0 33 -11t11 -28t-10.5 -28t-30.5 -11q-23 0 -37.5 -3t-22.5 -10.5t-11 -21t-3 -35.5v-47q0 -6 6 -6h71z" />
    <glyph glyph-name="uniFB01" unicode="fi" horiz-adv-x="567" 
d="M259 479q17 0 26.5 -9.5t9.5 -24.5t-9.5 -24.5t-26.5 -9.5h-71q-6 0 -6 -6v-365q0 -21 -12 -33t-30 -12t-30 12t-12 33v365q0 6 -6 6h-27q-17 0 -26.5 9.5t-9.5 24.5t9.5 24.5t26.5 9.5h27q6 0 6 6v42q0 86 36.5 119.5t111.5 33.5h7q22 0 33 -11t11 -28t-10.5 -28
t-30.5 -11q-23 0 -37.5 -3t-22.5 -10.5t-11 -21t-3 -35.5v-47q0 -6 6 -6h71zM443 575q-23 0 -39 16t-16 39t16 39t39 16t39 -16t16 -39t-16 -39t-39 -16zM401 439q0 21 12 33t30 12t30 -12t12 -33v-399q0 -21 -12 -33t-30 -12t-30 12t-12 33v399z" />
    <glyph glyph-name="uniFB02" unicode="fl" horiz-adv-x="598" 
d="M259 479q17 0 26.5 -9.5t9.5 -24.5t-9.5 -24.5t-26.5 -9.5h-71q-6 0 -6 -6v-365q0 -21 -12 -33t-30 -12t-30 12t-12 33v365q0 6 -6 6h-27q-17 0 -26.5 9.5t-9.5 24.5t9.5 24.5t26.5 9.5h27q6 0 6 6v42q0 86 36.5 119.5t111.5 33.5h7q22 0 33 -11t11 -28t-10.5 -28
t-30.5 -11q-23 0 -37.5 -3t-22.5 -10.5t-11 -21t-3 -35.5v-47q0 -6 6 -6h71zM516 -5q-65 0 -91 31.5t-26 96.5v517q0 21 12 33t30 12t30 -12t12 -33v-512q0 -30 10.5 -42.5t35.5 -12.5q18 0 28.5 -11t10.5 -28t-11 -28t-32 -11h-9z" />
    <glyph glyph-name="uniFB03" unicode="ffi" horiz-adv-x="886" 
d="M259 479q17 0 26.5 -9.5t9.5 -24.5t-9.5 -24.5t-26.5 -9.5h-71q-6 0 -6 -6v-365q0 -21 -12 -33t-30 -12t-30 12t-12 33v365q0 6 -6 6h-27q-17 0 -26.5 9.5t-9.5 24.5t9.5 24.5t26.5 9.5h27q6 0 6 6v42q0 86 36.5 119.5t111.5 33.5h7q22 0 33 -11t11 -28t-10.5 -28
t-30.5 -11q-23 0 -37.5 -3t-22.5 -10.5t-11 -21t-3 -35.5v-47q0 -6 6 -6h71zM578 479q17 0 26.5 -9.5t9.5 -24.5t-9.5 -24.5t-26.5 -9.5h-71q-6 0 -6 -6v-365q0 -21 -12 -33t-30 -12t-30 12t-12 33v365q0 6 -6 6h-27q-17 0 -26.5 9.5t-9.5 24.5t9.5 24.5t26.5 9.5h27
q6 0 6 6v42q0 86 36.5 119.5t111.5 33.5h7q22 0 33 -11t11 -28t-10.5 -28t-30.5 -11q-23 0 -37.5 -3t-22.5 -10.5t-11 -21t-3 -35.5v-47q0 -6 6 -6h71zM762 575q-23 0 -39 16t-16 39t16 39t39 16t39 -16t16 -39t-16 -39t-39 -16zM720 439q0 21 12 33t30 12t30 -12t12 -33
v-399q0 -21 -12 -33t-30 -12t-30 12t-12 33v399z" />
    <glyph glyph-name="uniFB04" unicode="ffl" horiz-adv-x="917" 
d="M259 479q17 0 26.5 -9.5t9.5 -24.5t-9.5 -24.5t-26.5 -9.5h-71q-6 0 -6 -6v-365q0 -21 -12 -33t-30 -12t-30 12t-12 33v365q0 6 -6 6h-27q-17 0 -26.5 9.5t-9.5 24.5t9.5 24.5t26.5 9.5h27q6 0 6 6v42q0 86 36.5 119.5t111.5 33.5h7q22 0 33 -11t11 -28t-10.5 -28
t-30.5 -11q-23 0 -37.5 -3t-22.5 -10.5t-11 -21t-3 -35.5v-47q0 -6 6 -6h71zM578 479q17 0 26.5 -9.5t9.5 -24.5t-9.5 -24.5t-26.5 -9.5h-71q-6 0 -6 -6v-365q0 -21 -12 -33t-30 -12t-30 12t-12 33v365q0 6 -6 6h-27q-17 0 -26.5 9.5t-9.5 24.5t9.5 24.5t26.5 9.5h27
q6 0 6 6v42q0 86 36.5 119.5t111.5 33.5h7q22 0 33 -11t11 -28t-10.5 -28t-30.5 -11q-23 0 -37.5 -3t-22.5 -10.5t-11 -21t-3 -35.5v-47q0 -6 6 -6h71zM835 -5q-65 0 -91 31.5t-26 96.5v517q0 21 12 33t30 12t30 -12t12 -33v-512q0 -30 10.5 -42.5t35.5 -12.5q18 0 28.5 -11
t10.5 -28t-11 -28t-32 -11h-9z" />
    <glyph glyph-name=".notdef" horiz-adv-x="477" 
d="M0 655q0 25 25 25h427q25 0 25 -25v-630q0 -25 -25 -25h-427q-25 0 -25 25v630zM49 53q0 -6 6 -6h367q6 0 6 6v574q0 6 -6 6h-367q-6 0 -6 -6v-574zM227 226q-13 0 -21 8t-8 22v12q0 21 5 35t17 29l39 48q18 23 25 37.5t7 32.5q0 26 -17 43t-44 17q-26 0 -40.5 -12.5
t-24.5 -38.5q-10 -20 -26 -20q-12 0 -19.5 7.5t-7.5 20.5q0 6 2 14q10 34 39.5 57.5t78.5 23.5q54 0 86 -32t32 -79q0 -27 -8.5 -46.5t-27.5 -42.5l-41 -50q-11 -13 -14 -22t-3 -25v-9q0 -14 -8 -22t-21 -8zM189 147q0 16 11 26.5t27 10.5q15 0 26 -10.5t11 -26.5t-11 -27
t-26 -11q-16 0 -27 11t-11 27z" />
    <glyph glyph-name=".null" horiz-adv-x="0" 
 />
    <glyph glyph-name="nonmarkingreturn" horiz-adv-x="333" 
 />
    <glyph glyph-name="glyph219" horiz-adv-x="500" 
 />
    <glyph glyph-name="glyph219" horiz-adv-x="500" 
 />
    <glyph glyph-name="space" unicode=" " horiz-adv-x="242" 
 />
    <glyph glyph-name="exclam" unicode="!" horiz-adv-x="282" 
d="M141 182q-19 0 -30.5 11.5t-11.5 32.5v414q0 21 11.5 33t30.5 12t30.5 -12t11.5 -33v-414q0 -21 -11.5 -32.5t-30.5 -11.5zM84 52q0 23 17 40t40 17t40 -17t17 -40t-17 -40t-40 -17t-40 17t-17 40z" />
    <glyph glyph-name="quotedbl" unicode="&#x22;" horiz-adv-x="329" 
d="M230 498q-14 0 -23 9t-9 26v117q0 17 9 26t23 9q32 0 32 -35v-117q0 -35 -32 -35zM99 498q-14 0 -23 9t-9 26v117q0 17 9 26t23 9q32 0 32 -35v-117q0 -35 -32 -35z" />
    <glyph glyph-name="numbersign" unicode="#" horiz-adv-x="526" 
d="M106 215h-58q-35 0 -35 31t35 31h67l19 140h-61q-35 0 -35 31t35 31h69l24 175q3 31 33 31q17 0 25.5 -10.5t6.5 -29.5l-23 -166h132l24 175q5 31 33 31q17 0 25.5 -10.5t6.5 -29.5l-23 -166h63q35 0 35 -31t-35 -31h-71l-19 -140h65q35 0 35 -31t-35 -31h-74l-25 -189
q-3 -31 -33 -31q-17 0 -25.5 10.5t-6.5 29.5l24 180h-132l-25 -189q-5 -31 -33 -31q-17 0 -25.5 10.5t-6.5 29.5zM313 277l19 140h-132l-19 -140h132z" />
    <glyph glyph-name="dollar" unicode="$" 
d="M80 39q-21 12 -21 35q0 17 10.5 29t28.5 12q12 0 23 -6q26 -16 59.5 -28t69.5 -14v240q-91 17 -135.5 64.5t-44.5 121.5q0 42 13 76.5t37 60t57 41t73 19.5v39q0 27 25 27q11 0 17.5 -7t6.5 -20v-39q38 -3 69 -13t56 -24q22 -13 22 -34q0 -16 -10.5 -28t-27.5 -12
q-13 0 -23 6q-21 10 -41.5 17t-44.5 9v-230q92 -16 137 -63.5t45 -122.5q0 -84 -48 -138t-134 -65v-41q0 -13 -6.5 -20t-17.5 -7q-25 0 -25 27v38q-54 2 -96.5 16.5t-73.5 33.5zM250 611q-45 -6 -71.5 -35.5t-26.5 -75.5q0 -42 21 -69t77 -41v221zM299 70q47 8 73.5 38.5
t26.5 81.5q0 41 -22.5 68t-77.5 40v-228z" />
    <glyph glyph-name="percent" unicode="%" horiz-adv-x="778" 
d="M172 14q0 10 4 18l374 645q10 18 28 18q12 0 20 -8t8 -21q0 -10 -4 -18l-374 -645q-9 -18 -28 -18q-12 0 -20 8t-8 21zM198 330q-43 0 -73 21t-42 56q-2 7 -3.5 14t-2.5 17.5t-1.5 27t-0.5 43.5t0.5 43.5t1.5 27t2.5 17.5t3.5 14q12 35 42 56t73 21t73 -21t42 -56
q2 -7 3.5 -14t2.5 -17.5t1.5 -27t0.5 -43.5t-0.5 -43.5t-1.5 -27t-2.5 -17.5t-3.5 -14q-12 -35 -42 -56t-73 -21zM198 388q20 0 34 9t20 26q1 4 2 9t1.5 14.5t1 24.5t0.5 38t-0.5 38t-1 24.5t-1.5 14.5t-2 9q-6 17 -20 26t-34 9t-34 -9t-20 -26q-1 -4 -2 -9t-1.5 -14.5
t-1 -24.5t-0.5 -38t0.5 -38t1 -24.5t1.5 -14.5t2 -9q6 -17 20 -26t34 -9zM465 68q-2 7 -3.5 14t-2.5 17.5t-1.5 27t-0.5 43.5t0.5 43.5t1.5 27t2.5 17.5t3.5 14q12 35 42 56t73 21t73 -21t42 -56q2 -7 3.5 -14t2.5 -17.5t1.5 -27t0.5 -43.5t-0.5 -43.5t-1.5 -27t-2.5 -17.5
t-3.5 -14q-12 -35 -42 -56t-73 -21t-73 21t-42 56zM526 84q6 -17 20 -26t34 -9t34 9t20 26q1 4 2 9t1.5 14.5t1 24.5t0.5 38t-0.5 38t-1 24.5t-1.5 14.5t-2 9q-6 17 -20 26t-34 9t-34 -9t-20 -26q-1 -4 -2 -9t-1.5 -14.5t-1 -24.5t-0.5 -38t0.5 -38t1 -24.5t1.5 -14.5t2 -9z
" />
    <glyph glyph-name="ampersand" unicode="&#x26;" horiz-adv-x="633" 
d="M70 165q0 58 32.5 108t102.5 107q-24 32 -40.5 55t-26.5 41.5t-14 34.5t-4 34q0 32 11.5 58.5t32.5 46t49.5 30.5t62.5 11t63 -11.5t49.5 -31t32 -46t11.5 -56.5q0 -22 -6 -42t-20 -41t-37.5 -44t-57.5 -50l129 -167l53 65q13 15 30 15q14 0 24 -9.5t10 -25.5
q0 -15 -10 -26l-61 -78l35 -45q15 -19 37 -20q18 -1 28.5 -11.5t10.5 -26.5q0 -17 -10.5 -28.5t-30.5 -11.5h-6q-31 0 -50.5 10t-39.5 37l-27 34q-44 -47 -87 -69.5t-96 -22.5q-43 0 -76.5 13t-56.5 36.5t-35 55.5t-12 71zM266 428q28 22 45.5 38.5t27 30t12.5 25.5t3 25
q0 32 -22 52.5t-56 20.5q-35 0 -55 -21t-20 -53q0 -11 2.5 -20.5t9.5 -22.5t20 -30.5t33 -44.5zM149 171q0 -48 26.5 -78t79.5 -30q15 0 29 3t30 11.5t33.5 23.5t40.5 40l-138 180q-52 -42 -76.5 -76.5t-24.5 -73.5z" />
    <glyph glyph-name="quotesingle" unicode="'" horiz-adv-x="198" 
d="M99 498q-14 0 -23 9t-9 26v117q0 17 9 26t23 9q32 0 32 -35v-117q0 -35 -32 -35z" />
    <glyph glyph-name="parenleft" unicode="(" horiz-adv-x="285" 
d="M168 -66q-50 94 -77.5 191t-27.5 203t27.5 203t77.5 191q13 22 34 22q14 0 23 -9t9 -22q0 -11 -5 -21q-42 -91 -63.5 -180t-21.5 -184t21.5 -184t63.5 -180q5 -10 5 -21q0 -13 -9 -22t-23 -9q-21 0 -34 22z" />
    <glyph glyph-name="parenright" unicode=")" horiz-adv-x="285" 
d="M56 -36q42 91 63.5 180t21.5 184t-21.5 184t-63.5 180q-5 10 -5 21q0 13 9 22t23 9q21 0 34 -22q50 -94 77.5 -191t27.5 -203t-27.5 -203t-77.5 -191q-13 -22 -34 -22q-14 0 -23 9t-9 22q0 11 5 21z" />
    <glyph glyph-name="asterisk" unicode="*" horiz-adv-x="342" 
d="M171 389q-11 0 -18 7t-7 20v79l-67 -40q-8 -4 -16 -4q-11 0 -17.5 6.5t-6.5 17.5q0 15 15 23l69 39l-69 39q-15 7 -15 23q0 11 6.5 17.5t17.5 6.5q8 0 16 -4l67 -41v80q0 13 7 20t18 7t18 -7t7 -20l-2 -81l69 42q8 4 16 4q11 0 17.5 -6.5t6.5 -17.5q0 -16 -15 -23
l-70 -39l70 -39q15 -8 15 -23q0 -11 -6.5 -17.5t-17.5 -6.5q-8 0 -16 4l-69 41l2 -80q0 -13 -7 -20t-18 -7z" />
    <glyph glyph-name="plus" unicode="+" 
d="M233 233q0 6 -6 6h-129q-20 0 -30.5 10t-10.5 27t10.5 27t30.5 10h129q6 0 6 6v130q0 20 10.5 31t27.5 11t27.5 -11t10.5 -31v-130q0 -6 6 -6h129q20 0 30.5 -10t10.5 -27t-10.5 -27t-30.5 -10h-129q-6 0 -6 -6v-130q0 -20 -10.5 -31t-27.5 -11t-27.5 11t-10.5 31v130z
" />
    <glyph glyph-name="comma" unicode="," horiz-adv-x="230" 
d="M94 63q11 31 38 31q17 0 28.5 -10t11.5 -28q0 -11 -3 -20l-49 -144q-11 -31 -38 -31q-17 0 -27.5 10t-10.5 28q0 11 3 20z" />
    <glyph glyph-name="hyphen" unicode="-" horiz-adv-x="380" 
d="M82 227q-19 0 -30 11t-11 28t11 28t30 11h216q19 0 30 -11t11 -28t-11 -28t-30 -11h-216z" />
    <glyph glyph-name="period" unicode="." horiz-adv-x="236" 
d="M61 52q0 23 17 40t40 17t40 -17t17 -40t-17 -40t-40 -17t-40 17t-17 40z" />
    <glyph glyph-name="slash" unicode="/" horiz-adv-x="417" 
d="M69 21q0 7 3 16l203 628q9 30 35 30q16 0 27 -9.5t11 -26.5q0 -7 -3 -16l-203 -628q-9 -30 -35 -30q-16 0 -27 9.5t-11 26.5z" />
    <glyph glyph-name="zero" unicode="0" 
d="M85 118q-3 10 -5.5 23.5t-5 37.5t-3.5 62.5t-1 98.5t1 98.5t3.5 62.5t5 37.5t5.5 23.5q20 63 67.5 96t118.5 33t118.5 -33t67.5 -96q3 -10 5.5 -23.5t5 -37.5t3.5 -62.5t1 -98.5t-1 -98.5t-3.5 -62.5t-5 -37.5t-5.5 -23.5q-20 -63 -67.5 -96t-118.5 -33t-118.5 33
t-67.5 96zM168 135q12 -34 38.5 -51t64.5 -17t64.5 17t38.5 51q3 8 5 19t3.5 33t2 58.5t0.5 94.5t-0.5 94.5t-2 58.5t-3.5 33t-5 19q-12 34 -38.5 51t-64.5 17t-64.5 -17t-38.5 -51q-3 -8 -5 -19t-3.5 -33t-2 -58.5t-0.5 -94.5t0.5 -94.5t2 -58.5t3.5 -33t5 -19z" />
    <glyph glyph-name="one" unicode="1" 
d="M249 574h-2l-86 -60q-11 -8 -24 -8q-17 0 -28 11t-11 28q0 22 22 37l110 80q17 13 30.5 18t27.5 5q20 0 32.5 -12.5t12.5 -35.5v-597q0 -21 -12 -33t-30 -12t-30 12t-12 33v534z" />
    <glyph glyph-name="two" unicode="2" 
d="M71 37q0 14 5.5 26t19.5 30l232 296q23 30 35 57.5t12 59.5q0 47 -28.5 77t-78.5 30q-45 0 -71 -22t-37 -60q-11 -33 -39 -33q-19 0 -30.5 10.5t-11.5 28.5q0 7 2 15q6 26 20.5 51t38 44.5t56.5 31.5t75 12q44 0 79 -14t60 -39t38 -58.5t13 -73.5q0 -46 -17.5 -85.5
t-49.5 -79.5l-208 -261v-2h241q20 0 30.5 -11t10.5 -28t-10.5 -28t-30.5 -11h-315q-20 0 -30.5 10.5t-10.5 26.5z" />
    <glyph glyph-name="three" unicode="3" 
d="M77 107q-3 9 -3 19q0 17 11.5 27.5t28.5 10.5q25 0 40 -29q16 -31 43 -49.5t72 -18.5q56 0 86.5 33.5t30.5 87.5q0 57 -34 91t-91 34h-7q-20 0 -30.5 11t-10.5 28t10.5 28t30.5 11h6q50 0 81.5 30t31.5 84q0 49 -29 78.5t-80 29.5q-42 0 -66.5 -18.5t-37.5 -46.5
q-14 -29 -39 -29q-17 0 -28 10t-11 27q0 5 1 10.5t3 10.5q8 23 23.5 43.5t38 36.5t52.5 25t67 9q45 0 80.5 -13.5t60 -37.5t38 -57.5t13.5 -73.5q0 -54 -25.5 -91t-58.5 -57v-2q16 -7 33.5 -21.5t31.5 -36t23 -50t9 -62.5q0 -44 -15 -81t-42 -63.5t-64 -41t-82 -14.5
q-78 0 -125 34t-67 84z" />
    <glyph glyph-name="four" unicode="4" 
d="M91 123q-21 0 -32.5 11.5t-11.5 29.5q0 11 3 20.5t12 29.5l205 442q14 29 39 29q17 0 28.5 -11t11.5 -29q0 -10 -5 -20l-196 -423v-2h180q6 0 6 6v142q0 21 12 32.5t30 11.5t30 -11.5t12 -32.5v-142q0 -6 6 -6h40q19 0 30 -11t11 -28t-11 -27.5t-30 -10.5h-40q-6 0 -6 -6
v-78q0 -20 -12 -32t-30 -12t-30 12t-12 32v78q0 6 -6 6h-234z" />
    <glyph glyph-name="five" unicode="5" 
d="M92 107q-2 4 -2.5 9t-0.5 9q0 17 11 27.5t30 10.5q25 0 39 -29q15 -32 41.5 -49.5t66.5 -17.5q35 0 62.5 17.5t38.5 49.5q9 28 9 86q0 32 -2.5 51.5t-7.5 33.5q-11 35 -36.5 50.5t-60.5 15.5q-33 0 -55.5 -12.5t-40.5 -38.5q-12 -17 -22.5 -23.5t-24.5 -6.5q-40 0 -40 43
v310q0 37 37 37h288q20 0 30.5 -11t10.5 -28t-10.5 -28t-30.5 -11h-241q-6 0 -6 -6v-192h2q14 18 43 31.5t71 13.5q63 0 106 -28.5t61 -83.5q7 -22 11 -48.5t4 -68.5q0 -36 -3.5 -63.5t-10.5 -47.5q-19 -58 -67.5 -89t-114.5 -31q-72 0 -120.5 33.5t-64.5 84.5z" />
    <glyph glyph-name="six" unicode="6" 
d="M63 197q0 41 12.5 80t32.5 75l166 309q13 24 38 24q17 0 28 -10.5t11 -27.5q0 -14 -7 -25l-128 -234l2 -2q10 7 28 11.5t41 4.5q40 0 75 -14t61.5 -40.5t41.5 -64t15 -83.5q0 -50 -16 -89t-44 -66t-66.5 -41.5t-82.5 -14.5q-45 0 -83 14t-65.5 41t-43.5 65.5t-16 87.5z
M149 196q0 -57 33 -93t89 -36t89.5 36t33.5 93t-33.5 92.5t-89.5 35.5t-89 -35.5t-33 -92.5z" />
    <glyph glyph-name="seven" unicode="7" 
d="M159 35q0 5 1 9t3 9l216 546v3h-207q-6 0 -6 -7v-54q0 -20 -11 -32t-29 -12t-29 12t-11 32v100q0 18 10.5 28.5t29.5 10.5h304q22 0 33.5 -11.5t11.5 -31.5q0 -10 -3 -21t-11 -31l-222 -562q-12 -28 -40 -28q-17 0 -28.5 11.5t-11.5 28.5z" />
    <glyph glyph-name="eight" unicode="8" 
d="M61 189q0 60 27.5 103t68.5 65v2q-32 18 -56 55.5t-24 88.5q0 38 13.5 72.5t38.5 60t61 40.5t81 15q46 0 82 -15t61 -40.5t38 -60t13 -72.5q0 -51 -24 -88.5t-56 -55.5v-2q41 -22 68.5 -65t27.5 -103q0 -44 -15.5 -81t-43.5 -63.5t-66.5 -41t-84.5 -14.5t-84.5 14.5
t-66.5 41t-43.5 63.5t-15.5 81zM271 396q50 0 79 32t29 77t-29.5 76.5t-78.5 31.5t-78.5 -31.5t-29.5 -76.5t29 -77t79 -32zM147 193q0 -55 34 -90.5t90 -35.5q57 0 90.5 35.5t33.5 90.5q0 54 -33.5 89.5t-90.5 35.5t-90.5 -35.5t-33.5 -89.5z" />
    <glyph glyph-name="nine" unicode="9" 
d="M191 33q0 14 7 25l128 234l-2 2q-10 -7 -28 -11.5t-41 -4.5q-40 0 -75 14t-61.5 40.5t-41.5 63.5t-15 84q0 50 16 89t44 66t66.5 41.5t82.5 14.5q45 0 83 -14t65.5 -41t43.5 -65.5t16 -87.5q0 -41 -12.5 -80t-32.5 -75l-166 -309q-13 -24 -38 -24q-17 0 -28 10.5
t-11 27.5zM271 356q56 0 89 35.5t33 92.5t-33 93t-89 36t-89.5 -36t-33.5 -93t33.5 -92.5t89.5 -35.5z" />
    <glyph glyph-name="colon" unicode=":" horiz-adv-x="243" 
d="M122 370q-23 0 -40 17t-17 40t17 40t40 17t40 -17t17 -40t-17 -40t-40 -17zM64 52q0 23 17 40t40 17t40 -17t17 -40t-17 -40t-40 -17t-40 17t-17 40z" />
    <glyph glyph-name="semicolon" unicode=";" horiz-adv-x="243" 
d="M122 370q-23 0 -40 17t-17 40t17 40t40 17t40 -17t17 -40t-17 -40t-40 -17zM87 63q11 31 38 31q17 0 28.5 -10t11.5 -28q0 -11 -3 -20l-49 -144q-11 -31 -38 -31q-17 0 -27.5 10t-10.5 28q0 11 3 20z" />
    <glyph glyph-name="less" unicode="&#x3c;" 
d="M98 229q-41 16 -41 47t41 47l332 137q7 3 18 3q16 0 26.5 -9.5t10.5 -26.5q0 -27 -27 -37l-285 -113v-2l285 -113q27 -11 27 -37q0 -17 -10.5 -26.5t-26.5 -9.5q-11 0 -18 3z" />
    <glyph glyph-name="equal" unicode="=" 
d="M98 339q-20 0 -30.5 10t-10.5 27t10.5 27t30.5 10h346q20 0 30.5 -10t10.5 -27t-10.5 -27t-30.5 -10h-346zM98 139q-20 0 -30.5 10t-10.5 27t10.5 27t30.5 10h346q20 0 30.5 -10t10.5 -27t-10.5 -27t-30.5 -10h-346z" />
    <glyph glyph-name="greater" unicode="&#x3e;" 
d="M94 89q-16 0 -26.5 9.5t-10.5 26.5q0 26 27 37l285 113v2l-285 113q-27 10 -27 37q0 17 10.5 26.5t26.5 9.5q10 0 18 -3l332 -137q41 -16 41 -47t-41 -47l-332 -137q-8 -3 -18 -3z" />
    <glyph glyph-name="question" unicode="?" horiz-adv-x="456" 
d="M223 178q-18 0 -30 11.5t-12 31.5v15q0 29 8 51.5t29 48.5l55 72q15 19 25 34t15.5 27.5t8 24t2.5 25.5q0 45 -27 69.5t-70 24.5q-40 0 -65 -19.5t-36 -55.5q-6 -18 -16.5 -26t-24.5 -8q-17 0 -28.5 10.5t-11.5 27.5q0 6 3 20q15 55 61.5 92t119.5 37q40 0 73.5 -13
t57.5 -35.5t37 -53.5t13 -68q0 -40 -14 -71t-43 -69l-55 -72q-10 -13 -16.5 -22.5t-10 -18.5t-5 -18t-1.5 -19v-10q0 -20 -12 -31.5t-30 -11.5zM166 52q0 23 17 40t40 17t40 -17t17 -40t-17 -40t-40 -17t-40 17t-17 40z" />
    <glyph glyph-name="at" unicode="@" horiz-adv-x="893" 
d="M47 267q0 87 29 159t81 124t124.5 81t160.5 29q87 0 159.5 -29t124.5 -81t81 -124t29 -159q0 -56 -12.5 -96t-34 -65.5t-50.5 -38t-62 -12.5q-45 0 -75 20t-45 53h-1q-17 -35 -50 -54t-85 -19q-53 0 -89 24.5t-52 74.5q-7 20 -10.5 45t-3.5 64q0 40 3.5 64t10.5 44
q16 50 51 74.5t86 24.5q45 0 74 -16t43 -39h2v17q1 14 10 23.5t25 9.5t25.5 -10t9.5 -27v-222q0 -45 21.5 -65.5t50.5 -20.5q18 0 34 8t28 25.5t18.5 45.5t6.5 68q0 73 -23 133t-65 103.5t-101.5 67.5t-133.5 24t-134 -24t-102 -67.5t-65 -103.5t-23 -133q0 -74 23 -134.5
t66 -103.5t103.5 -66t134.5 -23q66 0 112 10.5t87 28.5q8 4 16 4q13 0 21.5 -7.5t8.5 -21.5q0 -20 -19 -30q-48 -25 -102 -37t-124 -12q-88 0 -161 28.5t-125.5 80t-82 123.5t-29.5 160zM347 185q22 -63 90 -63t90 63q5 14 7 31.5t2 46.5t-2 46.5t-7 31.5q-22 63 -90 63
t-90 -63q-5 -14 -7 -31.5t-2 -46.5t2 -46.5t7 -31.5z" />
    <glyph glyph-name="A" unicode="A" horiz-adv-x="607" 
d="M33 36q0 5 1 10t3 10l209 579q8 24 21.5 37t36.5 13q43 0 60 -50l206 -579q2 -5 3 -10t1 -10q0 -19 -12.5 -30t-29.5 -11q-32 0 -43 32l-46 131h-279l-46 -131q-11 -32 -43 -32q-17 0 -29.5 11t-12.5 30zM414 240l-108 309h-3l-110 -309h221z" />
    <glyph glyph-name="B" unicode="B" horiz-adv-x="604" 
d="M84 640q0 18 10.5 29t29.5 11h211q103 0 154 -48.5t51 -129.5q0 -60 -25 -96.5t-67 -52.5v-2q18 -5 36.5 -17.5t33.5 -32.5t24.5 -47t9.5 -60q0 -97 -58 -145.5t-162 -48.5h-208q-40 0 -40 40v600zM333 386q57 0 88 29t31 77q0 49 -31 78t-88 29h-154q-6 0 -6 -6v-201
q0 -6 6 -6h154zM173 87q0 -6 6 -6h159q61 0 93 30.5t32 81.5t-32 81.5t-93 30.5h-159q-6 0 -6 -6v-212z" />
    <glyph glyph-name="C" unicode="C" horiz-adv-x="563" 
d="M79 150q-6 18 -9.5 36.5t-6 40.5t-3 49.5t-0.5 63.5t0.5 63.5t3 49.5t6 40.5t9.5 36.5q26 78 83 119.5t144 41.5q66 0 118 -29.5t81 -81.5q8 -13 8 -28q0 -19 -12 -30t-29 -11q-24 0 -40 25q-24 36 -54 54t-72 18q-57 0 -91 -28.5t-49 -76.5q-4 -12 -7 -26.5t-5 -33.5
t-3 -44t-1 -59t1 -59t3 -44t5 -33.5t7 -26.5q15 -48 49 -76.5t91 -28.5q42 0 72 18t54 54q16 25 40 25q17 0 29 -11t12 -30q0 -15 -8 -28q-29 -52 -81 -81.5t-118 -29.5q-87 0 -144 41.5t-83 119.5z" />
    <glyph glyph-name="D" unicode="D" horiz-adv-x="623" 
d="M84 640q0 18 10.5 29t29.5 11h173q196 0 246 -155q6 -17 9.5 -34t6 -38.5t3.5 -48.5t1 -64t-1 -64t-3.5 -48.5t-6 -39t-9.5 -33.5q-50 -155 -246 -155h-173q-19 0 -29.5 11t-10.5 29v600zM173 89q0 -6 6 -6h112q68 0 108 23t58 79q4 13 7 27.5t5 32.5t3 41.5t1 53.5
t-1 53.5t-3 41.5t-5 32.5t-7 27.5q-18 56 -58 79t-108 23h-112q-6 0 -6 -6v-502z" />
    <glyph glyph-name="E" unicode="E" horiz-adv-x="563" 
d="M84 640q0 18 10.5 29t29.5 11h350q20 0 32 -12t12 -29q0 -18 -12 -30t-32 -12h-295q-6 0 -6 -6v-200q0 -6 6 -6h246q20 0 32 -12t12 -29q0 -18 -12 -30t-32 -12h-246q-6 0 -6 -6v-207q0 -6 6 -6h295q20 0 32 -12t12 -29q0 -18 -12 -30t-32 -12h-350q-19 0 -29.5 11
t-10.5 29v600z" />
    <glyph glyph-name="F" unicode="F" horiz-adv-x="556" 
d="M84 640q0 18 10.5 29t29.5 11h349q20 0 32 -12t12 -29q0 -18 -12 -30t-32 -12h-294q-6 0 -6 -6v-207q0 -6 6 -6h245q20 0 32 -12t12 -29q0 -18 -12 -30t-32 -12h-245q-6 0 -6 -5v-247q0 -23 -12 -35.5t-32 -12.5t-32.5 12.5t-12.5 35.5v597z" />
    <glyph glyph-name="G" unicode="G" horiz-adv-x="619" 
d="M79 150q-6 18 -9.5 36.5t-6 40.5t-3 49.5t-0.5 63.5t0.5 63.5t3 49.5t6 40.5t9.5 36.5q26 78 84 119.5t146 41.5q77 0 131.5 -30t80.5 -80q7 -14 7 -27q0 -19 -12 -30t-29 -11q-25 0 -40 25q-45 70 -138 70q-59 0 -93.5 -28.5t-49.5 -76.5q-4 -12 -7 -26.5t-5 -33.5
t-3 -44t-1 -59t1 -59t3 -44t5 -33.5t7 -26.5q15 -48 49.5 -76.5t93.5 -28.5q56 0 94 25.5t54 75.5q8 23 10.5 49.5t2.5 51.5q0 6 -6 6h-104q-20 0 -32 12t-12 30q0 17 12 29t32 12h158q19 0 30 -11t11 -30v-19q0 -37 -4.5 -78t-14.5 -72q-26 -80 -85 -122t-146 -42
q-88 0 -146 41.5t-84 119.5z" />
    <glyph glyph-name="H" unicode="H" horiz-adv-x="653" 
d="M84 637q0 23 12.5 35.5t32.5 12.5t32 -12.5t12 -35.5v-246q0 -6 6 -6h295q6 0 6 6v246q0 23 12.5 35.5t32.5 12.5t32 -12.5t12 -35.5v-594q0 -23 -12 -35.5t-32 -12.5t-32.5 12.5t-12.5 35.5v253q0 6 -6 6h-295q-6 0 -6 -6v-253q0 -23 -12 -35.5t-32 -12.5t-32.5 12.5
t-12.5 35.5v594z" />
    <glyph glyph-name="I" unicode="I" horiz-adv-x="257" 
d="M84 637q0 23 12.5 35.5t32.5 12.5t32 -12.5t12 -35.5v-594q0 -23 -12 -35.5t-32 -12.5t-32.5 12.5t-12.5 35.5v594z" />
    <glyph glyph-name="J" unicode="J" horiz-adv-x="489" 
d="M52 39q-15 13 -15 33q0 17 11.5 28.5t28.5 11.5q14 0 32 -12q19 -12 42 -20t47 -8q57 0 90 34t33 112v419q0 23 12.5 35.5t32.5 12.5t32 -12.5t12 -35.5v-419q0 -114 -57.5 -171.5t-156.5 -57.5q-44 0 -82.5 15t-61.5 35z" />
    <glyph glyph-name="K" unicode="K" horiz-adv-x="597" 
d="M84 637q0 23 12.5 35.5t32.5 12.5t32 -12.5t12 -35.5v-324l290 353q7 8 16.5 13.5t20.5 5.5q16 0 28 -11t12 -28q0 -15 -12 -29l-174 -206l199 -346q9 -15 9 -28q0 -17 -11.5 -29.5t-30.5 -12.5q-27 0 -42 26l-183 321l-122 -148v-151q0 -23 -12 -35.5t-32 -12.5
t-32.5 12.5t-12.5 35.5v594z" />
    <glyph glyph-name="L" unicode="L" horiz-adv-x="538" 
d="M84 637q0 23 12 35.5t32 12.5t32.5 -12.5t12.5 -35.5v-548q0 -6 6 -6h295q20 0 32 -12t12 -29q0 -18 -12 -30t-32 -12h-347q-20 0 -31.5 12t-11.5 32v593z" />
    <glyph glyph-name="M" unicode="M" horiz-adv-x="755" 
d="M84 630q0 26 13.5 40.5t36.5 14.5q20 0 32.5 -12t23.5 -36l188 -425h3l185 425q11 24 23 36t32 12q23 0 36.5 -14.5t13.5 -40.5v-590q0 -21 -11.5 -33t-30.5 -12t-30 12t-11 33v443h-3l-156 -345q-12 -26 -23.5 -35t-28.5 -9t-28 9t-23 35l-156 345h-3v-443
q0 -21 -11 -33t-30 -12t-30.5 12t-11.5 33v590z" />
    <glyph glyph-name="N" unicode="N" horiz-adv-x="654" 
d="M84 631q0 25 13 39.5t36 14.5q20 0 33.5 -12t26.5 -34l290 -479h4v480q0 21 11.5 33t29.5 12q19 0 30.5 -12t11.5 -33v-591q0 -25 -13 -39.5t-36 -14.5q-20 0 -34 12t-27 34l-290 477h-3v-478q0 -21 -11.5 -33t-29.5 -12q-19 0 -30.5 12t-11.5 33v591z" />
    <glyph glyph-name="O" unicode="O" horiz-adv-x="619" 
d="M309 -11q-88 0 -146 41.5t-84 119.5q-6 18 -9.5 36.5t-6 40.5t-3 49.5t-0.5 63.5t0.5 63.5t3 49.5t6 40.5t9.5 36.5q26 78 84 119.5t146 41.5q89 0 147 -41.5t84 -119.5q6 -18 9.5 -36.5t6 -40.5t3 -49.5t0.5 -63.5t-0.5 -63.5t-3 -49.5t-6 -40.5t-9.5 -36.5
q-26 -78 -84 -119.5t-147 -41.5zM309 72q60 0 94.5 28.5t49.5 76.5q4 12 7 26.5t5 33.5t3 44t1 59t-1 59t-3 44t-5 33.5t-7 26.5q-15 48 -49.5 76.5t-94.5 28.5q-59 0 -93.5 -28.5t-49.5 -76.5q-4 -12 -7 -26.5t-5 -33.5t-3 -44t-1 -59t1 -59t3 -44t5 -33.5t7 -26.5
q15 -48 49.5 -76.5t93.5 -28.5z" />
    <glyph glyph-name="P" unicode="P" horiz-adv-x="592" 
d="M84 640q0 18 10.5 29t29.5 11h210q51 0 91.5 -14.5t68.5 -41.5t43 -64.5t15 -82.5t-15 -82.5t-43 -64.5t-68.5 -41.5t-91.5 -14.5h-155q-6 0 -6 -6v-225q0 -23 -12 -35.5t-32 -12.5t-32.5 12.5t-12.5 35.5v597zM331 357q63 0 98 32t35 88t-35 88t-98 32h-152q-6 0 -6 -6
v-228q0 -6 6 -6h152z" />
    <glyph glyph-name="Q" unicode="Q" horiz-adv-x="619" 
d="M309 -11q-88 0 -146 41.5t-84 119.5q-6 18 -9.5 36.5t-6 40.5t-3 49.5t-0.5 63.5t0.5 63.5t3 49.5t6 40.5t9.5 36.5q26 78 84 119.5t146 41.5q89 0 147 -41.5t84 -119.5q6 -18 9.5 -36.5t6 -40.5t3 -49.5t0.5 -63.5t-0.5 -63.5t-3 -49.5t-6 -40.5t-9.5 -36.5
q-5 -16 -11.5 -29.5t-14.5 -26.5l53 -53q14 -14 14 -33q0 -17 -12 -29t-29 -12q-19 0 -34 15l-49 49q-59 -42 -148 -42zM309 72q50 0 85 22l-56 57q-14 14 -14 33q0 17 12 29t29 12q19 0 34 -15l48 -49l6 16q4 12 7 26.5t5 33.5t3 44t1 59t-1 59t-3 44t-5 33.5t-7 26.5
q-15 48 -49.5 76.5t-94.5 28.5q-59 0 -93.5 -28.5t-49.5 -76.5q-4 -12 -7 -26.5t-5 -33.5t-3 -44t-1 -59t1 -59t3 -44t5 -33.5t7 -26.5q15 -48 49.5 -76.5t93.5 -28.5z" />
    <glyph glyph-name="R" unicode="R" horiz-adv-x="617" 
d="M129 -5q-20 0 -32.5 12.5t-12.5 35.5v597q0 18 10.5 29t29.5 11h213q49 0 89 -14t68 -39.5t43 -61.5t15 -81q0 -69 -34 -116t-95 -67l122 -240q6 -12 6 -24q0 -17 -11.5 -29.5t-31.5 -12.5q-27 0 -43 28l-134 265h-152q-6 0 -6 -6v-239q0 -23 -12 -35.5t-32 -12.5z
M338 371q60 0 93 29.5t33 83.5t-33 83.5t-93 29.5h-159q-6 0 -6 -6v-214q0 -6 6 -6h159z" />
    <glyph glyph-name="S" unicode="S" horiz-adv-x="591" 
d="M289 -11q-66 0 -120.5 19.5t-90.5 44.5q-22 16 -22 39q0 17 11.5 29.5t31.5 12.5q14 0 28 -9q37 -23 78.5 -38t90.5 -15q72 0 112 31.5t40 84.5q0 22 -6.5 39.5t-23 31.5t-44 24t-68.5 16l-33 5q-103 16 -152 62t-49 127q0 45 15.5 82t44.5 62.5t70 39.5t92 14
q55 0 102 -13.5t78 -32.5q24 -16 24 -39q0 -17 -11.5 -28.5t-28.5 -11.5q-7 0 -14.5 2.5t-14.5 5.5q-32 14 -66 24t-72 10q-65 0 -97 -31t-32 -79q0 -21 7 -38.5t23.5 -31t43.5 -23.5t67 -16l33 -5q103 -16 152.5 -62.5t49.5 -128.5q0 -44 -15.5 -81.5t-47 -64.5t-78 -42.5
t-108.5 -15.5z" />
    <glyph glyph-name="T" unicode="T" horiz-adv-x="537" 
d="M476 680q20 0 32 -12t12 -30q0 -17 -12 -29t-32 -12h-157q-6 0 -6 -6v-548q0 -23 -12 -35.5t-32 -12.5t-32.5 12.5t-12.5 35.5v548q0 6 -6 6h-157q-20 0 -32 12t-12 29q0 18 12 30t32 12h415z" />
    <glyph glyph-name="U" unicode="U" horiz-adv-x="639" 
d="M471 637q0 23 12.5 35.5t32.5 12.5t32 -12.5t12 -35.5v-399q0 -62 -17 -109t-48.5 -78t-76 -46.5t-99.5 -15.5q-54 0 -98.5 15.5t-76 46.5t-48.5 78t-17 109v399q0 23 12.5 35.5t32.5 12.5t32 -12.5t12 -35.5v-399q0 -83 41.5 -124.5t110.5 -41.5q68 0 109.5 41.5
t41.5 124.5v399z" />
    <glyph glyph-name="V" unicode="V" horiz-adv-x="563" 
d="M282 144h3l167 506q11 35 42 35q19 0 31 -12t12 -30q0 -10 -4 -22l-197 -575q-10 -27 -22 -39t-33 -12q-20 0 -32.5 12t-21.5 39l-197 575q-4 12 -4 22q0 18 12 30t31 12q31 0 43 -35z" />
    <glyph glyph-name="W" unicode="W" horiz-adv-x="822" 
d="M595 -5q-18 0 -29 11t-19 37l-134 474h-2l-136 -474q-8 -26 -19 -37t-29 -11t-29.5 11t-18.5 37l-148 579q-3 12 -3 21q0 17 11.5 29.5t31.5 12.5q34 0 43 -38l117 -482h2l133 477q12 43 46 43q33 0 45 -43l136 -478h2l113 483q9 38 43 38q20 0 31.5 -12.5t11.5 -29.5
q0 -9 -3 -21l-148 -579q-7 -26 -18.5 -37t-29.5 -11z" />
    <glyph glyph-name="X" unicode="X" horiz-adv-x="556" 
d="M279 274h-1l-159 -255q-15 -24 -38 -24q-19 0 -31 12t-12 29q0 15 8 28l182 290l-164 262q-8 13 -8 28q0 17 12 29t31 12q23 0 38 -24l141 -227h1l142 227q15 24 38 24q19 0 31 -12t12 -29q0 -15 -8 -28l-166 -262l182 -290q8 -13 8 -28q0 -17 -12 -29t-31 -12
q-23 0 -38 24z" />
    <glyph glyph-name="Y" unicode="Y" horiz-adv-x="526" 
d="M307 276v-233q0 -23 -12 -35.5t-32 -12.5q-19 0 -31.5 12.5t-12.5 35.5v233l-186 343q-7 14 -7 26q0 17 12 28.5t30 11.5q25 0 39 -26l156 -290h3l154 290q14 26 39 26q18 0 29.5 -11.5t11.5 -28.5q0 -12 -7 -26z" />
    <glyph glyph-name="Z" unicode="Z" horiz-adv-x="536" 
d="M88 0q-22 0 -34.5 11.5t-12.5 30.5q0 14 6 27.5t20 35.5l318 491v1h-287q-20 0 -32 12t-12 29q0 18 12 30t32 12h350q22 0 34.5 -12t12.5 -31q0 -13 -5 -25t-19 -35l-320 -493v-1h300q20 0 32 -12t12 -29q0 -18 -12 -30t-32 -12h-363z" />
    <glyph glyph-name="bracketleft" unicode="[" horiz-adv-x="281" 
d="M114 -84q-34 0 -34 34v756q0 34 34 34h98q37 0 37 -34t-37 -34h-47q-6 0 -6 -6v-676q0 -6 6 -6h47q37 0 37 -34t-37 -34h-98z" />
    <glyph glyph-name="backslash" unicode="\" horiz-adv-x="417" 
d="M310 -15q-26 0 -35 30l-203 628q-3 9 -3 16q0 17 11 26.5t27 9.5q26 0 35 -30l203 -628q3 -9 3 -16q0 -17 -11 -26.5t-27 -9.5z" />
    <glyph glyph-name="bracketright" unicode="]" horiz-adv-x="281" 
d="M69 -84q-37 0 -37 34t37 34h47q6 0 6 6v676q0 6 -6 6h-47q-37 0 -37 34t37 34h98q34 0 34 -34v-756q0 -34 -34 -34h-98z" />
    <glyph glyph-name="asciicircum" unicode="^" 
d="M432 268q-26 0 -36 27l-124 280h-2l-124 -280q-11 -27 -36 -27q-17 0 -27 9.5t-10 25.5q0 11 5 21l147 325q16 36 46 36q29 0 46 -36l147 -325q5 -10 5 -21q0 -16 -10 -25.5t-27 -9.5z" />
    <glyph glyph-name="underscore" unicode="_" horiz-adv-x="480" 
d="M0 -132v56h480v-56h-480z" />
    <glyph glyph-name="grave" unicode="`" horiz-adv-x="433" 
d="M246 549q-16 0 -28 16l-58 86q-8 13 -8 25q0 14 10 23t24 9q19 0 30 -17l56 -86q7 -13 7 -24q0 -14 -9 -23t-24 -9z" />
    <glyph glyph-name="a" unicode="a" horiz-adv-x="520" 
d="M467 59q7 -12 7 -24q0 -17 -12 -28.5t-31 -11.5q-22 0 -37 21l-19 30h-1q-24 -27 -59 -42t-88 -15q-81 0 -125 37.5t-44 106.5q0 75 48.5 111.5t138.5 36.5h109q6 0 6 6v23q0 51 -26 78t-89 27q-28 0 -54.5 -7.5t-43.5 -16.5q-14 -7 -24 -7q-17 0 -26.5 9.5t-9.5 26.5
q0 10 4.5 19t15.5 15q23 15 59.5 25.5t86.5 10.5q97 0 142.5 -45t45.5 -134v-172q0 -19 2 -28.5t7 -20.5zM239 61q56 0 88.5 24.5t32.5 69.5v53q0 6 -6 6h-96q-62 0 -90.5 -18.5t-28.5 -59.5q0 -38 26 -56.5t74 -18.5z" />
    <glyph glyph-name="b" unicode="b" horiz-adv-x="538" 
d="M124 -5q-18 0 -30 12t-12 33v600q0 21 12 33t30 12t30 -12t12 -33v-214h1q17 28 49.5 46t86.5 18q61 0 103.5 -31.5t61.5 -88.5q9 -29 13 -59t4 -71q0 -42 -4 -72t-13 -59q-19 -57 -61.5 -88.5t-103.5 -31.5q-54 0 -86.5 17.5t-49.5 46.5h-1v-13q0 -21 -12 -33t-30 -12z
M283 67q40 0 66.5 19.5t38.5 55.5q7 20 9 43t2 55q0 31 -2 54t-9 43q-12 36 -38.5 55.5t-66.5 19.5q-41 0 -67.5 -19.5t-38.5 -55.5q-7 -20 -9 -43t-2 -54q0 -32 2 -55t9 -43q12 -36 38.5 -55.5t67.5 -19.5z" />
    <glyph glyph-name="c" unicode="c" horiz-adv-x="472" 
d="M257 -11q-69 0 -119 33t-70 96q-7 22 -11 51.5t-4 70.5q0 40 4 69.5t11 51.5q20 63 70 96t119 33q54 0 92 -20.5t61 -49.5q12 -17 12 -31q0 -16 -10.5 -26.5t-26.5 -10.5q-11 0 -20 5.5t-17 14.5q-17 18 -38 29t-53 11q-39 0 -67 -18.5t-40 -56.5q-6 -19 -8.5 -42
t-2.5 -55t2.5 -55.5t8.5 -42.5q12 -38 40 -56.5t67 -18.5q32 0 53 11t38 29q8 9 17 14.5t20 5.5q16 0 26.5 -10.5t10.5 -26.5q0 -15 -12 -31q-23 -29 -61 -49.5t-92 -20.5z" />
    <glyph glyph-name="d" unicode="d" horiz-adv-x="538" 
d="M414 -5q-18 0 -30 12t-12 33v13h-1q-17 -29 -49.5 -46.5t-86.5 -17.5q-61 0 -103.5 31.5t-61.5 88.5q-9 29 -13 59t-4 72q0 41 4 71t13 59q19 57 61.5 88.5t103.5 31.5q54 0 86.5 -18t49.5 -46h1v214q0 21 12 33t30 12t30 -12t12 -33v-600q0 -21 -12 -33t-30 -12zM255 67
q41 0 67.5 19.5t38.5 55.5q7 20 9 43t2 55q0 31 -2 54t-9 43q-12 36 -38.5 55.5t-67.5 19.5q-40 0 -66.5 -19.5t-38.5 -55.5q-7 -20 -9 -43t-2 -54q0 -32 2 -55t9 -43q12 -36 38.5 -55.5t66.5 -19.5z" />
    <glyph glyph-name="e" unicode="e" horiz-adv-x="512" 
d="M262 -11q-75 0 -124 33.5t-69 96.5q-8 23 -12 50.5t-4 70.5t3.5 70.5t11.5 50.5q20 63 69 96t118 33q71 0 119.5 -33t68.5 -95q16 -47 16 -116q0 -14 -9 -23t-24 -9h-281q-6 0 -6 -6q0 -17 1.5 -30.5t6.5 -27.5q14 -42 45 -62.5t76 -20.5q35 0 61.5 10.5t53.5 30.5
q15 12 29 12q15 0 25 -10t10 -25q0 -17 -13 -30q-31 -29 -73.5 -47.5t-98.5 -18.5zM367 281q6 0 6 6q0 33 -7 54q-12 36 -40.5 55.5t-69.5 19.5t-69.5 -19.5t-40.5 -55.5q-7 -21 -7 -54q0 -6 6 -6h222z" />
    <glyph glyph-name="f" unicode="f" horiz-adv-x="319" 
d="M259 479q17 0 26.5 -9.5t9.5 -24.5t-9.5 -24.5t-26.5 -9.5h-71q-6 0 -6 -6v-365q0 -21 -12 -33t-30 -12t-30 12t-12 33v365q0 6 -6 6h-27q-17 0 -26.5 9.5t-9.5 24.5t9.5 24.5t26.5 9.5h27q6 0 6 6v42q0 86 36.5 119.5t111.5 33.5h7q22 0 33 -11t11 -28t-10.5 -28
t-30.5 -11q-23 0 -37.5 -3t-22.5 -10.5t-11 -21t-3 -35.5v-47q0 -6 6 -6h71z" />
    <glyph glyph-name="g" unicode="g" horiz-adv-x="530" 
d="M364 427v12q0 21 12 33t30 12t30 -12t12 -33v-415q0 -108 -54.5 -161.5t-154.5 -53.5q-48 0 -89 17t-63 40q-12 12 -12 27q0 17 10.5 28t27.5 11q16 0 34 -13q20 -15 44.5 -23.5t50.5 -8.5q58 0 90 30.5t32 99.5v52h-1q-18 -30 -49.5 -46.5t-84.5 -16.5q-60 0 -101.5 31
t-59.5 88q-8 26 -12 54.5t-4 68.5t4 68.5t12 54.5q18 57 59.5 88t101.5 31q54 0 85.5 -18t48.5 -45h1zM251 83q76 0 102 75q11 32 11 90q0 57 -11 89q-26 75 -102 75q-77 0 -102 -75q-11 -32 -11 -89q0 -58 11 -90q25 -75 102 -75z" />
    <glyph glyph-name="h" unicode="h" horiz-adv-x="545" 
d="M82 640q0 21 12 33t30 12t30 -12t12 -33v-215h1q17 28 51 46.5t83 18.5q78 0 122 -49t44 -131v-270q0 -21 -12 -33t-30 -12t-30 12t-12 33v250q0 58 -26.5 90t-80.5 32q-49 0 -79.5 -31.5t-30.5 -85.5v-255q0 -21 -12 -33t-30 -12t-30 12t-12 33v600z" />
    <glyph glyph-name="i" unicode="i" horiz-adv-x="248" 
d="M124 575q-23 0 -39 16t-16 39t16 39t39 16t39 -16t16 -39t-16 -39t-39 -16zM82 439q0 21 12 33t30 12t30 -12t12 -33v-399q0 -21 -12 -33t-30 -12t-30 12t-12 33v399z" />
    <glyph glyph-name="j" unicode="j" horiz-adv-x="248" 
d="M124 575q-23 0 -39 16t-16 39t16 39t39 16t39 -16t16 -39t-16 -39t-39 -16zM82 439q0 21 12 33t30 12t30 -12t12 -33v-475q0 -77 -34.5 -110.5t-103.5 -33.5q-20 0 -30 11t-10 28t9.5 27t27.5 12q33 3 45 15.5t12 49.5v476z" />
    <glyph glyph-name="k" unicode="k" horiz-adv-x="511" 
d="M82 640q0 21 12 33t30 12t30 -12t12 -33v-392l196 221q13 15 32 15q14 0 24.5 -9.5t10.5 -25.5q0 -15 -12 -28l-111 -121l151 -242q7 -11 7 -25q0 -16 -11.5 -27t-28.5 -11q-24 0 -39 24l-135 221l-84 -94v-106q0 -21 -12 -33t-30 -12t-30 12t-12 33v600z" />
    <glyph glyph-name="l" unicode="l" horiz-adv-x="279" 
d="M197 -5q-65 0 -91 31.5t-26 96.5v517q0 21 12 33t30 12t30 -12t12 -33v-512q0 -30 10.5 -42.5t35.5 -12.5q18 0 28.5 -11t10.5 -28t-11 -28t-32 -11h-9z" />
    <glyph glyph-name="m" unicode="m" horiz-adv-x="845" 
d="M82 439q0 21 12 33t30 12t30 -12t12 -33v-14h1q20 29 52.5 47t81.5 18q50 0 85 -20t55 -55h1q24 34 61 54.5t94 20.5q81 0 126 -47.5t45 -132.5v-270q0 -21 -12 -33t-30 -12t-30 12t-12 33v250q0 58 -26.5 90t-80.5 32q-49 0 -79.5 -31.5t-30.5 -85.5v-255q0 -21 -12 -33
t-30 -12t-30 12t-12 33v250q0 58 -26.5 90t-80.5 32q-49 0 -79.5 -31.5t-30.5 -85.5v-255q0 -21 -12 -33t-30 -12t-30 12t-12 33v399z" />
    <glyph glyph-name="n" unicode="n" horiz-adv-x="544" 
d="M82 439q0 21 12 33t30 12t30 -12t12 -33v-14h1q17 28 51 46.5t83 18.5q78 0 122 -49t44 -131v-270q0 -21 -12 -33t-30 -12t-30 12t-12 33v250q0 58 -26.5 90t-80.5 32q-49 0 -79.5 -31.5t-30.5 -85.5v-255q0 -21 -12 -33t-30 -12t-30 12t-12 33v399z" />
    <glyph glyph-name="o" unicode="o" horiz-adv-x="516" 
d="M258 -11q-70 0 -119.5 34t-69.5 95q-8 25 -12 52.5t-4 69.5t4 69t12 52q20 62 69.5 95.5t119.5 33.5t119.5 -33.5t69.5 -95.5q8 -25 12 -52t4 -69t-4 -69.5t-12 -52.5q-20 -61 -69.5 -95t-119.5 -34zM258 67q40 0 68 19.5t40 55.5q6 20 8.5 41.5t2.5 56.5t-2.5 56
t-8.5 41q-12 36 -40 55.5t-68 19.5t-68 -19.5t-40 -55.5q-6 -20 -8.5 -41t-2.5 -56t2.5 -56.5t8.5 -41.5q12 -36 40 -55.5t68 -19.5z" />
    <glyph glyph-name="p" unicode="p" horiz-adv-x="538" 
d="M124 -185q-18 0 -30 12t-12 33v579q0 21 12 33t30 12t30 -12t12 -33v-13h1q17 29 49.5 46.5t86.5 17.5q61 0 103.5 -31.5t61.5 -88.5q9 -29 13 -59t4 -72q0 -41 -4 -71t-13 -59q-19 -57 -61.5 -88.5t-103.5 -31.5q-54 0 -86.5 18t-49.5 46h-1v-193q0 -21 -12 -33t-30 -12
zM283 67q40 0 66.5 19.5t38.5 55.5q7 20 9 43t2 54q0 32 -2 55t-9 43q-12 36 -38.5 55.5t-66.5 19.5q-41 0 -67.5 -19.5t-38.5 -55.5q-7 -20 -9 -43t-2 -55q0 -31 2 -54t9 -43q12 -36 38.5 -55.5t67.5 -19.5z" />
    <glyph glyph-name="q" unicode="q" horiz-adv-x="538" 
d="M414 -185q-18 0 -30 12t-12 33v193h-1q-17 -28 -49.5 -46t-86.5 -18q-61 0 -103.5 31.5t-61.5 88.5q-9 29 -13 59t-4 71q0 42 4 72t13 59q19 57 61.5 88.5t103.5 31.5q54 0 86.5 -17.5t49.5 -46.5h1v13q0 21 12 33t30 12t30 -12t12 -33v-579q0 -21 -12 -33t-30 -12z
M255 67q41 0 67.5 19.5t38.5 55.5q7 20 9 43t2 54q0 32 -2 55t-9 43q-12 36 -38.5 55.5t-67.5 19.5q-40 0 -66.5 -19.5t-38.5 -55.5q-7 -20 -9 -43t-2 -55q0 -31 2 -54t9 -43q12 -36 38.5 -55.5t66.5 -19.5z" />
    <glyph glyph-name="r" unicode="r" horiz-adv-x="407" 
d="M124 -5q-18 0 -30 12t-12 33v399q0 21 12 33t30 12t30 -12t12 -33v-22h1q15 32 46.5 52.5t76.5 20.5q25 0 42 -5t29 -12q24 -13 24 -36q0 -18 -11.5 -30t-30.5 -12q-9 0 -21 5q-14 5 -27 8.5t-28 3.5q-54 0 -77.5 -40t-23.5 -100v-232q0 -21 -12 -33t-30 -12z" />
    <glyph glyph-name="s" unicode="s" horiz-adv-x="490" 
d="M244 -11q-55 0 -99.5 16t-74.5 37q-20 14 -20 35q0 15 11 26.5t28 11.5q6 0 12.5 -2t15.5 -7q29 -17 61 -29.5t73 -12.5q52 0 78.5 20t26.5 52q0 30 -18.5 46t-75.5 22l-50 5q-71 8 -107 42.5t-36 92.5q0 69 46 107.5t131 38.5q42 0 78.5 -9.5t64.5 -25.5q25 -13 25 -35
q0 -15 -10.5 -25.5t-25.5 -10.5q-13 0 -30 8q-24 11 -50.5 18t-55.5 7q-45 0 -68 -18.5t-23 -47.5t20 -44.5t74 -20.5l50 -5q75 -8 109.5 -42.5t34.5 -93.5q0 -71 -49.5 -113.5t-145.5 -42.5z" />
    <glyph glyph-name="t" unicode="t" horiz-adv-x="318" 
d="M226 -5q-74 0 -104 33t-30 108v269q0 6 -6 6h-27q-17 0 -26.5 9.5t-9.5 24.5t9.5 24.5t26.5 9.5h27q6 0 6 6v105q0 21 12 33t30 12t30 -12t12 -33v-105q0 -6 6 -6h63q17 0 26.5 -9.5t9.5 -24.5t-9.5 -24.5t-26.5 -9.5h-63q-6 0 -6 -6v-266q0 -38 13 -52t51 -14
q20 0 30.5 -11t10.5 -28t-11 -28t-34 -11h-10z" />
    <glyph glyph-name="u" unicode="u" horiz-adv-x="539" 
d="M457 40q0 -21 -12 -33t-30 -12t-30 12t-12 33v14h-1q-17 -28 -50 -46.5t-82 -18.5q-78 0 -121.5 49t-43.5 131v270q0 21 12 33t30 12t30 -12t12 -33v-250q0 -58 26 -90t80 -32q49 0 78.5 31.5t29.5 85.5v255q0 21 12 33t30 12t30 -12t12 -33v-399z" />
    <glyph glyph-name="v" unicode="v" horiz-adv-x="479" 
d="M239 -5q-20 0 -32 11.5t-23 40.5l-145 376q-4 11 -4 21q0 17 11 28.5t30 11.5q15 0 25 -8t15 -22l124 -333h2l121 333q5 14 15 22t25 8q19 0 30 -11.5t11 -28.5q0 -10 -4 -21l-146 -376q-11 -29 -23 -40.5t-32 -11.5z" />
    <glyph glyph-name="w" unicode="w" horiz-adv-x="745" 
d="M524 -5q-38 0 -51 43l-99 315h-2l-100 -315q-14 -43 -50 -43t-50 43l-127 388q-3 9 -3 18q0 17 11 28.5t30 11.5q30 0 41 -36l101 -325h2l100 320q13 41 46 41t46 -41l102 -320h2l99 325q10 36 41 36q18 0 29 -11.5t11 -28.5q0 -9 -3 -18l-127 -388q-14 -43 -49 -43z" />
    <glyph glyph-name="x" unicode="x" horiz-adv-x="479" 
d="M394 -5q-23 0 -37 21l-117 166h-1l-117 -166q-15 -21 -37 -21q-17 0 -27 11.5t-10 25.5q0 15 10 29l134 189l-119 169q-10 15 -10 28q0 15 10 26t27 11q23 0 37 -20l102 -147h1l103 147q14 20 37 20q16 0 26 -11t10 -26q0 -13 -10 -28l-119 -169l134 -189q10 -14 10 -29
q0 -14 -10.5 -25.5t-26.5 -11.5z" />
    <glyph glyph-name="y" unicode="y" horiz-adv-x="477" 
d="M102 -180q-20 0 -30.5 11t-10.5 28t10.5 28t30.5 11q29 0 48 14.5t35 57.5l16 44l-163 411q-2 5 -3 10t-1 10q0 17 12 28t30 11q29 0 40 -30l125 -331h2l120 331q10 30 39 30q19 0 30 -11t11 -28q0 -5 -1 -10t-3 -10l-180 -472q-16 -41 -31.5 -66.5t-33 -40.5t-38 -20.5
t-46.5 -5.5h-8z" />
    <glyph glyph-name="z" unicode="z" horiz-adv-x="453" 
d="M76 0q-19 0 -29.5 10.5t-10.5 27.5q0 13 5.5 24.5t18.5 28.5l249 310v2h-220q-20 0 -30 10.5t-10 27.5t10 27.5t30 10.5h288q19 0 29.5 -10.5t10.5 -27.5q0 -12 -4.5 -24t-18.5 -29l-249 -310v-2h232q20 0 30 -10.5t10 -27.5t-10 -27.5t-30 -10.5h-301z" />
    <glyph glyph-name="braceleft" unicode="{" horiz-adv-x="333" 
d="M243 -84q-110 0 -110 112v182q0 41 -11 57.5t-35 22.5q-33 9 -33 40t33 40q24 6 35 22.5t11 57.5v178q0 112 110 112h21q18 0 27 -9.5t9 -24.5t-9 -24.5t-27 -9.5h-7q-23 0 -34 -11.5t-11 -39.5v-172q0 -56 -15.5 -81.5t-46.5 -36.5v-2q31 -11 46.5 -36.5t15.5 -81.5
v-176q0 -28 11 -39.5t34 -11.5h7q18 0 27 -9.5t9 -24.5t-9 -24.5t-27 -9.5h-21z" />
    <glyph glyph-name="bar" unicode="|" horiz-adv-x="290" 
d="M145 -89q-16 0 -26 10.5t-10 29.5v754q0 19 10 29.5t26 10.5t26 -10.5t10 -29.5v-754q0 -19 -10 -29.5t-26 -10.5z" />
    <glyph glyph-name="braceright" unicode="}" horiz-adv-x="333" 
d="M69 -84q-18 0 -27 9.5t-9 24.5t9 24.5t27 9.5h7q23 0 34 11.5t11 39.5v176q0 56 15 81.5t47 36.5v2q-32 11 -47 36.5t-15 81.5v172q0 28 -11 39.5t-34 11.5h-7q-18 0 -27 9.5t-9 24.5t9 24.5t27 9.5h21q110 0 110 -112v-178q0 -41 11 -57.5t35 -22.5q33 -9 33 -40
t-33 -40q-24 -6 -35 -22.5t-11 -57.5v-182q0 -112 -110 -112h-21z" />
    <glyph glyph-name="asciitilde" unicode="~" 
d="M476 279q-21 -34 -52.5 -52.5t-67.5 -18.5q-31 0 -56 11.5t-45 25.5q-17 11 -34 19.5t-37 8.5t-34.5 -8.5t-28.5 -28.5q-14 -18 -30 -18q-14 0 -23 8.5t-9 22.5q0 13 7 24q21 34 52.5 52.5t67.5 18.5q31 0 56 -11.5t45 -25.5q17 -11 34 -19.5t37 -8.5t34.5 8.5t28.5 28.5
q13 17 30 17q14 0 23 -8t9 -22q0 -13 -7 -24z" />
    <glyph glyph-name="uni00A0" unicode="&#xa0;" horiz-adv-x="242" 
 />
    <glyph glyph-name="exclamdown" unicode="&#xa1;" horiz-adv-x="282" 
d="M141.009 297.011q18.999 0 30.498 -11.499t11.499 -32.498v-413.975q0 -20.999 -11.499 -32.998t-30.498 -11.999t-30.498 11.999q-11.5 11.999 -11.5 32.998v413.975q0 20.999 11.5 32.498q11.499 11.499 30.498 11.499zM198.005 427.003q0 -22.998 -16.999 -39.9971
t-39.9971 -16.999q-22.999 0 -39.998 16.999t-16.999 39.9971q0 22.999 16.999 39.998t39.998 16.999q22.998 0 39.9971 -16.999t16.999 -39.998z" />
    <glyph glyph-name="cent" unicode="&#xa2;" 
d="M290 -105q-23 0 -23 25v71q-62 6 -105 38t-61 89q-7 22 -11 51.5t-4 70.5q0 40 4 69.5t11 51.5q18 57 61 89t105 38v71q0 25 23 25t23 -25v-70q49 -4 83.5 -24t55.5 -46q12 -17 12 -31q0 -16 -10.5 -26.5t-26.5 -10.5q-11 0 -20 5.5t-17 14.5q-14 15 -32.5 26t-44.5 14
v-343q26 3 44.5 13.5t32.5 26.5q8 9 17 14.5t20 5.5q16 0 26.5 -10.5t10.5 -26.5q0 -15 -12 -31q-21 -27 -55.5 -46.5t-83.5 -23.5v-70q0 -25 -23 -25zM183 142q19 -62 84 -73v341q-64 -11 -84 -73q-6 -19 -8.5 -42t-2.5 -55t2.5 -55.5t8.5 -42.5z" />
    <glyph glyph-name="sterling" unicode="&#xa3;" 
d="M127 0q-20 0 -30.5 10.5t-10.5 27.5q0 13 6 24t20 27q15 17 21 35.5t6 48.5v105q0 6 -6 6h-28q-17 0 -27 9.5t-10 24.5t10 24.5t27 9.5h28q6 0 6 6v153q0 87 44.5 133.5t119.5 46.5q60 0 96.5 -29t50.5 -72q3 -9 3 -18q0 -17 -10.5 -27.5t-27.5 -10.5q-27 0 -39 28
q-11 24 -28 37.5t-45 13.5q-36 0 -58 -22.5t-22 -69.5v-163q0 -6 7 -6h108q17 0 27 -9.5t10 -24.5t-10 -24.5t-27 -9.5h-108q-7 0 -7 -6v-91q0 -36 -6.5 -62.5t-23.5 -45.5v-1h237q20 0 30 -11t10 -28t-10 -28t-30 -11h-303z" />
    <glyph glyph-name="currency" unicode="&#xa4;" 
d="M271 126q-32 0 -60.5 8.5t-51.5 24.5l-46 -46q-14 -12 -28 -12q-16 0 -26.5 11.5t-10.5 25.5q0 8 3.5 14.5t8.5 12.5l47 47q-32 47 -32 111q0 32 8.5 59.5t23.5 51.5l-47 48q-5 6 -8.5 12.5t-3.5 14.5q0 14 10.5 25.5t26.5 11.5q14 0 28 -12l46 -47q50 33 112 33
q32 0 60 -9t52 -25l47 48q12 12 28 12t26.5 -11.5t10.5 -25.5q0 -8 -3.5 -14.5t-8.5 -12.5l-48 -49q15 -23 23.5 -51t8.5 -59q0 -32 -8.5 -59.5t-23.5 -50.5l48 -48q5 -6 8.5 -12.5t3.5 -14.5q0 -14 -10.5 -25.5t-26.5 -11.5q-15 0 -28 12l-47 47q-48 -34 -112 -34zM271 196
q27 0 50 9.5t39.5 27t26 40.5t9.5 50t-9.5 50t-26 40.5t-39.5 27t-50 9.5t-50 -9.5t-39.5 -27t-26 -40.5t-9.5 -50t9.5 -50t26 -40.5t39.5 -27t50 -9.5z" />
    <glyph glyph-name="yen" unicode="&#xa5;" 
d="M114 148q-34 0 -34 31t34 31h109q6 0 6 6v51q0 6 -6 6h-109q-34 0 -34 31t34 31h91v2l-138 287q-5 10 -5 22q0 16 11 27.5t31 11.5q24 0 37 -27l131 -288h3l127 288q11 27 37 27q19 0 30 -11.5t11 -27.5q0 -9 -5 -22l-138 -287v-2h91q34 0 34 -31t-34 -31h-109
q-6 0 -6 -6v-51q0 -6 6 -6h109q34 0 34 -31t-34 -31h-109q-6 0 -6 -6v-102q0 -21 -12 -33t-30 -12q-19 0 -30.5 12t-11.5 33v102q0 6 -6 6h-109z" />
    <glyph glyph-name="brokenbar" unicode="&#xa6;" horiz-adv-x="290" 
d="M181 423q0 -19 -10 -29.5t-26 -10.5t-26 10.5t-10 29.5v282q0 19 10 29.5t26 10.5t26 -10.5t10 -29.5v-282zM181 -49q0 -19 -10 -29.5t-26 -10.5t-26 10.5t-10 29.5v284q0 19 10 29.5t26 10.5t26 -10.5t10 -29.5v-284z" />
    <glyph glyph-name="section" unicode="&#xa7;" horiz-adv-x="556" 
d="M276 -191q-72 0 -113.5 33t-51.5 87q-2 10 -2 16q0 17 10.5 27t27.5 10q13 0 23 -7t14 -23q18 -72 91 -72q42 0 66.5 20t24.5 62q0 43 -28.5 67.5t-98.5 40.5q-75 17 -110.5 63t-35.5 119q0 55 24.5 98.5t75.5 61.5v1q-42 23 -59.5 53.5t-17.5 76.5q0 31 12 58t34 47
t52.5 31.5t66.5 11.5q66 0 106 -31t51 -79q2 -8 2 -17q0 -35 -37 -35q-26 0 -35 29t-30 45.5t-57 16.5q-40 0 -63 -21t-23 -56q0 -42 27.5 -67.5t95.5 -41.5q145 -34 145 -181q0 -57 -26.5 -100t-72.5 -60v-1q38 -18 59.5 -48.5t21.5 -81.5q0 -36 -12.5 -64.5t-35 -48
t-53.5 -30t-68 -10.5zM278 141q48 0 77 28.5t29 82.5t-29 82.5t-77 28.5t-77 -28.5t-29 -82.5t29 -82.5t77 -28.5z" />
    <glyph glyph-name="dieresis" unicode="&#xa8;" horiz-adv-x="433" 
d="M316 582q-20 0 -35 14.5t-15 35.5q0 20 15 35t35 15q21 0 35.5 -15t14.5 -35q0 -21 -14.5 -35.5t-35.5 -14.5zM117 582q-21 0 -35.5 14.5t-14.5 35.5q0 20 14.5 35t35.5 15q20 0 35 -15t15 -35q0 -21 -15 -35.5t-35 -14.5z" />
    <glyph glyph-name="copyright" unicode="&#xa9;" horiz-adv-x="828" 
d="M414 -11q-74 0 -138.5 27t-111.5 74t-74 111.5t-27 138.5t27 138t74 111.5t111.5 74.5t138.5 27t138 -27t111.5 -74.5t74.5 -111.5t27 -138t-27 -138.5t-74.5 -111.5t-111.5 -74t-138 -27zM414 50q61 0 114 22t91.5 61t60.5 92t22 115t-22 115t-60.5 92t-91.5 61t-114 22
q-62 0 -114.5 -22t-91 -61t-60.5 -92t-22 -115t22 -115t60.5 -92t91 -61t114.5 -22zM423 143q-57 0 -96 27t-57 79q-5 15 -8 35.5t-3 55.5t3 55.5t8 35.5q18 52 57 79t96 27q42 0 72.5 -16t48.5 -40q8 -10 8 -21q0 -12 -8 -21.5t-22 -9.5q-15 0 -27 14q-14 16 -30 24t-42 8
q-32 0 -54.5 -14t-33.5 -46q-4 -12 -6 -28t-2 -47t2 -47t6 -28q11 -32 33.5 -46t54.5 -14q26 0 42 8t30 24q12 14 27 14q14 0 22 -9.5t8 -21.5q0 -11 -8 -21q-18 -24 -48.5 -40t-72.5 -16z" />
    <glyph glyph-name="ordfeminine" unicode="&#xaa;" horiz-adv-x="343" 
d="M287 388q-11 0 -18 5t-12 13l-8 14h-1q-13 -14 -36 -24t-58 -10q-54 0 -84.5 23t-30.5 65q0 47 33 69.5t92 22.5h59q6 0 6 6v9q0 23 -14 35t-52 12q-21 0 -35 -3t-28 -9q-5 -2 -9.5 -4t-11.5 -2q-11 0 -18.5 8.5t-7.5 19.5q0 16 15 27q16 11 41 17t60 6q66 0 96.5 -27.5
t30.5 -83.5v-80q0 -20 9 -36l11 -20q4 -7 5 -11.5t1 -9.5q0 -14 -9.5 -23t-25.5 -9zM160 442q32 0 50.5 12t18.5 34v22q0 6 -6 6h-54q-34 0 -48.5 -10t-14.5 -28q0 -36 54 -36z" />
    <glyph glyph-name="guillemotleft" unicode="&#xab;" horiz-adv-x="535" 
d="M440 85q-14 0 -26 12l-132 133q-18 18 -18 34t18 34l132 133q12 12 26 12t23.5 -9t9.5 -23t-12 -26l-115 -117q-4 -4 0 -8l115 -117q12 -12 12 -26t-9.5 -23t-23.5 -9zM225 85q-14 0 -26 12l-132 133q-18 18 -18 34t18 34l132 133q12 12 26 12t23.5 -9t9.5 -23t-12 -26
l-115 -117q-4 -4 0 -8l115 -117q12 -12 12 -26t-9.5 -23t-23.5 -9z" />
    <glyph glyph-name="logicalnot" unicode="&#xac;" 
d="M481 143q0 -20 -10.5 -31t-27.5 -11t-27.5 11t-10.5 31v90q0 6 -6 6h-301q-20 0 -30.5 10t-10.5 27t10.5 27t30.5 10h346q17 0 27 -10t10 -27v-133z" />
    <glyph glyph-name="uni00AD" unicode="&#xad;" horiz-adv-x="380" 
d="M85 227q-19 0 -30 11t-11 28t11 28t30 11h216q19 0 30 -11t11 -28t-11 -28t-30 -11h-216z" />
    <glyph glyph-name="registered" unicode="&#xae;" horiz-adv-x="452" 
d="M226 301q-41 0 -75.5 14.5t-60.5 40.5t-40.5 61t-14.5 76q0 40 14.5 75t40.5 61t60.5 40.5t75.5 14.5t76 -14.5t60.5 -40.5t40 -61t14.5 -75q0 -41 -14.5 -76t-40 -61t-60.5 -40.5t-76 -14.5zM226 334q34 0 62.5 12t49.5 33.5t33 50.5t12 63t-12 63t-33 50t-49.5 33
t-62.5 12t-62.5 -12t-49.5 -33t-33 -50t-12 -63t12 -63t33 -50.5t49.5 -33.5t62.5 -12zM171 385q-19 0 -19 21v175q0 19 19 19h70q34 0 52.5 -17t18.5 -46q0 -46 -39 -58l33 -65q3 -5 3 -11q0 -17 -18 -17q-12 0 -18 12l-39 75h-41q-3 0 -3 -4v-63q0 -21 -19 -21zM239 507
q35 0 35 30q0 29 -35 29h-45q-4 0 -4 -4v-51q0 -4 4 -4h45z" />
    <glyph glyph-name="macron" unicode="&#xaf;" horiz-adv-x="433" 
d="M108 601q-17 0 -26 9t-9 23t9 23.5t26 9.5h218q17 0 26 -9.5t9 -23.5t-9 -23t-26 -9h-218z" />
    <glyph glyph-name="degree" unicode="&#xb0;" horiz-adv-x="456" 
d="M228 397q-32 0 -58.5 11t-46 30.5t-30.5 46.5t-11 58t11 58t30.5 46.5t46 30.5t58.5 11q31 0 58 -11t46.5 -30.5t30.5 -46.5t11 -58t-11 -58t-30.5 -46.5t-46.5 -30.5t-58 -11zM228 449q40 0 65.5 26.5t25.5 67.5t-25.5 67.5t-65.5 26.5t-65.5 -26.5t-25.5 -67.5
t25.5 -67.5t65.5 -26.5z" />
    <glyph glyph-name="plusminus" unicode="&#xb1;" 
d="M271 125q-17 0 -27.5 11t-10.5 31v130q0 6 -6 6h-129q-20 0 -30.5 10t-10.5 27t10.5 27t30.5 10h129q6 0 6 6v130q0 20 10.5 31t27.5 11t27.5 -11t10.5 -31v-130q0 -6 6 -6h129q20 0 30.5 -10t10.5 -27t-10.5 -27t-30.5 -10h-129q-6 0 -6 -6v-130q0 -20 -10.5 -31
t-27.5 -11zM98 0q-20 0 -30.5 10t-10.5 27t10.5 27t30.5 10h346q20 0 30.5 -10t10.5 -27t-10.5 -27t-30.5 -10h-346z" />
    <glyph glyph-name="uni00B2" unicode="&#xb2;" horiz-adv-x="341" 
d="M270 491q16 0 24.5 -8.5t8.5 -21.5q0 -14 -8.5 -22.5t-24.5 -8.5h-200q-33 0 -33 31q0 20 24 44l137 159q15 17 23 32t8 32q0 24 -15 39t-42 15q-47 0 -63 -39q-12 -24 -32 -24q-14 0 -22.5 8t-8.5 21q0 9 3 17q11 29 42 53.5t82 24.5q57 0 90 -33t33 -82
q0 -29 -10.5 -52t-33.5 -48l-122 -135v-2h140z" />
    <glyph glyph-name="uni00B3" unicode="&#xb3;" horiz-adv-x="341" 
d="M164 608q-16 0 -24.5 8.5t-8.5 22.5q0 13 8.5 21.5t24.5 8.5q28 0 44.5 15.5t16.5 42.5q0 26 -15.5 40.5t-43.5 14.5q-22 0 -33.5 -7t-22.5 -21q-14 -20 -33 -20q-13 0 -21.5 7.5t-8.5 20.5q0 7 3 16q11 26 41.5 45.5t76.5 19.5q59 0 92 -31t33 -80q0 -29 -12 -51
t-34 -36v-1q20 -8 37.5 -33.5t17.5 -64.5q0 -55 -35.5 -89t-95.5 -34q-47 0 -78 19.5t-46 48.5q-4 8 -4 17q0 12 8.5 20.5t21.5 8.5q19 0 33 -21q9 -13 24.5 -22.5t39.5 -9.5q29 0 47 16.5t18 45.5q0 28 -18.5 45t-52.5 17z" />
    <glyph glyph-name="acute" unicode="&#xb4;" horiz-adv-x="433" 
d="M188 549q-15 0 -24 9t-9 23q0 11 7 24l56 86q11 17 30 17q14 0 24 -9t10 -23q0 -12 -8 -25l-58 -86q-12 -16 -28 -16z" />
    <glyph glyph-name="uni00B5" unicode="&#xb5;" horiz-adv-x="546" 
d="M262 -11q-66 0 -95 40h-1v-169q0 -21 -11.5 -33t-30.5 -12t-30.5 12t-11.5 33v579q0 21 12 33t30 12t30 -12t12 -33v-250q0 -58 26 -90t80 -32q49 0 78.5 31.5t29.5 85.5v255q0 21 12 33t30 12t30 -12t12 -33v-399q0 -21 -12 -33t-30 -12t-30 12t-12 33v14h-1
q-17 -29 -46 -47t-71 -18z" />
    <glyph glyph-name="uni00B5" unicode="&#x3bc;" horiz-adv-x="546" 
d="M262 -11q-66 0 -95 40h-1v-169q0 -21 -11.5 -33t-30.5 -12t-30.5 12t-11.5 33v579q0 21 12 33t30 12t30 -12t12 -33v-250q0 -58 26 -90t80 -32q49 0 78.5 31.5t29.5 85.5v255q0 21 12 33t30 12t30 -12t12 -33v-399q0 -21 -12 -33t-30 -12t-30 12t-12 33v14h-1
q-17 -29 -46 -47t-71 -18z" />
    <glyph glyph-name="paragraph" unicode="&#xb6;" horiz-adv-x="603" 
d="M441 600q0 6 -6 6h-84q-6 0 -6 -6v-746q0 -18 -10 -28.5t-27 -10.5t-27 10.5t-10 28.5v408q-45 3 -81.5 19.5t-62 44t-39 64.5t-13.5 81q0 45 14.5 83t43 66t70.5 44t96 16h180q17 0 26.5 -9.5t9.5 -26.5v-790q0 -18 -10 -28.5t-27 -10.5t-27 10.5t-10 28.5v746z" />
    <glyph glyph-name="periodcentered" unicode="&#xb7;" horiz-adv-x="236" 
d="M118 207q-23 0 -40 17t-17 40t17 40t40 17t40 -17t17 -40t-17 -40t-40 -17z" />
    <glyph glyph-name="cedilla" unicode="&#xb8;" horiz-adv-x="433" 
d="M228 -136q-9 -26 -34 -26q-15 0 -25 8.5t-10 24.5q0 4 1 9t3 10l41 110q4 10 13 10h51q10 0 7 -10z" />
    <glyph glyph-name="uni00B9" unicode="&#xb9;" horiz-adv-x="341" 
d="M197 427q-15 0 -24.5 10t-9.5 27v292h-1l-39 -27q-11 -6 -21 -6q-13 0 -21 8.5t-8 22.5q0 18 17 29l58 39q11 8 21.5 12.5t23.5 4.5q37 0 37 -39v-336q0 -17 -9.5 -27t-23.5 -10z" />
    <glyph glyph-name="ordmasculine" unicode="&#xba;" horiz-adv-x="351" 
d="M175 384q-49 0 -81.5 20.5t-46.5 63.5q-9 27 -9 68t9 68q14 43 46.5 63.5t81.5 20.5q101 0 129 -84q9 -27 9 -68t-9 -68q-28 -84 -129 -84zM175 447q46 0 61 42q6 18 6 47t-6 47q-15 42 -61 42q-45 0 -60 -42q-6 -18 -6 -47t6 -47q15 -42 60 -42z" />
    <glyph glyph-name="guillemotright" unicode="&#xbb;" horiz-adv-x="535" 
d="M310 85q-14 0 -23.5 9t-9.5 23t12 26l115 117q4 4 0 8l-115 117q-12 12 -12 26t9.5 23t23.5 9t26 -12l132 -133q18 -18 18 -34t-18 -34l-132 -133q-12 -12 -26 -12zM95 85q-14 0 -23.5 9t-9.5 23t12 26l115 117q4 4 0 8l-115 117q-12 12 -12 26t9.5 23t23.5 9t26 -12
l132 -133q18 -18 18 -34t-18 -34l-132 -133q-12 -12 -26 -12z" />
    <glyph glyph-name="onequarter" unicode="&#xbc;" horiz-adv-x="844" 
d="M206 271q-15 0 -24.5 10t-9.5 27v292h-1l-39 -27q-11 -6 -21 -6q-13 0 -21 8.5t-8 22.5q0 18 17 29l58 39q11 8 21.5 12.5t23.5 4.5q37 0 37 -39v-336q0 -17 -9.5 -27t-23.5 -10zM676 -2q-15 0 -24 9t-9 25v30q0 6 -6 6h-142q-14 0 -24 8.5t-10 23.5q0 16 15 46l116 242
q11 23 31 23q14 0 23.5 -8.5t9.5 -22.5q0 -10 -5 -19l-111 -231v-1h97q6 0 6 6v66q0 17 9 26t24 9q14 0 23 -9t9 -26v-66q0 -6 6 -6h13q15 0 23.5 -8.5t8.5 -21.5q0 -14 -8.5 -22.5t-23.5 -8.5h-13q-6 0 -6 -6v-30q0 -16 -9 -25t-23 -9zM245 3q-10 -18 -28 -18q-12 0 -20 8
t-8 21q0 8 5 18l374 645q10 18 28 18q12 0 20 -8t8 -21q0 -8 -5 -18z" />
    <glyph glyph-name="onehalf" unicode="&#xbd;" horiz-adv-x="876" 
d="M206 271q-15 0 -24.5 10t-9.5 27v292h-1l-39 -27q-11 -6 -21 -6q-13 0 -21 8.5t-8 22.5q0 18 17 29l58 39q11 8 21.5 12.5t23.5 4.5q37 0 37 -39v-336q0 -17 -9.5 -27t-23.5 -10zM754 62q16 0 24.5 -8.5t8.5 -21.5q0 -14 -8.5 -22.5t-24.5 -8.5h-200q-33 0 -33 31
q0 20 24 44l137 159q15 17 23 32t8 32q0 24 -15 39t-42 15q-47 0 -63 -39q-12 -24 -32 -24q-14 0 -22.5 8t-8.5 21q0 9 3 17q11 29 42 53.5t82 24.5q57 0 90 -33t33 -82q0 -29 -10.5 -52t-33.5 -48l-122 -135v-2h140zM245 3q-10 -18 -28 -18q-12 0 -20 8t-8 21q0 8 5 18
l374 645q10 18 28 18q12 0 20 -8t8 -21q0 -8 -5 -18z" />
    <glyph glyph-name="threequarters" unicode="&#xbe;" horiz-adv-x="912" 
d="M737 -2q-15 0 -24 9t-9 25v30q0 6 -6 6h-142q-14 0 -24 8.5t-10 23.5q0 16 15 46l116 242q11 23 31 23q14 0 23.5 -8.5t9.5 -22.5q0 -10 -5 -19l-111 -231v-1h97q6 0 6 6v66q0 17 9 26t24 9q14 0 23 -9t9 -26v-66q0 -6 6 -6h13q15 0 23.5 -8.5t8.5 -21.5
q0 -14 -8.5 -22.5t-23.5 -8.5h-13q-6 0 -6 -6v-30q0 -16 -9 -25t-23 -9zM308 3q-10 -18 -28 -18q-12 0 -20 8t-8 21q0 8 5 18l374 645q10 18 28 18q12 0 20 -8t8 -21q0 -8 -5 -18zM220 452q-16 0 -24.5 8.5t-8.5 22.5q0 13 8.5 21.5t24.5 8.5q28 0 44.5 15.5t16.5 42.5
q0 26 -15.5 40.5t-43.5 14.5q-22 0 -33.5 -7t-22.5 -21q-14 -20 -33 -20q-13 0 -21.5 7.5t-8.5 20.5q0 7 3 16q11 26 41.5 45.5t76.5 19.5q59 0 92 -31t33 -80q0 -29 -12 -51t-34 -36v-1q20 -8 37.5 -33.5t17.5 -64.5q0 -55 -35.5 -89t-95.5 -34q-47 0 -78 19.5t-46 48.5
q-4 8 -4 17q0 12 8.5 20.5t21.5 8.5q19 0 33 -21q9 -13 24.5 -22.5t39.5 -9.5q29 0 47 16.5t18 45.5q0 28 -18.5 45t-52.5 17z" />
    <glyph glyph-name="questiondown" unicode="&#xbf;" horiz-adv-x="456" 
d="M233.014 301.011q17.999 0 29.998 -11.499t11.999 -31.498v-14.999q0 -28.998 -7.99902 -51.4971q-8 -22.499 -28.998 -48.4971l-54.9971 -71.9951q-14.999 -18.999 -24.998 -33.998q-10 -14.999 -15.499 -27.499q-5.5 -12.499 -8 -23.998t-2.5 -25.499
q0 -44.9971 26.999 -69.4951q26.998 -24.499 69.9951 -24.499q39.998 0 64.9961 19.499q24.999 19.499 35.998 55.4971q6 17.998 16.499 25.998t24.498 8q16.999 0 28.499 -10.5q11.499 -10.499 11.499 -27.498q0 -6 -3 -19.999q-14.999 -54.9961 -61.4961 -91.9941
t-119.493 -36.998q-39.9971 0 -73.4951 12.999q-33.498 13 -57.4971 35.498q-23.998 22.499 -36.9971 53.4971t-12.999 67.9961q0 39.9971 13.999 70.9951t42.9971 68.9961l54.9971 71.9951q9.99902 12.999 16.499 22.499q6.49902 9.49902 9.99902 18.499
q3.5 8.99902 5 17.999q1.5 8.99902 1.5 18.998v10q0 19.999 11.999 31.498t29.998 11.499zM290.01 427.003q0 -22.998 -16.999 -39.9971t-39.9971 -16.999q-22.999 0 -39.998 16.999q-16.998 16.999 -16.998 39.9971q0 22.999 16.998 39.998q16.999 16.999 39.998 16.999
q22.998 0 39.9971 -16.999t16.999 -39.998z" />
    <glyph glyph-name="Agrave" unicode="&#xc0;" horiz-adv-x="607" 
d="M33 36q0 5 1 10t3 10l209 579q8 24 21.5 37t36.5 13q43 0 60 -50l206 -579q2 -5 3 -10t1 -10q0 -19 -12.5 -30t-29.5 -11q-32 0 -43 32l-46 131h-279l-46 -131q-11 -32 -43 -32q-17 0 -29.5 11t-12.5 30zM414 240l-108 309h-3l-110 -309h221zM331 812q11 -13 11 -27
t-9.5 -23t-22.5 -9q-17 0 -30 15l-69 76q-10 12 -10 26t10 23.5t24 9.5q16 0 27 -13z" />
    <glyph glyph-name="Aacute" unicode="&#xc1;" horiz-adv-x="607" 
d="M33 36q0 5 1 10t3 10l209 579q8 24 21.5 37t36.5 13q43 0 60 -50l206 -579q2 -5 3 -10t1 -10q0 -19 -12.5 -30t-29.5 -11q-32 0 -43 32l-46 131h-279l-46 -131q-11 -32 -43 -32q-17 0 -29.5 11t-12.5 30zM414 240l-108 309h-3l-110 -309h221zM347 890q11 13 27 13
q14 0 24 -9.5t10 -23.5t-10 -26l-69 -76q-14 -15 -30 -15q-13 0 -22.5 9t-9.5 23t11 27z" />
    <glyph glyph-name="Acircumflex" unicode="&#xc2;" horiz-adv-x="607" 
d="M33 36q0 5 1 10t3 10l209 579q8 24 21.5 37t36.5 13q43 0 60 -50l206 -579q2 -5 3 -10t1 -10q0 -19 -12.5 -30t-29.5 -11q-32 0 -43 32l-46 131h-279l-46 -131q-11 -32 -43 -32q-17 0 -29.5 11t-12.5 30zM414 240l-108 309h-3l-110 -309h221zM308 836h-2l-69 -78
q-12 -13 -25 -13q-11 0 -19 7.5t-8 18.5q0 10 8 20l69 87q11 14 21 20.5t24 6.5t24 -6.5t21 -20.5l69 -87q8 -10 8 -20q0 -11 -8 -18.5t-19 -7.5q-13 0 -25 13z" />
    <glyph glyph-name="Atilde" unicode="&#xc3;" horiz-adv-x="607" 
d="M33 36q0 5 1 10t3 10l209 579q8 24 21.5 37t36.5 13q43 0 60 -50l206 -579q2 -5 3 -10t1 -10q0 -19 -12.5 -30t-29.5 -11q-32 0 -43 32l-46 131h-279l-46 -131q-11 -32 -43 -32q-17 0 -29.5 11t-12.5 30zM414 240l-108 309h-3l-110 -309h221zM254 809q-11 0 -19 -5
t-18 -18q-11 -13 -25 -13q-13 0 -21 7.5t-8 19.5t8 23q18 26 38 38t42 12q19 0 33 -5.5t31 -16.5t27 -15t18 -4q11 0 19 5t18 18q11 13 25 13q13 0 21 -7.5t8 -19.5t-8 -23q-18 -26 -38 -38t-42 -12q-19 0 -33 5.5t-31 16.5t-27 15t-18 4z" />
    <glyph glyph-name="Adieresis" unicode="&#xc4;" horiz-adv-x="607" 
d="M33 36q0 5 1 10t3 10l209 579q8 24 21.5 37t36.5 13q43 0 60 -50l206 -579q2 -5 3 -10t1 -10q0 -19 -12.5 -30t-29.5 -11q-32 0 -43 32l-46 131h-279l-46 -131q-11 -32 -43 -32q-17 0 -29.5 11t-12.5 30zM414 240l-108 309h-3l-110 -309h221zM406 773q-20 0 -35 14.5
t-15 34.5q0 21 15 36t35 15q21 0 35.5 -15t14.5 -36q0 -20 -14.5 -34.5t-35.5 -14.5zM207 773q-21 0 -35.5 14.5t-14.5 34.5q0 21 14.5 36t35.5 15q20 0 35 -15t15 -36q0 -20 -15 -34.5t-35 -14.5z" />
    <glyph glyph-name="Aring" unicode="&#xc5;" horiz-adv-x="607" 
d="M33 36q0 5 1 10t3 10l209 579q8 24 21.5 37t36.5 13q43 0 60 -50l206 -579q2 -5 3 -10t1 -10q0 -19 -12.5 -30t-29.5 -11q-32 0 -43 32l-46 131h-279l-46 -131q-11 -32 -43 -32q-17 0 -29.5 11t-12.5 30zM414 240l-108 309h-3l-110 -309h221zM301 728q-40 0 -67.5 27
t-27.5 68t27.5 68t67.5 27t67.5 -27t27.5 -68t-27.5 -68t-67.5 -27zM301 770q22 0 36.5 15t14.5 38t-14.5 38t-36.5 15t-36.5 -15t-14.5 -38t14.5 -38t36.5 -15z" />
    <glyph glyph-name="AE" unicode="&#xc6;" horiz-adv-x="932" 
d="M843 680q20 0 32 -12t12 -29q0 -18 -12 -30t-32 -12h-295q-6 0 -6 -6v-200q0 -6 6 -6h246q20 0 32 -12t12 -29q0 -18 -12 -30t-32 -12h-246q-6 0 -6 -6v-207q0 -6 6 -6h295q20 0 32 -12t12 -29q0 -18 -12 -30t-32 -12h-350q-18 0 -29 10.5t-11 29.5v112q0 6 -6 6h-250
l-78 -136q-14 -26 -42 -26q-17 0 -29.5 11t-12.5 30q0 6 1 12.5t5 13.5l336 577q12 21 26 30.5t37 9.5h403zM244 240h203q6 0 6 6v351h-3z" />
    <glyph glyph-name="Ccedilla" unicode="&#xc7;" horiz-adv-x="563" 
d="M291 -136q-9 -26 -34 -26q-15 0 -25 8.5t-10 24.5q0 4 1 9t3 10l37 102q-67 9 -114 49t-70 109q-6 18 -9.5 36.5t-6 40.5t-3 49.5t-0.5 63.5t0.5 63.5t3 49.5t6 40.5t9.5 36.5q26 78 83 119.5t144 41.5q66 0 118 -29.5t81 -81.5q8 -13 8 -28q0 -19 -12 -30t-29 -11
q-24 0 -40 25q-24 36 -54 54t-72 18q-57 0 -91 -28.5t-49 -76.5q-4 -12 -7 -26.5t-5 -33.5t-3 -44t-1 -59t1 -59t3 -44t5 -33.5t7 -26.5q15 -48 49 -76.5t91 -28.5q42 0 72 18t54 54q16 25 40 25q17 0 29 -11t12 -30q0 -15 -8 -28q-26 -46 -69.5 -74.5t-100.5 -35.5z" />
    <glyph glyph-name="Egrave" unicode="&#xc8;" horiz-adv-x="563" 
d="M84 640q0 18 10.5 29t29.5 11h350q20 0 32 -12t12 -29q0 -18 -12 -30t-32 -12h-295q-6 0 -6 -6v-200q0 -6 6 -6h246q20 0 32 -12t12 -29q0 -18 -12 -30t-32 -12h-246q-6 0 -6 -6v-207q0 -6 6 -6h295q20 0 32 -12t12 -29q0 -18 -12 -30t-32 -12h-350q-19 0 -29.5 11
t-10.5 29v600zM317 812q11 -13 11 -27t-9.5 -23t-22.5 -9q-17 0 -30 15l-69 76q-10 12 -10 26t10 23.5t24 9.5q16 0 27 -13z" />
    <glyph glyph-name="Eacute" unicode="&#xc9;" horiz-adv-x="563" 
d="M84 640q0 18 10.5 29t29.5 11h350q20 0 32 -12t12 -29q0 -18 -12 -30t-32 -12h-295q-6 0 -6 -6v-200q0 -6 6 -6h246q20 0 32 -12t12 -29q0 -18 -12 -30t-32 -12h-246q-6 0 -6 -6v-207q0 -6 6 -6h295q20 0 32 -12t12 -29q0 -18 -12 -30t-32 -12h-350q-19 0 -29.5 11
t-10.5 29v600zM336 890q11 13 27 13q14 0 24 -9.5t10 -23.5t-10 -26l-69 -76q-14 -15 -30 -15q-13 0 -22.5 9t-9.5 23t11 27z" />
    <glyph glyph-name="Ecircumflex" unicode="&#xca;" horiz-adv-x="563" 
d="M84 640q0 18 10.5 29t29.5 11h350q20 0 32 -12t12 -29q0 -18 -12 -30t-32 -12h-295q-6 0 -6 -6v-200q0 -6 6 -6h246q20 0 32 -12t12 -29q0 -18 -12 -30t-32 -12h-246q-6 0 -6 -6v-207q0 -6 6 -6h295q20 0 32 -12t12 -29q0 -18 -12 -30t-32 -12h-350q-19 0 -29.5 11
t-10.5 29v600zM300 836h-2l-69 -78q-12 -13 -25 -13q-11 0 -19 7.5t-8 18.5q0 10 8 20l69 87q11 14 21 20.5t24 6.5t24 -6.5t21 -20.5l69 -87q8 -10 8 -20q0 -11 -8 -18.5t-19 -7.5q-13 0 -25 13z" />
    <glyph glyph-name="Edieresis" unicode="&#xcb;" horiz-adv-x="563" 
d="M84 640q0 18 10.5 29t29.5 11h350q20 0 32 -12t12 -29q0 -18 -12 -30t-32 -12h-295q-6 0 -6 -6v-200q0 -6 6 -6h246q20 0 32 -12t12 -29q0 -18 -12 -30t-32 -12h-246q-6 0 -6 -6v-207q0 -6 6 -6h295q20 0 32 -12t12 -29q0 -18 -12 -30t-32 -12h-350q-19 0 -29.5 11
t-10.5 29v600zM394 773q-20 0 -35 14.5t-15 34.5q0 21 15 36t35 15q21 0 35.5 -15t14.5 -36q0 -20 -14.5 -34.5t-35.5 -14.5zM195 773q-21 0 -35.5 14.5t-14.5 34.5q0 21 14.5 36t35.5 15q20 0 35 -15t15 -36q0 -20 -15 -34.5t-35 -14.5z" />
    <glyph glyph-name="Igrave" unicode="&#xcc;" horiz-adv-x="257" 
d="M84 637q0 23 12.5 35.5t32.5 12.5t32 -12.5t12 -35.5v-594q0 -23 -12 -35.5t-32 -12.5t-32.5 12.5t-12.5 35.5v594zM154 812q11 -13 11 -27t-9.5 -23t-22.5 -9q-17 0 -30 15l-69 76q-10 12 -10 26t10 23.5t24 9.5q16 0 27 -13z" />
    <glyph glyph-name="Iacute" unicode="&#xcd;" horiz-adv-x="257" 
d="M84 637q0 23 12.5 35.5t32.5 12.5t32 -12.5t12 -35.5v-594q0 -23 -12 -35.5t-32 -12.5t-32.5 12.5t-12.5 35.5v594zM177 890q11 13 27 13q14 0 24 -9.5t10 -23.5t-10 -26l-69 -76q-14 -15 -30 -15q-13 0 -22.5 9t-9.5 23t11 27z" />
    <glyph glyph-name="Icircumflex" unicode="&#xce;" horiz-adv-x="257" 
d="M84 637q0 23 12.5 35.5t32.5 12.5t32 -12.5t12 -35.5v-594q0 -23 -12 -35.5t-32 -12.5t-32.5 12.5t-12.5 35.5v594zM130 836h-2l-69 -78q-12 -13 -25 -13q-11 0 -19 7.5t-8 18.5q0 10 8 20l69 87q11 14 21 20.5t24 6.5t24 -6.5t21 -20.5l69 -87q8 -10 8 -20
q0 -11 -8 -18.5t-19 -7.5q-13 0 -25 13z" />
    <glyph glyph-name="Idieresis" unicode="&#xcf;" horiz-adv-x="257" 
d="M84 637q0 23 12.5 35.5t32.5 12.5t32 -12.5t12 -35.5v-594q0 -23 -12 -35.5t-32 -12.5t-32.5 12.5t-12.5 35.5v594zM229 773q-20 0 -35 14.5t-15 34.5q0 21 15 36t35 15q21 0 35.5 -15t14.5 -36q0 -20 -14.5 -34.5t-35.5 -14.5zM30 773q-21 0 -35.5 14.5t-14.5 34.5
q0 21 14.5 36t35.5 15q20 0 35 -15t15 -36q0 -20 -15 -34.5t-35 -14.5z" />
    <glyph glyph-name="Eth" unicode="&#xd0;" horiz-adv-x="623" 
d="M124 0q-19 0 -29.5 11t-10.5 29v261q0 7 -6 7h-19q-17 0 -26.5 10t-9.5 26t9.5 26t26.5 10h19q6 0 6 6v254q0 18 10.5 29t29.5 11h173q196 0 246 -155q6 -17 9.5 -34t6 -38.5t3.5 -48.5t1 -64t-1 -64t-3.5 -48.5t-6 -39t-9.5 -33.5q-50 -155 -246 -155h-173zM291 83
q68 0 108 23t58 79q4 13 7 27.5t5 32.5t3 41.5t1 53.5t-1 53.5t-3 41.5t-5 32.5t-7 27.5q-18 56 -58 79t-108 23h-112q-6 0 -6 -6v-205q0 -6 6 -6h93q17 0 27 -10t10 -26t-10 -26t-27 -10h-93q-6 0 -6 -7v-212q0 -6 6 -6h112z" />
    <glyph glyph-name="Ntilde" unicode="&#xd1;" horiz-adv-x="654" 
d="M84 631q0 25 13 39.5t36 14.5q20 0 33.5 -12t26.5 -34l290 -479h4v480q0 21 11.5 33t29.5 12q19 0 30.5 -12t11.5 -33v-591q0 -25 -13 -39.5t-36 -14.5q-20 0 -34 12t-27 34l-290 477h-3v-478q0 -21 -11.5 -33t-29.5 -12q-19 0 -30.5 12t-11.5 33v591zM276 809
q-11 0 -19 -5t-18 -18q-11 -13 -25 -13q-13 0 -21 7.5t-8 19.5t8 23q18 26 38 38t42 12q19 0 33 -5.5t31 -16.5t27 -15t18 -4q11 0 19 5t18 18q11 13 25 13q13 0 21 -7.5t8 -19.5t-8 -23q-18 -26 -38 -38t-42 -12q-19 0 -33 5.5t-31 16.5t-27 15t-18 4z" />
    <glyph glyph-name="Ograve" unicode="&#xd2;" horiz-adv-x="619" 
d="M309 -11q-88 0 -146 41.5t-84 119.5q-6 18 -9.5 36.5t-6 40.5t-3 49.5t-0.5 63.5t0.5 63.5t3 49.5t6 40.5t9.5 36.5q26 78 84 119.5t146 41.5q89 0 147 -41.5t84 -119.5q6 -18 9.5 -36.5t6 -40.5t3 -49.5t0.5 -63.5t-0.5 -63.5t-3 -49.5t-6 -40.5t-9.5 -36.5
q-26 -78 -84 -119.5t-147 -41.5zM309 72q60 0 94.5 28.5t49.5 76.5q4 12 7 26.5t5 33.5t3 44t1 59t-1 59t-3 44t-5 33.5t-7 26.5q-15 48 -49.5 76.5t-94.5 28.5q-59 0 -93.5 -28.5t-49.5 -76.5q-4 -12 -7 -26.5t-5 -33.5t-3 -44t-1 -59t1 -59t3 -44t5 -33.5t7 -26.5
q15 -48 49.5 -76.5t93.5 -28.5zM333 812q11 -13 11 -27t-9.5 -23t-22.5 -9q-17 0 -30 15l-69 76q-10 12 -10 26t10 23.5t24 9.5q16 0 27 -13z" />
    <glyph glyph-name="Oacute" unicode="&#xd3;" horiz-adv-x="619" 
d="M309 -11q-88 0 -146 41.5t-84 119.5q-6 18 -9.5 36.5t-6 40.5t-3 49.5t-0.5 63.5t0.5 63.5t3 49.5t6 40.5t9.5 36.5q26 78 84 119.5t146 41.5q89 0 147 -41.5t84 -119.5q6 -18 9.5 -36.5t6 -40.5t3 -49.5t0.5 -63.5t-0.5 -63.5t-3 -49.5t-6 -40.5t-9.5 -36.5
q-26 -78 -84 -119.5t-147 -41.5zM309 72q60 0 94.5 28.5t49.5 76.5q4 12 7 26.5t5 33.5t3 44t1 59t-1 59t-3 44t-5 33.5t-7 26.5q-15 48 -49.5 76.5t-94.5 28.5q-59 0 -93.5 -28.5t-49.5 -76.5q-4 -12 -7 -26.5t-5 -33.5t-3 -44t-1 -59t1 -59t3 -44t5 -33.5t7 -26.5
q15 -48 49.5 -76.5t93.5 -28.5zM355 890q11 13 27 13q14 0 24 -9.5t10 -23.5t-10 -26l-69 -76q-14 -15 -30 -15q-13 0 -22.5 9t-9.5 23t11 27z" />
    <glyph glyph-name="Ocircumflex" unicode="&#xd4;" horiz-adv-x="619" 
d="M309 -11q-88 0 -146 41.5t-84 119.5q-6 18 -9.5 36.5t-6 40.5t-3 49.5t-0.5 63.5t0.5 63.5t3 49.5t6 40.5t9.5 36.5q26 78 84 119.5t146 41.5q89 0 147 -41.5t84 -119.5q6 -18 9.5 -36.5t6 -40.5t3 -49.5t0.5 -63.5t-0.5 -63.5t-3 -49.5t-6 -40.5t-9.5 -36.5
q-26 -78 -84 -119.5t-147 -41.5zM309 72q60 0 94.5 28.5t49.5 76.5q4 12 7 26.5t5 33.5t3 44t1 59t-1 59t-3 44t-5 33.5t-7 26.5q-15 48 -49.5 76.5t-94.5 28.5q-59 0 -93.5 -28.5t-49.5 -76.5q-4 -12 -7 -26.5t-5 -33.5t-3 -44t-1 -59t1 -59t3 -44t5 -33.5t7 -26.5
q15 -48 49.5 -76.5t93.5 -28.5zM310 836h-2l-69 -78q-12 -13 -25 -13q-11 0 -19 7.5t-8 18.5q0 10 8 20l69 87q11 14 21 20.5t24 6.5t24 -6.5t21 -20.5l69 -87q8 -10 8 -20q0 -11 -8 -18.5t-19 -7.5q-13 0 -25 13z" />
    <glyph glyph-name="Otilde" unicode="&#xd5;" horiz-adv-x="619" 
d="M309 -11q-88 0 -146 41.5t-84 119.5q-6 18 -9.5 36.5t-6 40.5t-3 49.5t-0.5 63.5t0.5 63.5t3 49.5t6 40.5t9.5 36.5q26 78 84 119.5t146 41.5q89 0 147 -41.5t84 -119.5q6 -18 9.5 -36.5t6 -40.5t3 -49.5t0.5 -63.5t-0.5 -63.5t-3 -49.5t-6 -40.5t-9.5 -36.5
q-26 -78 -84 -119.5t-147 -41.5zM309 72q60 0 94.5 28.5t49.5 76.5q4 12 7 26.5t5 33.5t3 44t1 59t-1 59t-3 44t-5 33.5t-7 26.5q-15 48 -49.5 76.5t-94.5 28.5q-59 0 -93.5 -28.5t-49.5 -76.5q-4 -12 -7 -26.5t-5 -33.5t-3 -44t-1 -59t1 -59t3 -44t5 -33.5t7 -26.5
q15 -48 49.5 -76.5t93.5 -28.5zM255 809q-11 0 -19 -5t-18 -18q-11 -13 -25 -13q-13 0 -21 7.5t-8 19.5t8 23q18 26 38 38t42 12q19 0 33 -5.5t31 -16.5t27 -15t18 -4q11 0 19 5t18 18q11 13 25 13q13 0 21 -7.5t8 -19.5t-8 -23q-18 -26 -38 -38t-42 -12q-19 0 -33 5.5
t-31 16.5t-27 15t-18 4z" />
    <glyph glyph-name="Odieresis" unicode="&#xd6;" horiz-adv-x="619" 
d="M309 -11q-88 0 -146 41.5t-84 119.5q-6 18 -9.5 36.5t-6 40.5t-3 49.5t-0.5 63.5t0.5 63.5t3 49.5t6 40.5t9.5 36.5q26 78 84 119.5t146 41.5q89 0 147 -41.5t84 -119.5q6 -18 9.5 -36.5t6 -40.5t3 -49.5t0.5 -63.5t-0.5 -63.5t-3 -49.5t-6 -40.5t-9.5 -36.5
q-26 -78 -84 -119.5t-147 -41.5zM309 72q60 0 94.5 28.5t49.5 76.5q4 12 7 26.5t5 33.5t3 44t1 59t-1 59t-3 44t-5 33.5t-7 26.5q-15 48 -49.5 76.5t-94.5 28.5q-59 0 -93.5 -28.5t-49.5 -76.5q-4 -12 -7 -26.5t-5 -33.5t-3 -44t-1 -59t1 -59t3 -44t5 -33.5t7 -26.5
q15 -48 49.5 -76.5t93.5 -28.5zM408 773q-20 0 -35 14.5t-15 34.5q0 21 15 36t35 15q21 0 35.5 -15t14.5 -36q0 -20 -14.5 -34.5t-35.5 -14.5zM209 773q-21 0 -35.5 14.5t-14.5 34.5q0 21 14.5 36t35.5 15q20 0 35 -15t15 -36q0 -20 -15 -34.5t-35 -14.5z" />
    <glyph glyph-name="multiply" unicode="&#xd7;" 
d="M431 168q14 -16 14 -29q0 -14 -10 -25t-26 -11t-30 14l-104 104q-4 5 -8 0l-104 -104q-16 -14 -30 -14q-16 0 -25.5 11t-9.5 25q0 16 14 30l104 104q4 4 0 8l-105 104q-14 16 -14 29q0 15 10 26t26 11q15 0 30 -15l104 -104q4 -5 8 0l104 104q14 14 30 14t26 -11t10 -25
t-15 -29l-104 -104q-4 -4 0 -8z" />
    <glyph glyph-name="Oslash" unicode="&#xd8;" horiz-adv-x="619" 
d="M128 -18q-10 -17 -25 -17q-11 0 -19 7t-8 19q0 7 6 18l37 63q-25 32 -40 78q-6 18 -9.5 36.5t-6 40.5t-3 49.5t-0.5 63.5t0.5 63.5t3 49.5t6 40.5t9.5 36.5q26 78 84 119.5t146 41.5q89 0 149 -43l29 51q10 16 25 16q11 0 19 -6.5t8 -18.5q0 -9 -6 -18l-36 -62
q28 -35 43 -80q6 -18 9.5 -36.5t6 -40.5t3 -49.5t0.5 -63.5t-0.5 -63.5t-3 -49.5t-6 -40.5t-9.5 -36.5q-26 -78 -84 -119.5t-147 -41.5q-90 0 -151 44zM150 340q0 -36 1 -62.5t3.5 -47t7 -37.5t10.5 -33l239 412q-38 36 -102 36q-59 0 -93.5 -28.5t-49.5 -76.5
q-4 -12 -7 -26.5t-5 -33.5t-3 -44t-1 -59zM309 72q60 0 94.5 28.5t49.5 76.5q4 12 7 26.5t5 33.5t3 44t1 59q0 38 -1 65.5t-4 48.5t-7.5 37t-11.5 32l-240 -413q38 -38 104 -38z" />
    <glyph glyph-name="Ugrave" unicode="&#xd9;" horiz-adv-x="639" 
d="M471 637q0 23 12.5 35.5t32.5 12.5t32 -12.5t12 -35.5v-399q0 -62 -17 -109t-48.5 -78t-76 -46.5t-99.5 -15.5q-54 0 -98.5 15.5t-76 46.5t-48.5 78t-17 109v399q0 23 12.5 35.5t32.5 12.5t32 -12.5t12 -35.5v-399q0 -83 41.5 -124.5t110.5 -41.5q68 0 109.5 41.5
t41.5 124.5v399zM338 812q11 -13 11 -27t-9.5 -23t-22.5 -9q-17 0 -30 15l-69 76q-10 12 -10 26t10 23.5t24 9.5q16 0 27 -13z" />
    <glyph glyph-name="Uacute" unicode="&#xda;" horiz-adv-x="639" 
d="M471 637q0 23 12.5 35.5t32.5 12.5t32 -12.5t12 -35.5v-399q0 -62 -17 -109t-48.5 -78t-76 -46.5t-99.5 -15.5q-54 0 -98.5 15.5t-76 46.5t-48.5 78t-17 109v399q0 23 12.5 35.5t32.5 12.5t32 -12.5t12 -35.5v-399q0 -83 41.5 -124.5t110.5 -41.5q68 0 109.5 41.5
t41.5 124.5v399zM368 890q11 13 27 13q14 0 24 -9.5t10 -23.5t-10 -26l-69 -76q-14 -15 -30 -15q-13 0 -22.5 9t-9.5 23t11 27z" />
    <glyph glyph-name="Ucircumflex" unicode="&#xdb;" horiz-adv-x="639" 
d="M471 637q0 23 12.5 35.5t32.5 12.5t32 -12.5t12 -35.5v-399q0 -62 -17 -109t-48.5 -78t-76 -46.5t-99.5 -15.5q-54 0 -98.5 15.5t-76 46.5t-48.5 78t-17 109v399q0 23 12.5 35.5t32.5 12.5t32 -12.5t12 -35.5v-399q0 -83 41.5 -124.5t110.5 -41.5q68 0 109.5 41.5
t41.5 124.5v399zM320 836h-2l-69 -78q-12 -13 -25 -13q-11 0 -19 7.5t-8 18.5q0 10 8 20l69 87q11 14 21 20.5t24 6.5t24 -6.5t21 -20.5l69 -87q8 -10 8 -20q0 -11 -8 -18.5t-19 -7.5q-13 0 -25 13z" />
    <glyph glyph-name="Udieresis" unicode="&#xdc;" horiz-adv-x="639" 
d="M471 637q0 23 12.5 35.5t32.5 12.5t32 -12.5t12 -35.5v-399q0 -62 -17 -109t-48.5 -78t-76 -46.5t-99.5 -15.5q-54 0 -98.5 15.5t-76 46.5t-48.5 78t-17 109v399q0 23 12.5 35.5t32.5 12.5t32 -12.5t12 -35.5v-399q0 -83 41.5 -124.5t110.5 -41.5q68 0 109.5 41.5
t41.5 124.5v399zM419 773q-20 0 -35 14.5t-15 34.5q0 21 15 36t35 15q21 0 35.5 -15t14.5 -36q0 -20 -14.5 -34.5t-35.5 -14.5zM220 773q-21 0 -35.5 14.5t-14.5 34.5q0 21 14.5 36t35.5 15q20 0 35 -15t15 -36q0 -20 -15 -34.5t-35 -14.5z" />
    <glyph glyph-name="Yacute" unicode="&#xdd;" horiz-adv-x="526" 
d="M307 276v-233q0 -23 -12 -35.5t-32 -12.5q-19 0 -31.5 12.5t-12.5 35.5v233l-186 343q-7 14 -7 26q0 17 12 28.5t30 11.5q25 0 39 -26l156 -290h3l154 290q14 26 39 26q18 0 29.5 -11.5t11.5 -28.5q0 -12 -7 -26zM320 890q11 13 27 13q14 0 24 -9.5t10 -23.5t-10 -26
l-69 -76q-14 -15 -30 -15q-13 0 -22.5 9t-9.5 23t11 27z" />
    <glyph glyph-name="Thorn" unicode="&#xde;" horiz-adv-x="592" 
d="M129 -5q-20 0 -32.5 12.5t-12.5 35.5v594q0 23 12.5 35.5t32.5 12.5t32 -12.5t12 -35.5v-77q0 -6 6 -6h155q51 0 91.5 -14.5t68.5 -41.5t43 -64.5t15 -82.5t-15 -82.5t-43 -64.5t-68.5 -41.5t-91.5 -14.5h-155q-6 0 -6 -6v-99q0 -23 -12 -35.5t-32 -12.5zM331 231
q63 0 98 32t35 88t-35 88t-98 32h-152q-6 0 -6 -6v-228q0 -6 6 -6h152z" />
    <glyph glyph-name="germandbls" unicode="&#xdf;" horiz-adv-x="543" 
d="M301 -4q-20 0 -30.5 11t-10.5 28q0 37 41 39q38 1 59 11t31 40q4 12 6 33t2 65q0 48 -2.5 69.5t-7.5 33.5q-11 31 -33.5 42.5t-57.5 11.5q-17 0 -28 10.5t-11 28.5t11 28.5t28 10.5q48 0 70 17.5t22 59.5q0 78 -110 78q-64 0 -89 -27.5t-25 -92.5v-453q0 -21 -12 -33
t-30 -12t-30 12t-12 33v451q0 48 10.5 85t33.5 62.5t61 39t92 13.5q95 0 145 -41t50 -113q0 -43 -16 -70.5t-47 -43.5v-2q20 -11 35.5 -28t25.5 -46q3 -9 5 -20t3.5 -25t2 -33.5t0.5 -46.5q0 -28 -1 -48.5t-3 -35.5t-4 -25.5t-5 -19.5q-17 -53 -58 -75t-111 -22z" />
    <glyph glyph-name="agrave" unicode="&#xe0;" horiz-adv-x="520" 
d="M467 59q7 -12 7 -24q0 -17 -12 -28.5t-31 -11.5q-22 0 -37 21l-19 30h-1q-24 -27 -59 -42t-88 -15q-81 0 -125 37.5t-44 106.5q0 75 48.5 111.5t138.5 36.5h109q6 0 6 6v23q0 51 -26 78t-89 27q-28 0 -54.5 -7.5t-43.5 -16.5q-14 -7 -24 -7q-17 0 -26.5 9.5t-9.5 26.5
q0 10 4.5 19t15.5 15q23 15 59.5 25.5t86.5 10.5q97 0 142.5 -45t45.5 -134v-172q0 -19 2 -28.5t7 -20.5zM239 61q56 0 88.5 24.5t32.5 69.5v53q0 6 -6 6h-96q-62 0 -90.5 -18.5t-28.5 -59.5q0 -38 26 -56.5t74 -18.5zM275 549q-16 0 -28 16l-58 86q-8 13 -8 25q0 14 10 23
t24 9q19 0 30 -17l56 -86q7 -13 7 -24q0 -14 -9 -23t-24 -9z" />
    <glyph glyph-name="aacute" unicode="&#xe1;" horiz-adv-x="520" 
d="M467 59q7 -12 7 -24q0 -17 -12 -28.5t-31 -11.5q-22 0 -37 21l-19 30h-1q-24 -27 -59 -42t-88 -15q-81 0 -125 37.5t-44 106.5q0 75 48.5 111.5t138.5 36.5h109q6 0 6 6v23q0 51 -26 78t-89 27q-28 0 -54.5 -7.5t-43.5 -16.5q-14 -7 -24 -7q-17 0 -26.5 9.5t-9.5 26.5
q0 10 4.5 19t15.5 15q23 15 59.5 25.5t86.5 10.5q97 0 142.5 -45t45.5 -134v-172q0 -19 2 -28.5t7 -20.5zM239 61q56 0 88.5 24.5t32.5 69.5v53q0 6 -6 6h-96q-62 0 -90.5 -18.5t-28.5 -59.5q0 -38 26 -56.5t74 -18.5zM264 549q-15 0 -24 9t-9 23q0 11 7 24l56 86
q11 17 30 17q14 0 24 -9t10 -23q0 -12 -8 -25l-58 -86q-12 -16 -28 -16z" />
    <glyph glyph-name="acircumflex" unicode="&#xe2;" horiz-adv-x="520" 
d="M467 59q7 -12 7 -24q0 -17 -12 -28.5t-31 -11.5q-22 0 -37 21l-19 30h-1q-24 -27 -59 -42t-88 -15q-81 0 -125 37.5t-44 106.5q0 75 48.5 111.5t138.5 36.5h109q6 0 6 6v23q0 51 -26 78t-89 27q-28 0 -54.5 -7.5t-43.5 -16.5q-14 -7 -24 -7q-17 0 -26.5 9.5t-9.5 26.5
q0 10 4.5 19t15.5 15q23 15 59.5 25.5t86.5 10.5q97 0 142.5 -45t45.5 -134v-172q0 -19 2 -28.5t7 -20.5zM239 61q56 0 88.5 24.5t32.5 69.5v53q0 6 -6 6h-96q-62 0 -90.5 -18.5t-28.5 -59.5q0 -38 26 -56.5t74 -18.5zM260 639h-2l-69 -78q-12 -13 -25 -13q-11 0 -19 7.5
t-8 18.5q0 10 8 20l69 87q11 14 21 20.5t24 6.5t24 -6.5t21 -20.5l69 -87q8 -10 8 -20q0 -11 -8 -18.5t-19 -7.5q-13 0 -25 13z" />
    <glyph glyph-name="atilde" unicode="&#xe3;" horiz-adv-x="520" 
d="M467 59q7 -12 7 -24q0 -17 -12 -28.5t-31 -11.5q-22 0 -37 21l-19 30h-1q-24 -27 -59 -42t-88 -15q-81 0 -125 37.5t-44 106.5q0 75 48.5 111.5t138.5 36.5h109q6 0 6 6v23q0 51 -26 78t-89 27q-28 0 -54.5 -7.5t-43.5 -16.5q-14 -7 -24 -7q-17 0 -26.5 9.5t-9.5 26.5
q0 10 4.5 19t15.5 15q23 15 59.5 25.5t86.5 10.5q97 0 142.5 -45t45.5 -134v-172q0 -19 2 -28.5t7 -20.5zM239 61q56 0 88.5 24.5t32.5 69.5v53q0 6 -6 6h-96q-62 0 -90.5 -18.5t-28.5 -59.5q0 -38 26 -56.5t74 -18.5zM206 621q-11 0 -19 -5t-18 -18q-11 -13 -25 -13
q-13 0 -21 7.5t-8 19.5t8 23q18 26 38 38t42 12q19 0 33 -5.5t31 -16.5t27 -15t18 -4q11 0 19 5t18 18q11 13 25 13q13 0 21 -7.5t8 -19.5t-8 -23q-18 -26 -38 -38t-42 -12q-19 0 -33 5.5t-31 16.5t-27 15t-18 4z" />
    <glyph glyph-name="adieresis" unicode="&#xe4;" horiz-adv-x="520" 
d="M467 59q7 -12 7 -24q0 -17 -12 -28.5t-31 -11.5q-22 0 -37 21l-19 30h-1q-24 -27 -59 -42t-88 -15q-81 0 -125 37.5t-44 106.5q0 75 48.5 111.5t138.5 36.5h109q6 0 6 6v23q0 51 -26 78t-89 27q-28 0 -54.5 -7.5t-43.5 -16.5q-14 -7 -24 -7q-17 0 -26.5 9.5t-9.5 26.5
q0 10 4.5 19t15.5 15q23 15 59.5 25.5t86.5 10.5q97 0 142.5 -45t45.5 -134v-172q0 -19 2 -28.5t7 -20.5zM239 61q56 0 88.5 24.5t32.5 69.5v53q0 6 -6 6h-96q-62 0 -90.5 -18.5t-28.5 -59.5q0 -38 26 -56.5t74 -18.5zM359 582q-20 0 -35 14.5t-15 35.5q0 20 15 35t35 15
q21 0 35.5 -15t14.5 -35q0 -21 -14.5 -35.5t-35.5 -14.5zM160 582q-21 0 -35.5 14.5t-14.5 35.5q0 20 14.5 35t35.5 15q20 0 35 -15t15 -35q0 -21 -15 -35.5t-35 -14.5z" />
    <glyph glyph-name="aring" unicode="&#xe5;" horiz-adv-x="520" 
d="M467 59q7 -12 7 -24q0 -17 -12 -28.5t-31 -11.5q-22 0 -37 21l-19 30h-1q-24 -27 -59 -42t-88 -15q-81 0 -125 37.5t-44 106.5q0 75 48.5 111.5t138.5 36.5h109q6 0 6 6v23q0 51 -26 78t-89 27q-28 0 -54.5 -7.5t-43.5 -16.5q-14 -7 -24 -7q-17 0 -26.5 9.5t-9.5 26.5
q0 10 4.5 19t15.5 15q23 15 59.5 25.5t86.5 10.5q97 0 142.5 -45t45.5 -134v-172q0 -19 2 -28.5t7 -20.5zM239 61q56 0 88.5 24.5t32.5 69.5v53q0 6 -6 6h-96q-62 0 -90.5 -18.5t-28.5 -59.5q0 -38 26 -56.5t74 -18.5zM263 534q-40 0 -67.5 27t-27.5 68t27.5 68t67.5 27
t67.5 -27t27.5 -68t-27.5 -68t-67.5 -27zM263 576q22 0 36.5 15t14.5 38t-14.5 38t-36.5 15t-36.5 -15t-14.5 -38t14.5 -38t36.5 -15z" />
    <glyph glyph-name="ae" unicode="&#xe6;" horiz-adv-x="814" 
d="M564 -11q-109 0 -162 76h-2q-32 -44 -75 -60t-98 -16q-81 0 -125 37.5t-44 106.5q0 75 48.5 111.5t138.5 36.5h109q6 0 6 6v23q0 51 -26 78t-89 27q-28 0 -54.5 -7.5t-43.5 -16.5q-14 -7 -24 -7q-17 0 -26.5 9.5t-9.5 26.5q0 10 4.5 19t15.5 15q23 15 59.5 25.5
t86.5 10.5q113 0 155 -66h2q52 66 147 66q71 0 119.5 -33t68.5 -95q16 -47 16 -116q0 -14 -9 -23t-24 -9h-281q-6 0 -6 -6q0 -17 1.5 -30.5t6.5 -27.5q14 -42 45 -62.5t76 -20.5q35 0 61.5 10.5t53.5 30.5q15 12 29 12q15 0 25 -10t10 -25q0 -17 -13 -30
q-31 -29 -73.5 -47.5t-98.5 -18.5zM669 281q6 0 6 6q0 33 -7 54q-12 36 -40.5 55.5t-69.5 19.5t-69.5 -19.5t-40.5 -55.5q-7 -21 -7 -54q0 -6 6 -6h222zM239 61q56 0 88.5 24.5t32.5 69.5v53q0 6 -6 6h-96q-62 0 -90.5 -18.5t-28.5 -59.5q0 -38 26 -56.5t74 -18.5z" />
    <glyph glyph-name="ccedilla" unicode="&#xe7;" horiz-adv-x="472" 
d="M245 -136q-9 -26 -34 -26q-15 0 -25 8.5t-10 24.5q0 4 1 9t3 10l38 102q-55 8 -94 40t-56 86q-7 22 -11 51.5t-4 70.5q0 40 4 69.5t11 51.5q20 63 70 96t119 33q54 0 92 -20.5t61 -49.5q12 -17 12 -31q0 -16 -10.5 -26.5t-26.5 -10.5q-11 0 -20 5.5t-17 14.5
q-17 18 -38 29t-53 11q-39 0 -67 -18.5t-40 -56.5q-6 -19 -8.5 -42t-2.5 -55t2.5 -55.5t8.5 -42.5q12 -38 40 -56.5t67 -18.5q32 0 53 11t38 29q8 9 17 14.5t20 5.5q16 0 26.5 -10.5t10.5 -26.5q0 -15 -12 -31q-20 -25 -49.5 -43.5t-71.5 -24.5z" />
    <glyph glyph-name="egrave" unicode="&#xe8;" horiz-adv-x="512" 
d="M262 -11q-75 0 -124 33.5t-69 96.5q-8 23 -12 50.5t-4 70.5t3.5 70.5t11.5 50.5q20 63 69 96t118 33q71 0 119.5 -33t68.5 -95q16 -47 16 -116q0 -14 -9 -23t-24 -9h-281q-6 0 -6 -6q0 -17 1.5 -30.5t6.5 -27.5q14 -42 45 -62.5t76 -20.5q35 0 61.5 10.5t53.5 30.5
q15 12 29 12q15 0 25 -10t10 -25q0 -17 -13 -30q-31 -29 -73.5 -47.5t-98.5 -18.5zM367 281q6 0 6 6q0 33 -7 54q-12 36 -40.5 55.5t-69.5 19.5t-69.5 -19.5t-40.5 -55.5q-7 -21 -7 -54q0 -6 6 -6h222zM256 549q-16 0 -28 16l-58 86q-8 13 -8 25q0 14 10 23t24 9
q19 0 30 -17l56 -86q7 -13 7 -24q0 -14 -9 -23t-24 -9z" />
    <glyph glyph-name="eacute" unicode="&#xe9;" horiz-adv-x="512" 
d="M262 -11q-75 0 -124 33.5t-69 96.5q-8 23 -12 50.5t-4 70.5t3.5 70.5t11.5 50.5q20 63 69 96t118 33q71 0 119.5 -33t68.5 -95q16 -47 16 -116q0 -14 -9 -23t-24 -9h-281q-6 0 -6 -6q0 -17 1.5 -30.5t6.5 -27.5q14 -42 45 -62.5t76 -20.5q35 0 61.5 10.5t53.5 30.5
q15 12 29 12q15 0 25 -10t10 -25q0 -17 -13 -30q-31 -29 -73.5 -47.5t-98.5 -18.5zM367 281q6 0 6 6q0 33 -7 54q-12 36 -40.5 55.5t-69.5 19.5t-69.5 -19.5t-40.5 -55.5q-7 -21 -7 -54q0 -6 6 -6h222zM257 549q-15 0 -24 9t-9 23q0 11 7 24l56 86q11 17 30 17q14 0 24 -9
t10 -23q0 -12 -8 -25l-58 -86q-12 -16 -28 -16z" />
    <glyph glyph-name="ecircumflex" unicode="&#xea;" horiz-adv-x="512" 
d="M262 -11q-75 0 -124 33.5t-69 96.5q-8 23 -12 50.5t-4 70.5t3.5 70.5t11.5 50.5q20 63 69 96t118 33q71 0 119.5 -33t68.5 -95q16 -47 16 -116q0 -14 -9 -23t-24 -9h-281q-6 0 -6 -6q0 -17 1.5 -30.5t6.5 -27.5q14 -42 45 -62.5t76 -20.5q35 0 61.5 10.5t53.5 30.5
q15 12 29 12q15 0 25 -10t10 -25q0 -17 -13 -30q-31 -29 -73.5 -47.5t-98.5 -18.5zM367 281q6 0 6 6q0 33 -7 54q-12 36 -40.5 55.5t-69.5 19.5t-69.5 -19.5t-40.5 -55.5q-7 -21 -7 -54q0 -6 6 -6h222zM257 639h-2l-69 -78q-12 -13 -25 -13q-11 0 -19 7.5t-8 18.5q0 10 8 20
l69 87q11 14 21 20.5t24 6.5t24 -6.5t21 -20.5l69 -87q8 -10 8 -20q0 -11 -8 -18.5t-19 -7.5q-13 0 -25 13z" />
    <glyph glyph-name="edieresis" unicode="&#xeb;" horiz-adv-x="512" 
d="M262 -11q-75 0 -124 33.5t-69 96.5q-8 23 -12 50.5t-4 70.5t3.5 70.5t11.5 50.5q20 63 69 96t118 33q71 0 119.5 -33t68.5 -95q16 -47 16 -116q0 -14 -9 -23t-24 -9h-281q-6 0 -6 -6q0 -17 1.5 -30.5t6.5 -27.5q14 -42 45 -62.5t76 -20.5q35 0 61.5 10.5t53.5 30.5
q15 12 29 12q15 0 25 -10t10 -25q0 -17 -13 -30q-31 -29 -73.5 -47.5t-98.5 -18.5zM367 281q6 0 6 6q0 33 -7 54q-12 36 -40.5 55.5t-69.5 19.5t-69.5 -19.5t-40.5 -55.5q-7 -21 -7 -54q0 -6 6 -6h222zM355 582q-20 0 -35 14.5t-15 35.5q0 20 15 35t35 15q21 0 35.5 -15
t14.5 -35q0 -21 -14.5 -35.5t-35.5 -14.5zM156 582q-21 0 -35.5 14.5t-14.5 35.5q0 20 14.5 35t35.5 15q20 0 35 -15t15 -35q0 -21 -15 -35.5t-35 -14.5z" />
    <glyph glyph-name="igrave" unicode="&#xec;" horiz-adv-x="248" 
d="M82 439q0 21 12 33t30 12t30 -12t12 -33v-399q0 -21 -12 -33t-30 -12t-30 12t-12 33v399zM125 549q-16 0 -28 16l-58 86q-8 13 -8 25q0 14 10 23t24 9q19 0 30 -17l56 -86q7 -13 7 -24q0 -14 -9 -23t-24 -9z" />
    <glyph glyph-name="iacute" unicode="&#xed;" horiz-adv-x="248" 
d="M82 439q0 21 12 33t30 12t30 -12t12 -33v-399q0 -21 -12 -33t-30 -12t-30 12t-12 33v399zM127 549q-15 0 -24 9t-9 23q0 11 7 24l56 86q11 17 30 17q14 0 24 -9t10 -23q0 -12 -8 -25l-58 -86q-12 -16 -28 -16z" />
    <glyph glyph-name="icircumflex" unicode="&#xee;" horiz-adv-x="248" 
d="M82 439q0 21 12 33t30 12t30 -12t12 -33v-399q0 -21 -12 -33t-30 -12t-30 12t-12 33v399zM126 639h-2l-69 -78q-12 -13 -25 -13q-11 0 -19 7.5t-8 18.5q0 10 8 20l69 87q11 14 21 20.5t24 6.5t24 -6.5t21 -20.5l69 -87q8 -10 8 -20q0 -11 -8 -18.5t-19 -7.5q-13 0 -25 13
z" />
    <glyph glyph-name="idieresis" unicode="&#xef;" horiz-adv-x="248" 
d="M82 439q0 21 12 33t30 12t30 -12t12 -33v-399q0 -21 -12 -33t-30 -12t-30 12t-12 33v399zM225 582q-20 0 -35 14.5t-15 35.5q0 20 15 35t35 15q21 0 35.5 -15t14.5 -35q0 -21 -14.5 -35.5t-35.5 -14.5zM26 582q-21 0 -35.5 14.5t-14.5 35.5q0 20 14.5 35t35.5 15
q20 0 35 -15t15 -35q0 -21 -15 -35.5t-35 -14.5z" />
    <glyph glyph-name="eth" unicode="&#xf0;" horiz-adv-x="516" 
d="M322 558l16 -20q60 -76 92.5 -150t32.5 -144q0 -45 -3.5 -73.5t-11.5 -51.5q-20 -61 -69.5 -95.5t-120.5 -34.5q-72 0 -121 34t-69 94q-8 23 -11.5 50.5t-3.5 62.5q0 67 15 111q19 59 62.5 92t104.5 33q44 0 76 -23h3l-70 92l-80 -24q-8 -2 -13 -2q-14 0 -22.5 8.5
t-8.5 22.5q0 23 24 31l60 18l-24 32q-11 14 -11 27q0 15 10 26t27 11q19 0 33 -17l42 -56l77 23q8 2 13 2q14 0 22.5 -8.5t8.5 -22.5q0 -11 -6 -19t-18 -12zM377 229q0 25 -3.5 47.5t-8.5 39.5q-12 38 -39.5 56.5t-67.5 18.5q-39 0 -67 -18.5t-40 -56.5q-5 -17 -8.5 -39.5
t-3.5 -47.5t3.5 -47.5t8.5 -39.5q12 -38 40 -56.5t67 -18.5q40 0 67.5 18.5t39.5 56.5q5 17 8.5 39.5t3.5 47.5z" />
    <glyph glyph-name="ntilde" unicode="&#xf1;" horiz-adv-x="544" 
d="M82 439q0 21 12 33t30 12t30 -12t12 -33v-14h1q17 28 51 46.5t83 18.5q78 0 122 -49t44 -131v-270q0 -21 -12 -33t-30 -12t-30 12t-12 33v250q0 58 -26.5 90t-80.5 32q-49 0 -79.5 -31.5t-30.5 -85.5v-255q0 -21 -12 -33t-30 -12t-30 12t-12 33v399zM219 621
q-11 0 -19 -5t-18 -18q-11 -13 -25 -13q-13 0 -21 7.5t-8 19.5t8 23q18 26 38 38t42 12q19 0 33 -5.5t31 -16.5t27 -15t18 -4q11 0 19 5t18 18q11 13 25 13q13 0 21 -7.5t8 -19.5t-8 -23q-18 -26 -38 -38t-42 -12q-19 0 -33 5.5t-31 16.5t-27 15t-18 4z" />
    <glyph glyph-name="ograve" unicode="&#xf2;" horiz-adv-x="516" 
d="M258 -11q-70 0 -119.5 34t-69.5 95q-8 25 -12 52.5t-4 69.5t4 69t12 52q20 62 69.5 95.5t119.5 33.5t119.5 -33.5t69.5 -95.5q8 -25 12 -52t4 -69t-4 -69.5t-12 -52.5q-20 -61 -69.5 -95t-119.5 -34zM258 67q40 0 68 19.5t40 55.5q6 20 8.5 41.5t2.5 56.5t-2.5 56
t-8.5 41q-12 36 -40 55.5t-68 19.5t-68 -19.5t-40 -55.5q-6 -20 -8.5 -41t-2.5 -56t2.5 -56.5t8.5 -41.5q12 -36 40 -55.5t68 -19.5zM254 549q-16 0 -28 16l-58 86q-8 13 -8 25q0 14 10 23t24 9q19 0 30 -17l56 -86q7 -13 7 -24q0 -14 -9 -23t-24 -9z" />
    <glyph glyph-name="oacute" unicode="&#xf3;" horiz-adv-x="516" 
d="M258 -11q-70 0 -119.5 34t-69.5 95q-8 25 -12 52.5t-4 69.5t4 69t12 52q20 62 69.5 95.5t119.5 33.5t119.5 -33.5t69.5 -95.5q8 -25 12 -52t4 -69t-4 -69.5t-12 -52.5q-20 -61 -69.5 -95t-119.5 -34zM258 67q40 0 68 19.5t40 55.5q6 20 8.5 41.5t2.5 56.5t-2.5 56
t-8.5 41q-12 36 -40 55.5t-68 19.5t-68 -19.5t-40 -55.5q-6 -20 -8.5 -41t-2.5 -56t2.5 -56.5t8.5 -41.5q12 -36 40 -55.5t68 -19.5zM262 549q-15 0 -24 9t-9 23q0 11 7 24l56 86q11 17 30 17q14 0 24 -9t10 -23q0 -12 -8 -25l-58 -86q-12 -16 -28 -16z" />
    <glyph glyph-name="ocircumflex" unicode="&#xf4;" horiz-adv-x="516" 
d="M258 -11q-70 0 -119.5 34t-69.5 95q-8 25 -12 52.5t-4 69.5t4 69t12 52q20 62 69.5 95.5t119.5 33.5t119.5 -33.5t69.5 -95.5q8 -25 12 -52t4 -69t-4 -69.5t-12 -52.5q-20 -61 -69.5 -95t-119.5 -34zM258 67q40 0 68 19.5t40 55.5q6 20 8.5 41.5t2.5 56.5t-2.5 56
t-8.5 41q-12 36 -40 55.5t-68 19.5t-68 -19.5t-40 -55.5q-6 -20 -8.5 -41t-2.5 -56t2.5 -56.5t8.5 -41.5q12 -36 40 -55.5t68 -19.5zM261 639h-2l-69 -78q-12 -13 -25 -13q-11 0 -19 7.5t-8 18.5q0 10 8 20l69 87q11 14 21 20.5t24 6.5t24 -6.5t21 -20.5l69 -87q8 -10 8 -20
q0 -11 -8 -18.5t-19 -7.5q-13 0 -25 13z" />
    <glyph glyph-name="otilde" unicode="&#xf5;" horiz-adv-x="516" 
d="M258 -11q-70 0 -119.5 34t-69.5 95q-8 25 -12 52.5t-4 69.5t4 69t12 52q20 62 69.5 95.5t119.5 33.5t119.5 -33.5t69.5 -95.5q8 -25 12 -52t4 -69t-4 -69.5t-12 -52.5q-20 -61 -69.5 -95t-119.5 -34zM258 67q40 0 68 19.5t40 55.5q6 20 8.5 41.5t2.5 56.5t-2.5 56
t-8.5 41q-12 36 -40 55.5t-68 19.5t-68 -19.5t-40 -55.5q-6 -20 -8.5 -41t-2.5 -56t2.5 -56.5t8.5 -41.5q12 -36 40 -55.5t68 -19.5zM205 621q-11 0 -19 -5t-18 -18q-11 -13 -25 -13q-13 0 -21 7.5t-8 19.5t8 23q18 26 38 38t42 12q19 0 33 -5.5t31 -16.5t27 -15t18 -4
q11 0 19 5t18 18q11 13 25 13q13 0 21 -7.5t8 -19.5t-8 -23q-18 -26 -38 -38t-42 -12q-19 0 -33 5.5t-31 16.5t-27 15t-18 4z" />
    <glyph glyph-name="odieresis" unicode="&#xf6;" horiz-adv-x="516" 
d="M258 -11q-70 0 -119.5 34t-69.5 95q-8 25 -12 52.5t-4 69.5t4 69t12 52q20 62 69.5 95.5t119.5 33.5t119.5 -33.5t69.5 -95.5q8 -25 12 -52t4 -69t-4 -69.5t-12 -52.5q-20 -61 -69.5 -95t-119.5 -34zM258 67q40 0 68 19.5t40 55.5q6 20 8.5 41.5t2.5 56.5t-2.5 56
t-8.5 41q-12 36 -40 55.5t-68 19.5t-68 -19.5t-40 -55.5q-6 -20 -8.5 -41t-2.5 -56t2.5 -56.5t8.5 -41.5q12 -36 40 -55.5t68 -19.5zM358 582q-20 0 -35 14.5t-15 35.5q0 20 15 35t35 15q21 0 35.5 -15t14.5 -35q0 -21 -14.5 -35.5t-35.5 -14.5zM159 582q-21 0 -35.5 14.5
t-14.5 35.5q0 20 14.5 35t35.5 15q20 0 35 -15t15 -35q0 -21 -15 -35.5t-35 -14.5z" />
    <glyph glyph-name="divide" unicode="&#xf7;" 
d="M215 438q0 23 16.5 39.5t39.5 16.5t39.5 -16.5t16.5 -39.5t-16.5 -39.5t-39.5 -16.5t-39.5 16.5t-16.5 39.5zM98 239q-20 0 -30.5 10t-10.5 27t10.5 27t30.5 10h346q20 0 30.5 -10t10.5 -27t-10.5 -27t-30.5 -10h-346zM215 114q0 23 16.5 39.5t39.5 16.5t39.5 -16.5
t16.5 -39.5t-16.5 -39.5t-39.5 -16.5t-39.5 16.5t-16.5 39.5z" />
    <glyph glyph-name="oslash" unicode="&#xf8;" horiz-adv-x="516" 
d="M83 -35q-8 0 -14 5.5t-6 15.5q0 7 6 16l35 52q-23 26 -35 64q-8 25 -12 52.5t-4 69.5t4 69t12 52q20 62 69.5 95.5t119.5 33.5q72 0 121 -35l33 48q9 12 20 12q20 0 20 -20q0 -8 -6 -17l-35 -52q24 -27 36 -65q8 -25 12 -52t4 -69t-4 -69.5t-12 -52.5q-20 -61 -69.5 -95
t-119.5 -34q-74 0 -123 36l-32 -48q-8 -12 -20 -12zM139 240q0 -50 5 -75t12 -39l175 262q-29 24 -73 24q-40 0 -68 -19.5t-40 -55.5q-6 -20 -8.5 -41t-2.5 -56zM258 67q40 0 68 19.5t40 55.5q6 20 8.5 41.5t2.5 56.5q0 42 -4 66.5t-13 45.5l-177 -261q30 -24 75 -24z" />
    <glyph glyph-name="ugrave" unicode="&#xf9;" horiz-adv-x="539" 
d="M457 40q0 -21 -12 -33t-30 -12t-30 12t-12 33v14h-1q-17 -28 -50 -46.5t-82 -18.5q-78 0 -121.5 49t-43.5 131v270q0 21 12 33t30 12t30 -12t12 -33v-250q0 -58 26 -90t80 -32q49 0 78.5 31.5t29.5 85.5v255q0 21 12 33t30 12t30 -12t12 -33v-399zM266 549q-16 0 -28 16
l-58 86q-8 13 -8 25q0 14 10 23t24 9q19 0 30 -17l56 -86q7 -13 7 -24q0 -14 -9 -23t-24 -9z" />
    <glyph glyph-name="uacute" unicode="&#xfa;" horiz-adv-x="539" 
d="M457 40q0 -21 -12 -33t-30 -12t-30 12t-12 33v14h-1q-17 -28 -50 -46.5t-82 -18.5q-78 0 -121.5 49t-43.5 131v270q0 21 12 33t30 12t30 -12t12 -33v-250q0 -58 26 -90t80 -32q49 0 78.5 31.5t29.5 85.5v255q0 21 12 33t30 12t30 -12t12 -33v-399zM273 549q-15 0 -24 9
t-9 23q0 11 7 24l56 86q11 17 30 17q14 0 24 -9t10 -23q0 -12 -8 -25l-58 -86q-12 -16 -28 -16z" />
    <glyph glyph-name="ucircumflex" unicode="&#xfb;" horiz-adv-x="539" 
d="M457 40q0 -21 -12 -33t-30 -12t-30 12t-12 33v14h-1q-17 -28 -50 -46.5t-82 -18.5q-78 0 -121.5 49t-43.5 131v270q0 21 12 33t30 12t30 -12t12 -33v-250q0 -58 26 -90t80 -32q49 0 78.5 31.5t29.5 85.5v255q0 21 12 33t30 12t30 -12t12 -33v-399zM269 639h-2l-69 -78
q-12 -13 -25 -13q-11 0 -19 7.5t-8 18.5q0 10 8 20l69 87q11 14 21 20.5t24 6.5t24 -6.5t21 -20.5l69 -87q8 -10 8 -20q0 -11 -8 -18.5t-19 -7.5q-13 0 -25 13z" />
    <glyph glyph-name="udieresis" unicode="&#xfc;" horiz-adv-x="539" 
d="M457 40q0 -21 -12 -33t-30 -12t-30 12t-12 33v14h-1q-17 -28 -50 -46.5t-82 -18.5q-78 0 -121.5 49t-43.5 131v270q0 21 12 33t30 12t30 -12t12 -33v-250q0 -58 26 -90t80 -32q49 0 78.5 31.5t29.5 85.5v255q0 21 12 33t30 12t30 -12t12 -33v-399zM369 582
q-20 0 -35 14.5t-15 35.5q0 20 15 35t35 15q21 0 35.5 -15t14.5 -35q0 -21 -14.5 -35.5t-35.5 -14.5zM170 582q-21 0 -35.5 14.5t-14.5 35.5q0 20 14.5 35t35.5 15q20 0 35 -15t15 -35q0 -21 -15 -35.5t-35 -14.5z" />
    <glyph glyph-name="yacute" unicode="&#xfd;" horiz-adv-x="477" 
d="M102 -180q-20 0 -30.5 11t-10.5 28t10.5 28t30.5 11q29 0 48 14.5t35 57.5l16 44l-163 411q-2 5 -3 10t-1 10q0 17 12 28t30 11q29 0 40 -30l125 -331h2l120 331q10 30 39 30q19 0 30 -11t11 -28q0 -5 -1 -10t-3 -10l-180 -472q-16 -41 -31.5 -66.5t-33 -40.5t-38 -20.5
t-46.5 -5.5h-8zM247 549q-15 0 -24 9t-9 23q0 11 7 24l56 86q11 17 30 17q14 0 24 -9t10 -23q0 -12 -8 -25l-58 -86q-12 -16 -28 -16z" />
    <glyph glyph-name="thorn" unicode="&#xfe;" horiz-adv-x="538" 
d="M124 -185q-18 0 -30 12t-12 33v780q0 21 12 33t30 12t30 -12t12 -33v-214h1q17 29 49.5 46.5t86.5 17.5q61 0 103.5 -31.5t61.5 -88.5q9 -29 13 -59t4 -72q0 -41 -4 -71t-13 -59q-19 -57 -61.5 -88.5t-103.5 -31.5q-54 0 -86.5 18t-49.5 46h-1v-193q0 -21 -12 -33
t-30 -12zM283 67q40 0 66.5 19.5t38.5 55.5q7 20 9 43t2 54q0 32 -2 55t-9 43q-12 36 -38.5 55.5t-66.5 19.5q-41 0 -67.5 -19.5t-38.5 -55.5q-7 -20 -9 -43t-2 -55q0 -31 2 -54t9 -43q12 -36 38.5 -55.5t67.5 -19.5z" />
    <glyph glyph-name="ydieresis" unicode="&#xff;" horiz-adv-x="477" 
d="M102 -180q-20 0 -30.5 11t-10.5 28t10.5 28t30.5 11q29 0 48 14.5t35 57.5l16 44l-163 411q-2 5 -3 10t-1 10q0 17 12 28t30 11q29 0 40 -30l125 -331h2l120 331q10 30 39 30q19 0 30 -11t11 -28q0 -5 -1 -10t-3 -10l-180 -472q-16 -41 -31.5 -66.5t-33 -40.5t-38 -20.5
t-46.5 -5.5h-8zM340 582q-20 0 -35 14.5t-15 35.5q0 20 15 35t35 15q21 0 35.5 -15t14.5 -35q0 -21 -14.5 -35.5t-35.5 -14.5zM141 582q-21 0 -35.5 14.5t-14.5 35.5q0 20 14.5 35t35.5 15q20 0 35 -15t15 -35q0 -21 -15 -35.5t-35 -14.5z" />
    <glyph glyph-name="Amacron" unicode="&#x100;" horiz-adv-x="607" 
d="M33 36q0 5 1 10t3 10l209 579q8 24 21.5 37t36.5 13q43 0 60 -50l206 -579q2 -5 3 -10t1 -10q0 -19 -12.5 -30t-29.5 -11q-32 0 -43 32l-46 131h-279l-46 -131q-11 -32 -43 -32q-17 0 -29.5 11t-12.5 30zM414 240l-108 309h-3l-110 -309h221zM198 790q-17 0 -26 9t-9 23
t9 23.5t26 9.5h218q17 0 26 -9.5t9 -23.5t-9 -23t-26 -9h-218z" />
    <glyph glyph-name="amacron" unicode="&#x101;" horiz-adv-x="520" 
d="M467 59q7 -12 7 -24q0 -17 -12 -28.5t-31 -11.5q-22 0 -37 21l-19 30h-1q-24 -27 -59 -42t-88 -15q-81 0 -125 37.5t-44 106.5q0 75 48.5 111.5t138.5 36.5h109q6 0 6 6v23q0 51 -26 78t-89 27q-28 0 -54.5 -7.5t-43.5 -16.5q-14 -7 -24 -7q-17 0 -26.5 9.5t-9.5 26.5
q0 10 4.5 19t15.5 15q23 15 59.5 25.5t86.5 10.5q97 0 142.5 -45t45.5 -134v-172q0 -19 2 -28.5t7 -20.5zM239 61q56 0 88.5 24.5t32.5 69.5v53q0 6 -6 6h-96q-62 0 -90.5 -18.5t-28.5 -59.5q0 -38 26 -56.5t74 -18.5zM150 601q-17 0 -26 9t-9 23t9 23.5t26 9.5h218
q17 0 26 -9.5t9 -23.5t-9 -23t-26 -9h-218z" />
    <glyph glyph-name="Abreve" unicode="&#x102;" horiz-adv-x="607" 
d="M33 36q0 5 1 10t3 10l209 579q8 24 21.5 37t36.5 13q43 0 60 -50l206 -579q2 -5 3 -10t1 -10q0 -19 -12.5 -30t-29.5 -11q-32 0 -43 32l-46 131h-279l-46 -131q-11 -32 -43 -32q-17 0 -29.5 11t-12.5 30zM414 240l-108 309h-3l-110 -309h221zM307 761q-30 0 -54 9t-41 24
t-26.5 33.5t-9.5 37.5q0 11 6.5 18.5t18.5 7.5q11 0 17.5 -6.5t11.5 -17.5q21 -46 77 -46t77 46q5 11 11.5 17.5t17.5 6.5q12 0 18.5 -7.5t6.5 -18.5q0 -19 -9.5 -37.5t-26.5 -33.5t-41 -24t-54 -9z" />
    <glyph glyph-name="abreve" unicode="&#x103;" horiz-adv-x="520" 
d="M467 59q7 -12 7 -24q0 -17 -12 -28.5t-31 -11.5q-22 0 -37 21l-19 30h-1q-24 -27 -59 -42t-88 -15q-81 0 -125 37.5t-44 106.5q0 75 48.5 111.5t138.5 36.5h109q6 0 6 6v23q0 51 -26 78t-89 27q-28 0 -54.5 -7.5t-43.5 -16.5q-14 -7 -24 -7q-17 0 -26.5 9.5t-9.5 26.5
q0 10 4.5 19t15.5 15q23 15 59.5 25.5t86.5 10.5q97 0 142.5 -45t45.5 -134v-172q0 -19 2 -28.5t7 -20.5zM239 61q56 0 88.5 24.5t32.5 69.5v53q0 6 -6 6h-96q-62 0 -90.5 -18.5t-28.5 -59.5q0 -38 26 -56.5t74 -18.5zM260 561q-30 0 -54 9t-41 24t-26.5 33.5t-9.5 37.5
q0 11 6.5 18.5t18.5 7.5q11 0 17.5 -6.5t11.5 -17.5q21 -46 77 -46t77 46q5 11 11.5 17.5t17.5 6.5q12 0 18.5 -7.5t6.5 -18.5q0 -19 -9.5 -37.5t-26.5 -33.5t-41 -24t-54 -9z" />
    <glyph glyph-name="Aogonek" unicode="&#x104;" horiz-adv-x="607" 
d="M497 -179q-38 0 -60.5 21t-22.5 57q0 28 18 58t61 60l-50 141h-279l-46 -131q-11 -32 -43 -32q-17 0 -29.5 11t-12.5 30q0 5 1 10t3 10l209 579q8 24 21.5 37t36.5 13q43 0 60 -50l206 -579q4 -10 4 -20q0 -11 -4.5 -20t-18.5 -22q-38 -32 -52 -51t-14 -33q0 -24 24 -24
q10 0 19 4q7 3 15 3q13 0 20.5 -8.5t7.5 -20.5q0 -18 -17 -28q-23 -15 -57 -15zM193 240h221l-108 309h-3z" />
    <glyph glyph-name="aogonek" unicode="&#x105;" horiz-adv-x="520" 
d="M310 -102q0 28 18.5 55.5t66.5 60.5l-20 32h-1q-24 -27 -59 -42t-88 -15q-81 0 -125 37.5t-44 106.5q0 75 48.5 111.5t138.5 36.5h109q6 0 6 6v23q0 51 -26 78t-89 27q-28 0 -54.5 -7.5t-43.5 -16.5q-14 -7 -24 -7q-17 0 -26.5 9.5t-9.5 26.5q0 10 4.5 19t15.5 15
q23 15 59.5 25.5t86.5 10.5q97 0 142.5 -45t45.5 -134v-172q0 -19 2 -29t7 -20l17 -31q7 -12 7 -25q0 -11 -6 -21.5t-20 -21.5q-41 -32 -54 -49.5t-13 -31.5q0 -24 23 -24q10 0 19 4q7 3 16 3q12 0 19.5 -8.5t7.5 -20.5q0 -18 -16 -28q-11 -7 -26 -11t-32 -4q-38 0 -60 20.5
t-22 56.5zM239 61q56 0 88.5 24.5t32.5 69.5v53q0 6 -6 6h-96q-62 0 -90.5 -18.5t-28.5 -59.5q0 -38 26 -56.5t74 -18.5z" />
    <glyph glyph-name="Cacute" unicode="&#x106;" horiz-adv-x="563" 
d="M79 150q-6 18 -9.5 36.5t-6 40.5t-3 49.5t-0.5 63.5t0.5 63.5t3 49.5t6 40.5t9.5 36.5q26 78 83 119.5t144 41.5q66 0 118 -29.5t81 -81.5q8 -13 8 -28q0 -19 -12 -30t-29 -11q-24 0 -40 25q-24 36 -54 54t-72 18q-57 0 -91 -28.5t-49 -76.5q-4 -12 -7 -26.5t-5 -33.5
t-3 -44t-1 -59t1 -59t3 -44t5 -33.5t7 -26.5q15 -48 49 -76.5t91 -28.5q42 0 72 18t54 54q16 25 40 25q17 0 29 -11t12 -30q0 -15 -8 -28q-29 -52 -81 -81.5t-118 -29.5q-87 0 -144 41.5t-83 119.5zM345 890q11 13 27 13q14 0 24 -9.5t10 -23.5t-10 -26l-69 -76
q-14 -15 -30 -15q-13 0 -22.5 9t-9.5 23t11 27z" />
    <glyph glyph-name="cacute" unicode="&#x107;" horiz-adv-x="472" 
d="M257 -11q-69 0 -119 33t-70 96q-7 22 -11 51.5t-4 70.5q0 40 4 69.5t11 51.5q20 63 70 96t119 33q54 0 92 -20.5t61 -49.5q12 -17 12 -31q0 -16 -10.5 -26.5t-26.5 -10.5q-11 0 -20 5.5t-17 14.5q-17 18 -38 29t-53 11q-39 0 -67 -18.5t-40 -56.5q-6 -19 -8.5 -42
t-2.5 -55t2.5 -55.5t8.5 -42.5q12 -38 40 -56.5t67 -18.5q32 0 53 11t38 29q8 9 17 14.5t20 5.5q16 0 26.5 -10.5t10.5 -26.5q0 -15 -12 -31q-23 -29 -61 -49.5t-92 -20.5zM251 549q-15 0 -24 9t-9 23q0 11 7 24l56 86q11 17 30 17q14 0 24 -9t10 -23q0 -12 -8 -25l-58 -86
q-12 -16 -28 -16z" />
    <glyph glyph-name="Ccircumflex" unicode="&#x108;" horiz-adv-x="563" 
d="M79 150q-6 18 -9.5 36.5t-6 40.5t-3 49.5t-0.5 63.5t0.5 63.5t3 49.5t6 40.5t9.5 36.5q26 78 83 119.5t144 41.5q66 0 118 -29.5t81 -81.5q8 -13 8 -28q0 -19 -12 -30t-29 -11q-24 0 -40 25q-24 36 -54 54t-72 18q-57 0 -91 -28.5t-49 -76.5q-4 -12 -7 -26.5t-5 -33.5
t-3 -44t-1 -59t1 -59t3 -44t5 -33.5t7 -26.5q15 -48 49 -76.5t91 -28.5q42 0 72 18t54 54q16 25 40 25q17 0 29 -11t12 -30q0 -15 -8 -28q-29 -52 -81 -81.5t-118 -29.5q-87 0 -144 41.5t-83 119.5zM303 836h-2l-69 -78q-12 -13 -25 -13q-11 0 -19 7.5t-8 18.5q0 10 8 20
l69 87q11 14 21 20.5t24 6.5t24 -6.5t21 -20.5l69 -87q8 -10 8 -20q0 -11 -8 -18.5t-19 -7.5q-13 0 -25 13z" />
    <glyph glyph-name="ccircumflex" unicode="&#x109;" horiz-adv-x="472" 
d="M257 -11q-69 0 -119 33t-70 96q-7 22 -11 51.5t-4 70.5q0 40 4 69.5t11 51.5q20 63 70 96t119 33q54 0 92 -20.5t61 -49.5q12 -17 12 -31q0 -16 -10.5 -26.5t-26.5 -10.5q-11 0 -20 5.5t-17 14.5q-17 18 -38 29t-53 11q-39 0 -67 -18.5t-40 -56.5q-6 -19 -8.5 -42
t-2.5 -55t2.5 -55.5t8.5 -42.5q12 -38 40 -56.5t67 -18.5q32 0 53 11t38 29q8 9 17 14.5t20 5.5q16 0 26.5 -10.5t10.5 -26.5q0 -15 -12 -31q-23 -29 -61 -49.5t-92 -20.5zM257 639h-2l-69 -78q-12 -13 -25 -13q-11 0 -19 7.5t-8 18.5q0 10 8 20l69 87q11 14 21 20.5t24 6.5
t24 -6.5t21 -20.5l69 -87q8 -10 8 -20q0 -11 -8 -18.5t-19 -7.5q-13 0 -25 13z" />
    <glyph glyph-name="Cdotaccent" unicode="&#x10a;" horiz-adv-x="563" 
d="M79 150q-6 18 -9.5 36.5t-6 40.5t-3 49.5t-0.5 63.5t0.5 63.5t3 49.5t6 40.5t9.5 36.5q26 78 83 119.5t144 41.5q66 0 118 -29.5t81 -81.5q8 -13 8 -28q0 -19 -12 -30t-29 -11q-24 0 -40 25q-24 36 -54 54t-72 18q-57 0 -91 -28.5t-49 -76.5q-4 -12 -7 -26.5t-5 -33.5
t-3 -44t-1 -59t1 -59t3 -44t5 -33.5t7 -26.5q15 -48 49 -76.5t91 -28.5q42 0 72 18t54 54q16 25 40 25q17 0 29 -11t12 -30q0 -15 -8 -28q-29 -52 -81 -81.5t-118 -29.5q-87 0 -144 41.5t-83 119.5zM301 766q-23 0 -39 16t-16 39t16 39t39 16t39 -16t16 -39t-16 -39t-39 -16
z" />
    <glyph glyph-name="cdotaccent" unicode="&#x10b;" horiz-adv-x="472" 
d="M257 -11q-69 0 -119 33t-70 96q-7 22 -11 51.5t-4 70.5q0 40 4 69.5t11 51.5q20 63 70 96t119 33q54 0 92 -20.5t61 -49.5q12 -17 12 -31q0 -16 -10.5 -26.5t-26.5 -10.5q-11 0 -20 5.5t-17 14.5q-17 18 -38 29t-53 11q-39 0 -67 -18.5t-40 -56.5q-6 -19 -8.5 -42
t-2.5 -55t2.5 -55.5t8.5 -42.5q12 -38 40 -56.5t67 -18.5q32 0 53 11t38 29q8 9 17 14.5t20 5.5q16 0 26.5 -10.5t10.5 -26.5q0 -15 -12 -31q-23 -29 -61 -49.5t-92 -20.5zM255 575q-23 0 -39 16t-16 39t16 39t39 16t39 -16t16 -39t-16 -39t-39 -16z" />
    <glyph glyph-name="Ccaron" unicode="&#x10c;" horiz-adv-x="563" 
d="M79 150q-6 18 -9.5 36.5t-6 40.5t-3 49.5t-0.5 63.5t0.5 63.5t3 49.5t6 40.5t9.5 36.5q26 78 83 119.5t144 41.5q66 0 118 -29.5t81 -81.5q8 -13 8 -28q0 -19 -12 -30t-29 -11q-24 0 -40 25q-24 36 -54 54t-72 18q-57 0 -91 -28.5t-49 -76.5q-4 -12 -7 -26.5t-5 -33.5
t-3 -44t-1 -59t1 -59t3 -44t5 -33.5t7 -26.5q15 -48 49 -76.5t91 -28.5q42 0 72 18t54 54q16 25 40 25q17 0 29 -11t12 -30q0 -15 -8 -28q-29 -52 -81 -81.5t-118 -29.5q-87 0 -144 41.5t-83 119.5zM372 892q12 13 25 13q11 0 19 -7.5t8 -18.5q0 -10 -8 -20l-69 -87
q-11 -14 -21 -20.5t-24 -6.5t-24 6.5t-21 20.5l-69 87q-8 10 -8 20q0 11 8 18.5t19 7.5q13 0 25 -13l69 -78h2z" />
    <glyph glyph-name="ccaron" unicode="&#x10d;" horiz-adv-x="472" 
d="M257 -11q-69 0 -119 33t-70 96q-7 22 -11 51.5t-4 70.5q0 40 4 69.5t11 51.5q20 63 70 96t119 33q54 0 92 -20.5t61 -49.5q12 -17 12 -31q0 -16 -10.5 -26.5t-26.5 -10.5q-11 0 -20 5.5t-17 14.5q-17 18 -38 29t-53 11q-39 0 -67 -18.5t-40 -56.5q-6 -19 -8.5 -42
t-2.5 -55t2.5 -55.5t8.5 -42.5q12 -38 40 -56.5t67 -18.5q32 0 53 11t38 29q8 9 17 14.5t20 5.5q16 0 26.5 -10.5t10.5 -26.5q0 -15 -12 -31q-23 -29 -61 -49.5t-92 -20.5zM326 694q12 13 25 13q11 0 19 -7.5t8 -18.5q0 -10 -8 -20l-69 -87q-11 -14 -21 -20.5t-24 -6.5
t-24 6.5t-21 20.5l-69 87q-8 10 -8 20q0 11 8 18.5t19 7.5q13 0 25 -13l69 -78h2z" />
    <glyph glyph-name="Dcaron" unicode="&#x10e;" horiz-adv-x="623" 
d="M84 640q0 18 10.5 29t29.5 11h173q196 0 246 -155q6 -17 9.5 -34t6 -38.5t3.5 -48.5t1 -64t-1 -64t-3.5 -48.5t-6 -39t-9.5 -33.5q-50 -155 -246 -155h-173q-19 0 -29.5 11t-10.5 29v600zM173 89q0 -6 6 -6h112q68 0 108 23t58 79q4 13 7 27.5t5 32.5t3 41.5t1 53.5
t-1 53.5t-3 41.5t-5 32.5t-7 27.5q-18 56 -58 79t-108 23h-112q-6 0 -6 -6v-502zM367 892q12 13 25 13q11 0 19 -7.5t8 -18.5q0 -10 -8 -20l-69 -87q-11 -14 -21 -20.5t-24 -6.5t-24 6.5t-21 20.5l-69 87q-8 10 -8 20q0 11 8 18.5t19 7.5q13 0 25 -13l69 -78h2z" />
    <glyph glyph-name="dcaron" unicode="&#x10f;" horiz-adv-x="538" 
d="M414 -5q-18 0 -30 12t-12 33v13h-1q-17 -29 -49.5 -46.5t-86.5 -17.5q-61 0 -103.5 31.5t-61.5 88.5q-9 29 -13 59t-4 72q0 41 4 71t13 59q19 57 61.5 88.5t103.5 31.5q54 0 86.5 -18t49.5 -46h1v214q0 21 12 33t30 12t30 -12t12 -33v-600q0 -21 -12 -33t-30 -12zM255 67
q41 0 67.5 19.5t38.5 55.5q7 20 9 43t2 55q0 31 -2 54t-9 43q-12 36 -38.5 55.5t-67.5 19.5q-40 0 -66.5 -19.5t-38.5 -55.5q-7 -20 -9 -43t-2 -54q0 -32 2 -55t9 -43q12 -36 38.5 -55.5t66.5 -19.5zM554 547q-11 -30 -36 -30q-17 0 -27.5 9.5t-10.5 26.5q0 9 3 17l26 83
q10 30 36 30q17 0 28 -9.5t11 -26.5q0 -10 -3 -17z" />
    <glyph glyph-name="Dcroat" unicode="&#x110;" horiz-adv-x="623" 
d="M124 0q-19 0 -29.5 11t-10.5 29v261q0 7 -6 7h-19q-17 0 -26.5 10t-9.5 26t9.5 26t26.5 10h19q6 0 6 6v254q0 18 10.5 29t29.5 11h173q196 0 246 -155q6 -17 9.5 -34t6 -38.5t3.5 -48.5t1 -64t-1 -64t-3.5 -48.5t-6 -39t-9.5 -33.5q-50 -155 -246 -155h-173zM291 83
q68 0 108 23t58 79q4 13 7 27.5t5 32.5t3 41.5t1 53.5t-1 53.5t-3 41.5t-5 32.5t-7 27.5q-18 56 -58 79t-108 23h-112q-6 0 -6 -6v-205q0 -6 6 -6h93q17 0 27 -10t10 -26t-10 -26t-27 -10h-93q-6 0 -6 -7v-212q0 -6 6 -6h112z" />
    <glyph glyph-name="dcroat" unicode="&#x111;" horiz-adv-x="538" 
d="M372 549q0 6 -6 6h-99q-17 0 -27 9.5t-10 24.5q0 14 10 24t27 10h99q6 0 6 6v11q0 21 12 33t30 12t30 -12t12 -33v-11q0 -6 6 -6h9q17 0 27 -10t10 -24q0 -15 -10 -24.5t-27 -9.5h-9q-6 0 -6 -6v-509q0 -21 -12 -33t-30 -12t-30 12t-12 33v13h-1q-17 -29 -49.5 -46.5
t-86.5 -17.5q-61 0 -103.5 31.5t-61.5 88.5q-9 29 -13 59t-4 72q0 41 4 71t13 59q19 57 61.5 88.5t103.5 31.5q54 0 86.5 -18t49.5 -46h1v123zM255 67q41 0 67.5 19.5t38.5 55.5q7 20 9 43t2 55q0 31 -2 54t-9 43q-12 36 -38.5 55.5t-67.5 19.5q-40 0 -66.5 -19.5
t-38.5 -55.5q-7 -20 -9 -43t-2 -54q0 -32 2 -55t9 -43q12 -36 38.5 -55.5t66.5 -19.5z" />
    <glyph glyph-name="Emacron" unicode="&#x112;" horiz-adv-x="563" 
d="M84 640q0 18 10.5 29t29.5 11h350q20 0 32 -12t12 -29q0 -18 -12 -30t-32 -12h-295q-6 0 -6 -6v-200q0 -6 6 -6h246q20 0 32 -12t12 -29q0 -18 -12 -30t-32 -12h-246q-6 0 -6 -6v-207q0 -6 6 -6h295q20 0 32 -12t12 -29q0 -18 -12 -30t-32 -12h-350q-19 0 -29.5 11
t-10.5 29v600zM186 790q-17 0 -26 9t-9 23t9 23.5t26 9.5h218q17 0 26 -9.5t9 -23.5t-9 -23t-26 -9h-218z" />
    <glyph glyph-name="emacron" unicode="&#x113;" horiz-adv-x="512" 
d="M262 -11q-75 0 -124 33.5t-69 96.5q-8 23 -12 50.5t-4 70.5t3.5 70.5t11.5 50.5q20 63 69 96t118 33q71 0 119.5 -33t68.5 -95q16 -47 16 -116q0 -14 -9 -23t-24 -9h-281q-6 0 -6 -6q0 -17 1.5 -30.5t6.5 -27.5q14 -42 45 -62.5t76 -20.5q35 0 61.5 10.5t53.5 30.5
q15 12 29 12q15 0 25 -10t10 -25q0 -17 -13 -30q-31 -29 -73.5 -47.5t-98.5 -18.5zM367 281q6 0 6 6q0 33 -7 54q-12 36 -40.5 55.5t-69.5 19.5t-69.5 -19.5t-40.5 -55.5q-7 -21 -7 -54q0 -6 6 -6h222zM147 601q-17 0 -26 9t-9 23t9 23.5t26 9.5h218q17 0 26 -9.5t9 -23.5
t-9 -23t-26 -9h-218z" />
    <glyph glyph-name="Ebreve" unicode="&#x114;" horiz-adv-x="563" 
d="M84 640q0 18 10.5 29t29.5 11h350q20 0 32 -12t12 -29q0 -18 -12 -30t-32 -12h-295q-6 0 -6 -6v-200q0 -6 6 -6h246q20 0 32 -12t12 -29q0 -18 -12 -30t-32 -12h-246q-6 0 -6 -6v-207q0 -6 6 -6h295q20 0 32 -12t12 -29q0 -18 -12 -30t-32 -12h-350q-19 0 -29.5 11
t-10.5 29v600zM295 761q-30 0 -54 9t-41 24t-26.5 33.5t-9.5 37.5q0 11 6.5 18.5t18.5 7.5q11 0 17.5 -6.5t11.5 -17.5q21 -46 77 -46t77 46q5 11 11.5 17.5t17.5 6.5q12 0 18.5 -7.5t6.5 -18.5q0 -19 -9.5 -37.5t-26.5 -33.5t-41 -24t-54 -9z" />
    <glyph glyph-name="ebreve" unicode="&#x115;" horiz-adv-x="512" 
d="M262 -11q-75 0 -124 33.5t-69 96.5q-8 23 -12 50.5t-4 70.5t3.5 70.5t11.5 50.5q20 63 69 96t118 33q71 0 119.5 -33t68.5 -95q16 -47 16 -116q0 -14 -9 -23t-24 -9h-281q-6 0 -6 -6q0 -17 1.5 -30.5t6.5 -27.5q14 -42 45 -62.5t76 -20.5q35 0 61.5 10.5t53.5 30.5
q15 12 29 12q15 0 25 -10t10 -25q0 -17 -13 -30q-31 -29 -73.5 -47.5t-98.5 -18.5zM367 281q6 0 6 6q0 33 -7 54q-12 36 -40.5 55.5t-69.5 19.5t-69.5 -19.5t-40.5 -55.5q-7 -21 -7 -54q0 -6 6 -6h222zM256 561q-30 0 -54 9t-41 24t-26.5 33.5t-9.5 37.5q0 11 6.5 18.5
t18.5 7.5q11 0 17.5 -6.5t11.5 -17.5q21 -46 77 -46t77 46q5 11 11.5 17.5t17.5 6.5q12 0 18.5 -7.5t6.5 -18.5q0 -19 -9.5 -37.5t-26.5 -33.5t-41 -24t-54 -9z" />
    <glyph glyph-name="Edotaccent" unicode="&#x116;" horiz-adv-x="563" 
d="M84 640q0 18 10.5 29t29.5 11h350q20 0 32 -12t12 -29q0 -18 -12 -30t-32 -12h-295q-6 0 -6 -6v-200q0 -6 6 -6h246q20 0 32 -12t12 -29q0 -18 -12 -30t-32 -12h-246q-6 0 -6 -6v-207q0 -6 6 -6h295q20 0 32 -12t12 -29q0 -18 -12 -30t-32 -12h-350q-19 0 -29.5 11
t-10.5 29v600zM298 766q-23 0 -39 16t-16 39t16 39t39 16t39 -16t16 -39t-16 -39t-39 -16z" />
    <glyph glyph-name="edotaccent" unicode="&#x117;" horiz-adv-x="512" 
d="M262 -11q-75 0 -124 33.5t-69 96.5q-8 23 -12 50.5t-4 70.5t3.5 70.5t11.5 50.5q20 63 69 96t118 33q71 0 119.5 -33t68.5 -95q16 -47 16 -116q0 -14 -9 -23t-24 -9h-281q-6 0 -6 -6q0 -17 1.5 -30.5t6.5 -27.5q14 -42 45 -62.5t76 -20.5q35 0 61.5 10.5t53.5 30.5
q15 12 29 12q15 0 25 -10t10 -25q0 -17 -13 -30q-31 -29 -73.5 -47.5t-98.5 -18.5zM367 281q6 0 6 6q0 33 -7 54q-12 36 -40.5 55.5t-69.5 19.5t-69.5 -19.5t-40.5 -55.5q-7 -21 -7 -54q0 -6 6 -6h222zM256 575q-23 0 -39 16t-16 39t16 39t39 16t39 -16t16 -39t-16 -39
t-39 -16z" />
    <glyph glyph-name="Eogonek" unicode="&#x118;" horiz-adv-x="563" 
d="M467 0q-43 -32 -57 -54t-14 -36q0 -24 23 -24q10 0 19 4q7 3 16 3q12 0 19.5 -8.5t7.5 -20.5q0 -18 -16 -28q-11 -7 -26.5 -11t-31.5 -4q-38 0 -60 20.5t-22 56.5q0 25 13 50t46 52h-260q-19 0 -29.5 11t-10.5 29v600q0 18 10.5 29t29.5 11h350q20 0 32 -12t12 -29
q0 -18 -12 -30t-32 -12h-295q-6 0 -6 -6v-200q0 -6 6 -6h246q20 0 32 -12t12 -29q0 -18 -12 -30t-32 -12h-246q-6 0 -6 -6v-207q0 -6 6 -6h295q20 0 32 -12t12 -29q0 -18 -12 -30t-32 -12h-7z" />
    <glyph glyph-name="eogonek" unicode="&#x119;" horiz-adv-x="512" 
d="M262 -11q-75 0 -124 33.5t-69 96.5q-8 23 -12 50.5t-4 70.5t3.5 70.5t11.5 50.5q20 63 69 96t118 33q71 0 119.5 -33t68.5 -95q16 -47 16 -116q0 -14 -9 -23t-24 -9h-281q-6 0 -6 -6q0 -17 1.5 -30.5t6.5 -27.5q14 -42 45 -62.5t76 -20.5q35 0 61.5 10.5t53.5 30.5
q15 12 29 12q15 0 25 -10t10 -25q0 -17 -13 -30q-10 -10 -27 -22q-28 -27 -45 -47t-26 -34t-11.5 -24t-2.5 -18q0 -24 24 -24q10 0 19 4q7 3 15 3q13 0 20.5 -8.5t7.5 -20.5q0 -18 -17 -28q-23 -15 -57 -15q-38 0 -60.5 20.5t-22.5 56.5q0 21 10 45t32 48q-8 -1 -15.5 -1.5
t-15.5 -0.5zM367 281q6 0 6 6q0 33 -7 54q-12 36 -40.5 55.5t-69.5 19.5t-69.5 -19.5t-40.5 -55.5q-7 -21 -7 -54q0 -6 6 -6h222z" />
    <glyph glyph-name="Ecaron" unicode="&#x11a;" horiz-adv-x="563" 
d="M84 640q0 18 10.5 29t29.5 11h350q20 0 32 -12t12 -29q0 -18 -12 -30t-32 -12h-295q-6 0 -6 -6v-200q0 -6 6 -6h246q20 0 32 -12t12 -29q0 -18 -12 -30t-32 -12h-246q-6 0 -6 -6v-207q0 -6 6 -6h295q20 0 32 -12t12 -29q0 -18 -12 -30t-32 -12h-350q-19 0 -29.5 11
t-10.5 29v600zM368 892q12 13 25 13q11 0 19 -7.5t8 -18.5q0 -10 -8 -20l-69 -87q-11 -14 -21 -20.5t-24 -6.5t-24 6.5t-21 20.5l-69 87q-8 10 -8 20q0 11 8 18.5t19 7.5q13 0 25 -13l69 -78h2z" />
    <glyph glyph-name="ecaron" unicode="&#x11b;" horiz-adv-x="512" 
d="M262 -11q-75 0 -124 33.5t-69 96.5q-8 23 -12 50.5t-4 70.5t3.5 70.5t11.5 50.5q20 63 69 96t118 33q71 0 119.5 -33t68.5 -95q16 -47 16 -116q0 -14 -9 -23t-24 -9h-281q-6 0 -6 -6q0 -17 1.5 -30.5t6.5 -27.5q14 -42 45 -62.5t76 -20.5q35 0 61.5 10.5t53.5 30.5
q15 12 29 12q15 0 25 -10t10 -25q0 -17 -13 -30q-31 -29 -73.5 -47.5t-98.5 -18.5zM367 281q6 0 6 6q0 33 -7 54q-12 36 -40.5 55.5t-69.5 19.5t-69.5 -19.5t-40.5 -55.5q-7 -21 -7 -54q0 -6 6 -6h222zM326 694q12 13 25 13q11 0 19 -7.5t8 -18.5q0 -10 -8 -20l-69 -87
q-11 -14 -21 -20.5t-24 -6.5t-24 6.5t-21 20.5l-69 87q-8 10 -8 20q0 11 8 18.5t19 7.5q13 0 25 -13l69 -78h2z" />
    <glyph glyph-name="Gcircumflex" unicode="&#x11c;" horiz-adv-x="619" 
d="M79 150q-6 18 -9.5 36.5t-6 40.5t-3 49.5t-0.5 63.5t0.5 63.5t3 49.5t6 40.5t9.5 36.5q26 78 84 119.5t146 41.5q77 0 131.5 -30t80.5 -80q7 -14 7 -27q0 -19 -12 -30t-29 -11q-25 0 -40 25q-45 70 -138 70q-59 0 -93.5 -28.5t-49.5 -76.5q-4 -12 -7 -26.5t-5 -33.5
t-3 -44t-1 -59t1 -59t3 -44t5 -33.5t7 -26.5q15 -48 49.5 -76.5t93.5 -28.5q56 0 94 25.5t54 75.5q8 23 10.5 49.5t2.5 51.5q0 6 -6 6h-104q-20 0 -32 12t-12 30q0 17 12 29t32 12h158q19 0 30 -11t11 -30v-19q0 -37 -4.5 -78t-14.5 -72q-26 -80 -85 -122t-146 -42
q-88 0 -146 41.5t-84 119.5zM310 836h-2l-69 -78q-12 -13 -25 -13q-11 0 -19 7.5t-8 18.5q0 10 8 20l69 87q11 14 21 20.5t24 6.5t24 -6.5t21 -20.5l69 -87q8 -10 8 -20q0 -11 -8 -18.5t-19 -7.5q-13 0 -25 13z" />
    <glyph glyph-name="gcircumflex" unicode="&#x11d;" horiz-adv-x="530" 
d="M364 427v12q0 21 12 33t30 12t30 -12t12 -33v-415q0 -108 -54.5 -161.5t-154.5 -53.5q-48 0 -89 17t-63 40q-12 12 -12 27q0 17 10.5 28t27.5 11q16 0 34 -13q20 -15 44.5 -23.5t50.5 -8.5q58 0 90 30.5t32 99.5v52h-1q-18 -30 -49.5 -46.5t-84.5 -16.5q-60 0 -101.5 31
t-59.5 88q-8 26 -12 54.5t-4 68.5t4 68.5t12 54.5q18 57 59.5 88t101.5 31q54 0 85.5 -18t48.5 -45h1zM251 83q76 0 102 75q11 32 11 90q0 57 -11 89q-26 75 -102 75q-77 0 -102 -75q-11 -32 -11 -89q0 -58 11 -90q25 -75 102 -75zM255 639h-2l-69 -78q-12 -13 -25 -13
q-11 0 -19 7.5t-8 18.5q0 10 8 20l69 87q11 14 21 20.5t24 6.5t24 -6.5t21 -20.5l69 -87q8 -10 8 -20q0 -11 -8 -18.5t-19 -7.5q-13 0 -25 13z" />
    <glyph glyph-name="Gbreve" unicode="&#x11e;" horiz-adv-x="619" 
d="M79 150q-6 18 -9.5 36.5t-6 40.5t-3 49.5t-0.5 63.5t0.5 63.5t3 49.5t6 40.5t9.5 36.5q26 78 84 119.5t146 41.5q77 0 131.5 -30t80.5 -80q7 -14 7 -27q0 -19 -12 -30t-29 -11q-25 0 -40 25q-45 70 -138 70q-59 0 -93.5 -28.5t-49.5 -76.5q-4 -12 -7 -26.5t-5 -33.5
t-3 -44t-1 -59t1 -59t3 -44t5 -33.5t7 -26.5q15 -48 49.5 -76.5t93.5 -28.5q56 0 94 25.5t54 75.5q8 23 10.5 49.5t2.5 51.5q0 6 -6 6h-104q-20 0 -32 12t-12 30q0 17 12 29t32 12h158q19 0 30 -11t11 -30v-19q0 -37 -4.5 -78t-14.5 -72q-26 -80 -85 -122t-146 -42
q-88 0 -146 41.5t-84 119.5zM308 761q-30 0 -54 9t-41 24t-26.5 33.5t-9.5 37.5q0 11 6.5 18.5t18.5 7.5q11 0 17.5 -6.5t11.5 -17.5q21 -46 77 -46t77 46q5 11 11.5 17.5t17.5 6.5q12 0 18.5 -7.5t6.5 -18.5q0 -19 -9.5 -37.5t-26.5 -33.5t-41 -24t-54 -9z" />
    <glyph glyph-name="gbreve" unicode="&#x11f;" horiz-adv-x="530" 
d="M364 427v12q0 21 12 33t30 12t30 -12t12 -33v-415q0 -108 -54.5 -161.5t-154.5 -53.5q-48 0 -89 17t-63 40q-12 12 -12 27q0 17 10.5 28t27.5 11q16 0 34 -13q20 -15 44.5 -23.5t50.5 -8.5q58 0 90 30.5t32 99.5v52h-1q-18 -30 -49.5 -46.5t-84.5 -16.5q-60 0 -101.5 31
t-59.5 88q-8 26 -12 54.5t-4 68.5t4 68.5t12 54.5q18 57 59.5 88t101.5 31q54 0 85.5 -18t48.5 -45h1zM251 83q76 0 102 75q11 32 11 90q0 57 -11 89q-26 75 -102 75q-77 0 -102 -75q-11 -32 -11 -89q0 -58 11 -90q25 -75 102 -75zM255 561q-30 0 -54 9t-41 24t-26.5 33.5
t-9.5 37.5q0 11 6.5 18.5t18.5 7.5q11 0 17.5 -6.5t11.5 -17.5q21 -46 77 -46t77 46q5 11 11.5 17.5t17.5 6.5q12 0 18.5 -7.5t6.5 -18.5q0 -19 -9.5 -37.5t-26.5 -33.5t-41 -24t-54 -9z" />
    <glyph glyph-name="Gdotaccent" unicode="&#x120;" horiz-adv-x="619" 
d="M79 150q-6 18 -9.5 36.5t-6 40.5t-3 49.5t-0.5 63.5t0.5 63.5t3 49.5t6 40.5t9.5 36.5q26 78 84 119.5t146 41.5q77 0 131.5 -30t80.5 -80q7 -14 7 -27q0 -19 -12 -30t-29 -11q-25 0 -40 25q-45 70 -138 70q-59 0 -93.5 -28.5t-49.5 -76.5q-4 -12 -7 -26.5t-5 -33.5
t-3 -44t-1 -59t1 -59t3 -44t5 -33.5t7 -26.5q15 -48 49.5 -76.5t93.5 -28.5q56 0 94 25.5t54 75.5q8 23 10.5 49.5t2.5 51.5q0 6 -6 6h-104q-20 0 -32 12t-12 30q0 17 12 29t32 12h158q19 0 30 -11t11 -30v-19q0 -37 -4.5 -78t-14.5 -72q-26 -80 -85 -122t-146 -42
q-88 0 -146 41.5t-84 119.5zM309 766q-23 0 -39 16t-16 39t16 39t39 16t39 -16t16 -39t-16 -39t-39 -16z" />
    <glyph glyph-name="gdotaccent" unicode="&#x121;" horiz-adv-x="530" 
d="M364 427v12q0 21 12 33t30 12t30 -12t12 -33v-415q0 -108 -54.5 -161.5t-154.5 -53.5q-48 0 -89 17t-63 40q-12 12 -12 27q0 17 10.5 28t27.5 11q16 0 34 -13q20 -15 44.5 -23.5t50.5 -8.5q58 0 90 30.5t32 99.5v52h-1q-18 -30 -49.5 -46.5t-84.5 -16.5q-60 0 -101.5 31
t-59.5 88q-8 26 -12 54.5t-4 68.5t4 68.5t12 54.5q18 57 59.5 88t101.5 31q54 0 85.5 -18t48.5 -45h1zM251 83q76 0 102 75q11 32 11 90q0 57 -11 89q-26 75 -102 75q-77 0 -102 -75q-11 -32 -11 -89q0 -58 11 -90q25 -75 102 -75zM255 575q-23 0 -39 16t-16 39t16 39t39 16
t39 -16t16 -39t-16 -39t-39 -16z" />
    <glyph glyph-name="Gcommaaccent" unicode="&#x122;" horiz-adv-x="619" 
d="M79 150q-6 18 -9.5 36.5t-6 40.5t-3 49.5t-0.5 63.5t0.5 63.5t3 49.5t6 40.5t9.5 36.5q26 78 84 119.5t146 41.5q77 0 131.5 -30t80.5 -80q7 -14 7 -27q0 -19 -12 -30t-29 -11q-25 0 -40 25q-45 70 -138 70q-59 0 -93.5 -28.5t-49.5 -76.5q-4 -12 -7 -26.5t-5 -33.5
t-3 -44t-1 -59t1 -59t3 -44t5 -33.5t7 -26.5q15 -48 49.5 -76.5t93.5 -28.5q56 0 94 25.5t54 75.5q8 23 10.5 49.5t2.5 51.5q0 6 -6 6h-104q-20 0 -32 12t-12 30q0 17 12 29t32 12h158q19 0 30 -11t11 -30v-19q0 -37 -4.5 -78t-14.5 -72q-26 -80 -85 -122t-146 -42
q-88 0 -146 41.5t-84 119.5zM317 -189q-9 -31 -36 -31q-17 0 -28 10t-11 27q0 8 3 17l28 87q9 30 36 30q17 0 28.5 -9t11.5 -26q0 -10 -3 -19z" />
    <glyph glyph-name="gcommaaccent" unicode="&#x123;" horiz-adv-x="530" 
d="M364 427v12q0 21 12 33t30 12t30 -12t12 -33v-415q0 -108 -54.5 -161.5t-154.5 -53.5q-48 0 -89 17t-63 40q-12 12 -12 27q0 17 10.5 28t27.5 11q16 0 34 -13q20 -15 44.5 -23.5t50.5 -8.5q58 0 90 30.5t32 99.5v52h-1q-18 -30 -49.5 -46.5t-84.5 -16.5q-60 0 -101.5 31
t-59.5 88q-8 26 -12 54.5t-4 68.5t4 68.5t12 54.5q18 57 59.5 88t101.5 31q54 0 85.5 -18t48.5 -45h1zM251 83q76 0 102 75q11 32 11 90q0 57 -11 89q-26 75 -102 75q-77 0 -102 -75q-11 -32 -11 -89q0 -58 11 -90q25 -75 102 -75zM283 592q-11 -31 -36 -31q-16 0 -27.5 9
t-11.5 26q0 10 3 19l29 90q11 31 36 31q16 0 27 -9.5t11 -26.5q0 -5 -1 -10t-2 -8z" />
    <glyph glyph-name="Hcircumflex" unicode="&#x124;" horiz-adv-x="653" 
d="M84 637q0 23 12.5 35.5t32.5 12.5t32 -12.5t12 -35.5v-246q0 -6 6 -6h295q6 0 6 6v246q0 23 12.5 35.5t32.5 12.5t32 -12.5t12 -35.5v-594q0 -23 -12 -35.5t-32 -12.5t-32.5 12.5t-12.5 35.5v253q0 6 -6 6h-295q-6 0 -6 -6v-253q0 -23 -12 -35.5t-32 -12.5t-32.5 12.5
t-12.5 35.5v594zM327 836h-2l-69 -78q-12 -13 -25 -13q-11 0 -19 7.5t-8 18.5q0 10 8 20l69 87q11 14 21 20.5t24 6.5t24 -6.5t21 -20.5l69 -87q8 -10 8 -20q0 -11 -8 -18.5t-19 -7.5q-13 0 -25 13z" />
    <glyph glyph-name="hcircumflex" unicode="&#x125;" horiz-adv-x="545" 
d="M82 640q0 21 12 33t30 12t30 -12t12 -33v-215h1q17 28 51 46.5t83 18.5q78 0 122 -49t44 -131v-270q0 -21 -12 -33t-30 -12t-30 12t-12 33v250q0 58 -26.5 90t-80.5 32q-49 0 -79.5 -31.5t-30.5 -85.5v-255q0 -21 -12 -33t-30 -12t-30 12t-12 33v600zM278 836h-2l-69 -78
q-12 -13 -25 -13q-11 0 -19 7.5t-8 18.5q0 10 8 20l69 87q11 14 21 20.5t24 6.5t24 -6.5t21 -20.5l69 -87q8 -10 8 -20q0 -11 -8 -18.5t-19 -7.5q-13 0 -25 13z" />
    <glyph glyph-name="Hbar" unicode="&#x126;" horiz-adv-x="653" 
d="M480 637q0 23 12.5 35.5t32.5 12.5t32 -12.5t12 -35.5v-67q0 -6 6 -6h19q17 0 25.5 -10t8.5 -24t-8.5 -24t-25.5 -10h-19q-6 0 -6 -6v-447q0 -23 -12 -35.5t-32 -12.5t-32.5 12.5t-12.5 35.5v253q0 6 -6 6h-295q-6 0 -6 -6v-253q0 -23 -12 -35.5t-32 -12.5t-32.5 12.5
t-12.5 35.5v447q0 6 -6 6h-19q-17 0 -25.5 10t-8.5 24t8.5 24t25.5 10h19q6 0 6 6v67q0 23 12.5 35.5t32.5 12.5t32 -12.5t12 -35.5v-67q0 -6 6 -6h295q6 0 6 6v67zM474 385q6 0 6 6v99q0 6 -6 6h-295q-6 0 -6 -6v-99q0 -6 6 -6h295z" />
    <glyph glyph-name="hbar" unicode="&#x127;" horiz-adv-x="545" 
d="M82 640q0 21 12 33t30 12t30 -12t12 -33v-11q0 -6 6 -6h99q17 0 27 -10t10 -24q0 -15 -10 -24.5t-27 -9.5h-99q-6 0 -6 -6v-124h1q17 28 51 46.5t83 18.5q78 0 122 -49t44 -131v-270q0 -21 -12 -33t-30 -12t-30 12t-12 33v250q0 58 -26.5 90t-80.5 32q-49 0 -79.5 -31.5
t-30.5 -85.5v-255q0 -21 -12 -33t-30 -12t-30 12t-12 33v509q0 6 -6 6h-9q-17 0 -27 9.5t-10 24.5q0 14 10 24t27 10h9q6 0 6 6v11z" />
    <glyph glyph-name="Itilde" unicode="&#x128;" horiz-adv-x="257" 
d="M84 637q0 23 12.5 35.5t32.5 12.5t32 -12.5t12 -35.5v-594q0 -23 -12 -35.5t-32 -12.5t-32.5 12.5t-12.5 35.5v594zM76 809q-11 0 -19 -5t-18 -18q-11 -13 -25 -13q-13 0 -21 7.5t-8 19.5t8 23q18 26 38 38t42 12q19 0 33 -5.5t31 -16.5t27 -15t18 -4q11 0 19 5t18 18
q11 13 25 13q13 0 21 -7.5t8 -19.5t-8 -23q-18 -26 -38 -38t-42 -12q-19 0 -33 5.5t-31 16.5t-27 15t-18 4z" />
    <glyph glyph-name="itilde" unicode="&#x129;" horiz-adv-x="248" 
d="M82 439q0 21 12 33t30 12t30 -12t12 -33v-399q0 -21 -12 -33t-30 -12t-30 12t-12 33v399zM72 621q-11 0 -19 -5t-18 -18q-11 -13 -25 -13q-13 0 -21 7.5t-8 19.5t8 23q18 26 38 38t42 12q19 0 33 -5.5t31 -16.5t27 -15t18 -4q11 0 19 5t18 18q11 13 25 13q13 0 21 -7.5
t8 -19.5t-8 -23q-18 -26 -38 -38t-42 -12q-19 0 -33 5.5t-31 16.5t-27 15t-18 4z" />
    <glyph glyph-name="Imacron" unicode="&#x12a;" horiz-adv-x="257" 
d="M84 637q0 23 12.5 35.5t32.5 12.5t32 -12.5t12 -35.5v-594q0 -23 -12 -35.5t-32 -12.5t-32.5 12.5t-12.5 35.5v594zM21 790q-17 0 -26 9t-9 23t9 23.5t26 9.5h218q17 0 26 -9.5t9 -23.5t-9 -23t-26 -9h-218z" />
    <glyph glyph-name="imacron" unicode="&#x12b;" horiz-adv-x="248" 
d="M82 439q0 21 12 33t30 12t30 -12t12 -33v-399q0 -21 -12 -33t-30 -12t-30 12t-12 33v399zM16 601q-17 0 -26 9t-9 23t9 23.5t26 9.5h218q17 0 26 -9.5t9 -23.5t-9 -23t-26 -9h-218z" />
    <glyph glyph-name="Ibreve" unicode="&#x12c;" horiz-adv-x="257" 
d="M84 637q0 23 12.5 35.5t32.5 12.5t32 -12.5t12 -35.5v-594q0 -23 -12 -35.5t-32 -12.5t-32.5 12.5t-12.5 35.5v594zM130 761q-30 0 -54 9t-41 24t-26.5 33.5t-9.5 37.5q0 11 6.5 18.5t18.5 7.5q11 0 17.5 -6.5t11.5 -17.5q21 -46 77 -46t77 46q5 11 11.5 17.5t17.5 6.5
q12 0 18.5 -7.5t6.5 -18.5q0 -19 -9.5 -37.5t-26.5 -33.5t-41 -24t-54 -9z" />
    <glyph glyph-name="ibreve" unicode="&#x12d;" horiz-adv-x="248" 
d="M82 439q0 21 12 33t30 12t30 -12t12 -33v-399q0 -21 -12 -33t-30 -12t-30 12t-12 33v399zM125 561q-30 0 -54 9t-41 24t-26.5 33.5t-9.5 37.5q0 11 6.5 18.5t18.5 7.5q11 0 17.5 -6.5t11.5 -17.5q21 -46 77 -46t77 46q5 11 11.5 17.5t17.5 6.5q12 0 18.5 -7.5t6.5 -18.5
q0 -19 -9.5 -37.5t-26.5 -33.5t-41 -24t-54 -9z" />
    <glyph glyph-name="Iogonek" unicode="&#x12e;" horiz-adv-x="257" 
d="M84 637q0 23 12.5 35.5t32.5 12.5t32 -12.5t12 -35.5v-594q0 -18 -5 -29t-16 -22q-31 -32 -41.5 -49t-10.5 -33q0 -24 24 -24q9 0 18 4q9 3 16 3q12 0 19.5 -8.5t7.5 -20.5q0 -19 -16 -28q-23 -15 -57 -15q-38 0 -60.5 20.5t-22.5 56.5q0 25 13.5 51.5t47.5 59.5
q-2 4 -4 10t-2 15v603z" />
    <glyph glyph-name="iogonek" unicode="&#x12f;" horiz-adv-x="248" 
d="M124 575q-23 0 -39 16t-16 39t16 39t39 16t39 -16t16 -39t-16 -39t-39 -16zM23 -102q0 26 14.5 55.5t48.5 61.5q-2 5 -3 12.5t-1 12.5v399q0 21 12 33t30 12t30 -12t12 -33v-399q0 -14 -3 -23.5t-14 -20.5q-32 -32 -43.5 -50.5t-11.5 -35.5q0 -24 23 -24q10 0 19 4
q7 3 16 3q12 0 19.5 -8.5t7.5 -20.5q0 -18 -16 -28q-11 -7 -26 -11t-32 -4q-38 0 -60 20.5t-22 56.5z" />
    <glyph glyph-name="Idotaccent" unicode="&#x130;" horiz-adv-x="257" 
d="M84 637q0 23 12.5 35.5t32.5 12.5t32 -12.5t12 -35.5v-594q0 -23 -12 -35.5t-32 -12.5t-32.5 12.5t-12.5 35.5v594zM129 766q-23 0 -39 16t-16 39t16 39t39 16t39 -16t16 -39t-16 -39t-39 -16z" />
    <glyph glyph-name="dotlessi" unicode="&#x131;" horiz-adv-x="248" 
d="M82 439q0 21 12 33t30 12t30 -12t12 -33v-399q0 -21 -12 -33t-30 -12t-30 12t-12 33v399z" />
    <glyph glyph-name="Jcircumflex" unicode="&#x134;" horiz-adv-x="489" 
d="M52 39q-15 13 -15 33q0 17 11.5 28.5t28.5 11.5q14 0 32 -12q19 -12 42 -20t47 -8q57 0 90 34t33 112v419q0 23 12.5 35.5t32.5 12.5t32 -12.5t12 -35.5v-419q0 -114 -57.5 -171.5t-156.5 -57.5q-44 0 -82.5 15t-61.5 35zM367 836h-2l-69 -78q-12 -13 -25 -13
q-11 0 -19 7.5t-8 18.5q0 10 8 20l69 87q11 14 21 20.5t24 6.5t24 -6.5t21 -20.5l69 -87q8 -10 8 -20q0 -11 -8 -18.5t-19 -7.5q-13 0 -25 13z" />
    <glyph glyph-name="jcircumflex" unicode="&#x135;" horiz-adv-x="248" 
d="M82 439q0 21 12 33t30 12t30 -12t12 -33v-475q0 -77 -34.5 -110.5t-103.5 -33.5q-20 0 -30 11t-10 28t9.5 27t27.5 12q33 3 45 15.5t12 49.5v476zM126 639h-2l-69 -78q-12 -13 -25 -13q-11 0 -19 7.5t-8 18.5q0 10 8 20l69 87q11 14 21 20.5t24 6.5t24 -6.5t21 -20.5
l69 -87q8 -10 8 -20q0 -11 -8 -18.5t-19 -7.5q-13 0 -25 13z" />
    <glyph glyph-name="Kcommaaccent" unicode="&#x136;" horiz-adv-x="597" 
d="M84 637q0 23 12.5 35.5t32.5 12.5t32 -12.5t12 -35.5v-324l290 353q7 8 16.5 13.5t20.5 5.5q16 0 28 -11t12 -28q0 -15 -12 -29l-174 -206l199 -346q9 -15 9 -28q0 -17 -11.5 -29.5t-30.5 -12.5q-27 0 -42 26l-183 321l-122 -148v-151q0 -23 -12 -35.5t-32 -12.5
t-32.5 12.5t-12.5 35.5v594zM316 -189q-9 -31 -36 -31q-17 0 -28 10t-11 27q0 8 3 17l28 87q9 30 36 30q17 0 28.5 -9t11.5 -26q0 -10 -3 -19z" />
    <glyph glyph-name="kcommaaccent" unicode="&#x137;" horiz-adv-x="511" 
d="M82 640q0 21 12 33t30 12t30 -12t12 -33v-392l196 221q13 15 32 15q14 0 24.5 -9.5t10.5 -25.5q0 -15 -12 -28l-111 -121l151 -242q7 -11 7 -25q0 -16 -11.5 -27t-28.5 -11q-24 0 -39 24l-135 221l-84 -94v-106q0 -21 -12 -33t-30 -12t-30 12t-12 33v600zM270 -189
q-9 -31 -36 -31q-17 0 -28 10t-11 27q0 8 3 17l28 87q9 30 36 30q17 0 28.5 -9t11.5 -26q0 -10 -3 -19z" />
    <glyph glyph-name="kgreenlandic" unicode="&#x138;" horiz-adv-x="511" 
d="M82 439q0 21 12 33t30 12t30 -12t12 -33v-191l196 221q13 15 32 15q14 0 24.5 -9.5t10.5 -25.5q0 -15 -12 -28l-111 -121l151 -242q7 -11 7 -25q0 -16 -11.5 -27t-28.5 -11q-24 0 -39 24l-135 221l-84 -94v-106q0 -21 -12 -33t-30 -12t-30 12t-12 33v399z" />
    <glyph glyph-name="Lacute" unicode="&#x139;" horiz-adv-x="538" 
d="M84 637q0 23 12 35.5t32 12.5t32.5 -12.5t12.5 -35.5v-548q0 -6 6 -6h295q20 0 32 -12t12 -29q0 -18 -12 -30t-32 -12h-347q-20 0 -31.5 12t-11.5 32v593zM185 890q11 13 27 13q14 0 24 -9.5t10 -23.5t-10 -26l-69 -76q-14 -15 -30 -15q-13 0 -22.5 9t-9.5 23t11 27z" />
    <glyph glyph-name="lacute" unicode="&#x13a;" horiz-adv-x="279" 
d="M197 -5q-65 0 -91 31.5t-26 96.5v517q0 21 12 33t30 12t30 -12t12 -33v-512q0 -30 10.5 -42.5t35.5 -12.5q18 0 28.5 -11t10.5 -28t-11 -28t-32 -11h-9zM186 890q11 13 27 13q14 0 24 -9.5t10 -23.5t-10 -26l-69 -76q-14 -15 -30 -15q-13 0 -22.5 9t-9.5 23t11 27z" />
    <glyph glyph-name="Lcommaaccent" unicode="&#x13b;" horiz-adv-x="538" 
d="M84 637q0 23 12 35.5t32 12.5t32.5 -12.5t12.5 -35.5v-548q0 -6 6 -6h295q20 0 32 -12t12 -29q0 -18 -12 -30t-32 -12h-347q-20 0 -31.5 12t-11.5 32v593zM306 -189q-9 -31 -36 -31q-17 0 -28 10t-11 27q0 8 3 17l28 87q9 30 36 30q17 0 28.5 -9t11.5 -26q0 -10 -3 -19z
" />
    <glyph glyph-name="lcommaaccent" unicode="&#x13c;" horiz-adv-x="279" 
d="M197 -5q-65 0 -91 31.5t-26 96.5v517q0 21 12 33t30 12t30 -12t12 -33v-512q0 -30 10.5 -42.5t35.5 -12.5q18 0 28.5 -11t10.5 -28t-11 -28t-32 -11h-9zM173 -189q-9 -31 -36 -31q-17 0 -28 10t-11 27q0 8 3 17l28 87q9 30 36 30q17 0 28.5 -9t11.5 -26q0 -10 -3 -19z
" />
    <glyph glyph-name="Lcaron" unicode="&#x13d;" horiz-adv-x="538" 
d="M84 637q0 23 12 35.5t32 12.5t32.5 -12.5t12.5 -35.5v-548q0 -6 6 -6h295q20 0 32 -12t12 -29q0 -18 -12 -30t-32 -12h-347q-20 0 -31.5 12t-11.5 32v593zM313 547q-11 -30 -36 -30q-17 0 -27.5 9.5t-10.5 26.5q0 9 3 17l26 83q10 30 36 30q17 0 28 -9.5t11 -26.5
q0 -10 -3 -17z" />
    <glyph glyph-name="lcaron" unicode="&#x13e;" horiz-adv-x="279" 
d="M197 -5q-65 0 -91 31.5t-26 96.5v517q0 21 12 33t30 12t30 -12t12 -33v-512q0 -30 10.5 -42.5t35.5 -12.5q18 0 28.5 -11t10.5 -28t-11 -28t-32 -11h-9zM267 547q-11 -30 -36 -30q-17 0 -27.5 9.5t-10.5 26.5q0 9 3 17l26 83q10 30 36 30q17 0 28 -9.5t11 -26.5
q0 -10 -3 -17z" />
    <glyph glyph-name="Ldot" unicode="&#x13f;" horiz-adv-x="538" 
d="M84 637q0 23 12 35.5t32 12.5t32.5 -12.5t12.5 -35.5v-548q0 -6 6 -6h295q20 0 32 -12t12 -29q0 -18 -12 -30t-32 -12h-347q-20 0 -31.5 12t-11.5 32v593zM398 269q-23 0 -40 17t-17 40t17 40t40 17t40 -17t17 -40t-17 -40t-40 -17z" />
    <glyph glyph-name="ldot" unicode="&#x140;" horiz-adv-x="330" 
d="M197 -5q-65 0 -91 31.5t-26 96.5v517q0 21 12 33t30 12t30 -12t12 -33v-512q0 -30 10.5 -42.5t35.5 -12.5q18 0 28.5 -11t10.5 -28t-11 -28t-32 -11h-9zM287 278q-23 0 -40 17t-17 40t17 40t40 17t40 -17t17 -40t-17 -40t-40 -17z" />
    <glyph glyph-name="Lslash" unicode="&#x141;" horiz-adv-x="538" 
d="M67 266q-12 -6 -23 -6q-14 0 -24 9.5t-10 26.5q0 21 24 34l50 25v282q0 23 12 35.5t32 12.5t32.5 -12.5t12.5 -35.5v-240l107 55q12 6 23 6q14 0 24 -9.5t10 -26.5q0 -21 -24 -34l-140 -72v-227q0 -6 6 -6h295q20 0 32 -12t12 -29q0 -18 -12 -30t-32 -12h-347
q-20 0 -31.5 12t-11.5 32v230z" />
    <glyph glyph-name="lslash" unicode="&#x142;" horiz-adv-x="279" 
d="M80 375v265q0 21 12 33t30 12t30 -12t12 -33v-222l29 15q10 6 20 6q14 0 23 -9.5t9 -23.5q0 -21 -19 -31l-62 -32v-215q0 -30 10.5 -42.5t35.5 -12.5q18 0 28.5 -11t10.5 -28t-11 -28t-32 -11h-9q-65 0 -91 31.5t-26 96.5v177q-11 -7 -21 -7q-14 0 -23 9.5t-9 23.5
q0 21 19 31z" />
    <glyph glyph-name="Nacute" unicode="&#x143;" horiz-adv-x="654" 
d="M84 631q0 25 13 39.5t36 14.5q20 0 33.5 -12t26.5 -34l290 -479h4v480q0 21 11.5 33t29.5 12q19 0 30.5 -12t11.5 -33v-591q0 -25 -13 -39.5t-36 -14.5q-20 0 -34 12t-27 34l-290 477h-3v-478q0 -21 -11.5 -33t-29.5 -12q-19 0 -30.5 12t-11.5 33v591zM367 890
q11 13 27 13q14 0 24 -9.5t10 -23.5t-10 -26l-69 -76q-14 -15 -30 -15q-13 0 -22.5 9t-9.5 23t11 27z" />
    <glyph glyph-name="nacute" unicode="&#x144;" horiz-adv-x="544" 
d="M82 439q0 21 12 33t30 12t30 -12t12 -33v-14h1q17 28 51 46.5t83 18.5q78 0 122 -49t44 -131v-270q0 -21 -12 -33t-30 -12t-30 12t-12 33v250q0 58 -26.5 90t-80.5 32q-49 0 -79.5 -31.5t-30.5 -85.5v-255q0 -21 -12 -33t-30 -12t-30 12t-12 33v399zM263 549q-15 0 -24 9
t-9 23q0 11 7 24l56 86q11 17 30 17q14 0 24 -9t10 -23q0 -12 -8 -25l-58 -86q-12 -16 -28 -16z" />
    <glyph glyph-name="Ncommaaccent" unicode="&#x145;" horiz-adv-x="654" 
d="M84 631q0 25 13 39.5t36 14.5q20 0 33.5 -12t26.5 -34l290 -479h4v480q0 21 11.5 33t29.5 12q19 0 30.5 -12t11.5 -33v-591q0 -25 -13 -39.5t-36 -14.5q-20 0 -34 12t-27 34l-290 477h-3v-478q0 -21 -11.5 -33t-29.5 -12q-19 0 -30.5 12t-11.5 33v591zM348 -189
q-9 -31 -36 -31q-17 0 -28 10t-11 27q0 8 3 17l28 87q9 30 36 30q17 0 28.5 -9t11.5 -26q0 -10 -3 -19z" />
    <glyph glyph-name="ncommaaccent" unicode="&#x146;" horiz-adv-x="544" 
d="M82 439q0 21 12 33t30 12t30 -12t12 -33v-14h1q17 28 51 46.5t83 18.5q78 0 122 -49t44 -131v-270q0 -21 -12 -33t-30 -12t-30 12t-12 33v250q0 58 -26.5 90t-80.5 32q-49 0 -79.5 -31.5t-30.5 -85.5v-255q0 -21 -12 -33t-30 -12t-30 12t-12 33v399zM286 -189
q-9 -31 -36 -31q-17 0 -28 10t-11 27q0 8 3 17l28 87q9 30 36 30q17 0 28.5 -9t11.5 -26q0 -10 -3 -19z" />
    <glyph glyph-name="Ncaron" unicode="&#x147;" horiz-adv-x="654" 
d="M84 631q0 25 13 39.5t36 14.5q20 0 33.5 -12t26.5 -34l290 -479h4v480q0 21 11.5 33t29.5 12q19 0 30.5 -12t11.5 -33v-591q0 -25 -13 -39.5t-36 -14.5q-20 0 -34 12t-27 34l-290 477h-3v-478q0 -21 -11.5 -33t-29.5 -12q-19 0 -30.5 12t-11.5 33v591zM397 892
q12 13 25 13q11 0 19 -7.5t8 -18.5q0 -10 -8 -20l-69 -87q-11 -14 -21 -20.5t-24 -6.5t-24 6.5t-21 20.5l-69 87q-8 10 -8 20q0 11 8 18.5t19 7.5q13 0 25 -13l69 -78h2z" />
    <glyph glyph-name="ncaron" unicode="&#x148;" horiz-adv-x="544" 
d="M82 439q0 21 12 33t30 12t30 -12t12 -33v-14h1q17 28 51 46.5t83 18.5q78 0 122 -49t44 -131v-270q0 -21 -12 -33t-30 -12t-30 12t-12 33v250q0 58 -26.5 90t-80.5 32q-49 0 -79.5 -31.5t-30.5 -85.5v-255q0 -21 -12 -33t-30 -12t-30 12t-12 33v399zM342 694q12 13 25 13
q11 0 19 -7.5t8 -18.5q0 -10 -8 -20l-69 -87q-11 -14 -21 -20.5t-24 -6.5t-24 6.5t-21 20.5l-69 87q-8 10 -8 20q0 11 8 18.5t19 7.5q13 0 25 -13l69 -78h2z" />
    <glyph glyph-name="Eng" unicode="&#x14a;" horiz-adv-x="652" 
d="M407 -180q-20 0 -31.5 11.5t-11.5 29.5t11.5 29.5t31.5 11.5q38 1 58.5 19.5t20.5 59.5v19l-315 517h-3v-477q0 -21 -11.5 -33t-30.5 -12t-30.5 12t-11.5 33v591q0 25 13 39.5t36 14.5q20 0 33.5 -12t26.5 -34l289 -477h4v478q0 21 11.5 33t30.5 12t30.5 -12t11.5 -33
v-651q0 -90 -40.5 -129.5t-122.5 -39.5z" />
    <glyph glyph-name="eng" unicode="&#x14b;" horiz-adv-x="545" 
d="M330 -180q-20 0 -30.5 10.5t-10.5 27.5t10 27.5t28 12.5q33 3 44.5 16.5t11.5 48.5v327q0 58 -26.5 90t-80.5 32q-49 0 -79.5 -31.5t-30.5 -85.5v-255q0 -21 -12 -33t-30 -12t-30 12t-12 33v399q0 21 12 33t30 12t30 -12t12 -33v-14h1q17 28 51 46.5t83 18.5
q78 0 122 -49t44 -131v-346q0 -77 -32 -110.5t-105 -33.5z" />
    <glyph glyph-name="Omacron" unicode="&#x14c;" horiz-adv-x="619" 
d="M309 -11q-88 0 -146 41.5t-84 119.5q-6 18 -9.5 36.5t-6 40.5t-3 49.5t-0.5 63.5t0.5 63.5t3 49.5t6 40.5t9.5 36.5q26 78 84 119.5t146 41.5q89 0 147 -41.5t84 -119.5q6 -18 9.5 -36.5t6 -40.5t3 -49.5t0.5 -63.5t-0.5 -63.5t-3 -49.5t-6 -40.5t-9.5 -36.5
q-26 -78 -84 -119.5t-147 -41.5zM309 72q60 0 94.5 28.5t49.5 76.5q4 12 7 26.5t5 33.5t3 44t1 59t-1 59t-3 44t-5 33.5t-7 26.5q-15 48 -49.5 76.5t-94.5 28.5q-59 0 -93.5 -28.5t-49.5 -76.5q-4 -12 -7 -26.5t-5 -33.5t-3 -44t-1 -59t1 -59t3 -44t5 -33.5t7 -26.5
q15 -48 49.5 -76.5t93.5 -28.5zM199 790q-17 0 -26 9t-9 23t9 23.5t26 9.5h218q17 0 26 -9.5t9 -23.5t-9 -23t-26 -9h-218z" />
    <glyph glyph-name="omacron" unicode="&#x14d;" horiz-adv-x="516" 
d="M258 -11q-70 0 -119.5 34t-69.5 95q-8 25 -12 52.5t-4 69.5t4 69t12 52q20 62 69.5 95.5t119.5 33.5t119.5 -33.5t69.5 -95.5q8 -25 12 -52t4 -69t-4 -69.5t-12 -52.5q-20 -61 -69.5 -95t-119.5 -34zM258 67q40 0 68 19.5t40 55.5q6 20 8.5 41.5t2.5 56.5t-2.5 56
t-8.5 41q-12 36 -40 55.5t-68 19.5t-68 -19.5t-40 -55.5q-6 -20 -8.5 -41t-2.5 -56t2.5 -56.5t8.5 -41.5q12 -36 40 -55.5t68 -19.5zM149 601q-17 0 -26 9t-9 23t9 23.5t26 9.5h218q17 0 26 -9.5t9 -23.5t-9 -23t-26 -9h-218z" />
    <glyph glyph-name="Obreve" unicode="&#x14e;" horiz-adv-x="619" 
d="M309 -11q-88 0 -146 41.5t-84 119.5q-6 18 -9.5 36.5t-6 40.5t-3 49.5t-0.5 63.5t0.5 63.5t3 49.5t6 40.5t9.5 36.5q26 78 84 119.5t146 41.5q89 0 147 -41.5t84 -119.5q6 -18 9.5 -36.5t6 -40.5t3 -49.5t0.5 -63.5t-0.5 -63.5t-3 -49.5t-6 -40.5t-9.5 -36.5
q-26 -78 -84 -119.5t-147 -41.5zM309 72q60 0 94.5 28.5t49.5 76.5q4 12 7 26.5t5 33.5t3 44t1 59t-1 59t-3 44t-5 33.5t-7 26.5q-15 48 -49.5 76.5t-94.5 28.5q-59 0 -93.5 -28.5t-49.5 -76.5q-4 -12 -7 -26.5t-5 -33.5t-3 -44t-1 -59t1 -59t3 -44t5 -33.5t7 -26.5
q15 -48 49.5 -76.5t93.5 -28.5zM308 761q-30 0 -54 9t-41 24t-26.5 33.5t-9.5 37.5q0 11 6.5 18.5t18.5 7.5q11 0 17.5 -6.5t11.5 -17.5q21 -46 77 -46t77 46q5 11 11.5 17.5t17.5 6.5q12 0 18.5 -7.5t6.5 -18.5q0 -19 -9.5 -37.5t-26.5 -33.5t-41 -24t-54 -9z" />
    <glyph glyph-name="obreve" unicode="&#x14f;" horiz-adv-x="516" 
d="M258 -11q-70 0 -119.5 34t-69.5 95q-8 25 -12 52.5t-4 69.5t4 69t12 52q20 62 69.5 95.5t119.5 33.5t119.5 -33.5t69.5 -95.5q8 -25 12 -52t4 -69t-4 -69.5t-12 -52.5q-20 -61 -69.5 -95t-119.5 -34zM258 67q40 0 68 19.5t40 55.5q6 20 8.5 41.5t2.5 56.5t-2.5 56
t-8.5 41q-12 36 -40 55.5t-68 19.5t-68 -19.5t-40 -55.5q-6 -20 -8.5 -41t-2.5 -56t2.5 -56.5t8.5 -41.5q12 -36 40 -55.5t68 -19.5zM258 561q-30 0 -54 9t-41 24t-26.5 33.5t-9.5 37.5q0 11 6.5 18.5t18.5 7.5q11 0 17.5 -6.5t11.5 -17.5q21 -46 77 -46t77 46
q5 11 11.5 17.5t17.5 6.5q12 0 18.5 -7.5t6.5 -18.5q0 -19 -9.5 -37.5t-26.5 -33.5t-41 -24t-54 -9z" />
    <glyph glyph-name="Ohungarumlaut" unicode="&#x150;" horiz-adv-x="619" 
d="M309 -11q-88 0 -146 41.5t-84 119.5q-6 18 -9.5 36.5t-6 40.5t-3 49.5t-0.5 63.5t0.5 63.5t3 49.5t6 40.5t9.5 36.5q26 78 84 119.5t146 41.5q89 0 147 -41.5t84 -119.5q6 -18 9.5 -36.5t6 -40.5t3 -49.5t0.5 -63.5t-0.5 -63.5t-3 -49.5t-6 -40.5t-9.5 -36.5
q-26 -78 -84 -119.5t-147 -41.5zM309 72q60 0 94.5 28.5t49.5 76.5q4 12 7 26.5t5 33.5t3 44t1 59t-1 59t-3 44t-5 33.5t-7 26.5q-15 48 -49.5 76.5t-94.5 28.5q-59 0 -93.5 -28.5t-49.5 -76.5q-4 -12 -7 -26.5t-5 -33.5t-3 -44t-1 -59t1 -59t3 -44t5 -33.5t7 -26.5
q15 -48 49.5 -76.5t93.5 -28.5zM415 771q-12 -17 -29 -17q-13 0 -23 8.5t-10 22.5q0 12 8 25l50 74q12 17 30 17q14 0 24 -9t10 -23q0 -13 -9 -25zM273 771q-12 -17 -29 -17q-13 0 -23 8.5t-10 22.5q0 12 8 25l50 74q12 17 30 17q14 0 24 -9t10 -23q0 -13 -9 -25z" />
    <glyph glyph-name="ohungarumlaut" unicode="&#x151;" horiz-adv-x="516" 
d="M258 -11q-70 0 -119.5 34t-69.5 95q-8 25 -12 52.5t-4 69.5t4 69t12 52q20 62 69.5 95.5t119.5 33.5t119.5 -33.5t69.5 -95.5q8 -25 12 -52t4 -69t-4 -69.5t-12 -52.5q-20 -61 -69.5 -95t-119.5 -34zM258 67q40 0 68 19.5t40 55.5q6 20 8.5 41.5t2.5 56.5t-2.5 56
t-8.5 41q-12 36 -40 55.5t-68 19.5t-68 -19.5t-40 -55.5q-6 -20 -8.5 -41t-2.5 -56t2.5 -56.5t8.5 -41.5q12 -36 40 -55.5t68 -19.5zM372 570q-13 -21 -31 -21q-14 0 -23.5 9t-9.5 23q0 11 6 22l50 85q7 11 15 15.5t18 4.5q14 0 24 -8.5t10 -22.5q0 -11 -7 -23zM227 570
q-13 -21 -31 -21q-14 0 -23.5 9t-9.5 23q0 11 6 22l50 85q7 11 15 15.5t18 4.5q14 0 24 -8.5t10 -22.5q0 -11 -7 -23z" />
    <glyph glyph-name="OE" unicode="&#x152;" horiz-adv-x="948" 
d="M309 691q113 0 158 -83h2v32q0 18 10.5 29t29.5 11h350q20 0 32 -12t12 -29q0 -18 -12 -30t-32 -12h-295q-6 0 -6 -6v-200q0 -6 6 -6h246q20 0 32 -12t12 -29q0 -18 -12 -30t-32 -12h-246q-6 0 -6 -6v-207q0 -6 6 -6h295q20 0 32 -12t12 -29q0 -18 -12 -30t-32 -12h-350
q-19 0 -29.5 11t-10.5 29v32h-2q-45 -83 -158 -83q-88 0 -146 41.5t-84 119.5q-6 18 -9.5 36.5t-6 40.5t-3 49.5t-0.5 63.5t0.5 63.5t3 49.5t6 40.5t9.5 36.5q26 78 84 119.5t146 41.5zM309 72q60 0 94.5 28.5t49.5 76.5q4 12 7 26.5t5 33.5t3 44t1 59t-1 59t-3 44t-5 33.5
t-7 26.5q-15 48 -49.5 76.5t-94.5 28.5q-59 0 -93.5 -28.5t-49.5 -76.5q-4 -12 -7 -26.5t-5 -33.5t-3 -44t-1 -59t1 -59t3 -44t5 -33.5t7 -26.5q15 -48 49.5 -76.5t93.5 -28.5z" />
    <glyph glyph-name="oe" unicode="&#x153;" horiz-adv-x="835" 
d="M585 -11q-112 0 -164 86h-1q-26 -43 -67 -64.5t-95 -21.5q-70 0 -119.5 34t-69.5 95q-8 25 -12 52.5t-4 69.5t4 69t12 52q20 62 69.5 95.5t119.5 33.5q56 0 96 -22.5t66 -63.5h1q25 41 65 63.5t93 22.5q71 0 119 -33t68 -95q16 -47 16 -116q0 -14 -9 -23t-24 -9h-281
q-6 0 -6 -6q0 -17 1.5 -30.5t6.5 -27.5q14 -42 45 -62.5t76 -20.5q35 0 61.5 10.5t53.5 30.5q15 12 29 12q15 0 25 -10t10 -25q0 -17 -13 -30q-31 -29 -73.5 -47.5t-98.5 -18.5zM690 281q6 0 6 6q0 33 -7 54q-12 36 -40.5 55.5t-69.5 19.5t-69.5 -19.5t-40.5 -55.5
q-7 -21 -7 -54q0 -6 6 -6h222zM258 67q40 0 68 19.5t40 55.5q6 20 8.5 41.5t2.5 56.5t-2.5 56t-8.5 41q-12 36 -40 55.5t-68 19.5t-68 -19.5t-40 -55.5q-6 -20 -8.5 -41t-2.5 -56t2.5 -56.5t8.5 -41.5q12 -36 40 -55.5t68 -19.5z" />
    <glyph glyph-name="Racute" unicode="&#x154;" horiz-adv-x="617" 
d="M129 -5q-20 0 -32.5 12.5t-12.5 35.5v597q0 18 10.5 29t29.5 11h213q49 0 89 -14t68 -39.5t43 -61.5t15 -81q0 -69 -34 -116t-95 -67l122 -240q6 -12 6 -24q0 -17 -11.5 -29.5t-31.5 -12.5q-27 0 -43 28l-134 265h-152q-6 0 -6 -6v-239q0 -23 -12 -35.5t-32 -12.5z
M338 371q60 0 93 29.5t33 83.5t-33 83.5t-93 29.5h-159q-6 0 -6 -6v-214q0 -6 6 -6h159zM334 890q11 13 27 13q14 0 24 -9.5t10 -23.5t-10 -26l-69 -76q-14 -15 -30 -15q-13 0 -22.5 9t-9.5 23t11 27z" />
    <glyph glyph-name="racute" unicode="&#x155;" horiz-adv-x="407" 
d="M124 -5q-18 0 -30 12t-12 33v399q0 21 12 33t30 12t30 -12t12 -33v-22h1q15 32 46.5 52.5t76.5 20.5q25 0 42 -5t29 -12q24 -13 24 -36q0 -18 -11.5 -30t-30.5 -12q-9 0 -21 5q-14 5 -27 8.5t-28 3.5q-54 0 -77.5 -40t-23.5 -100v-232q0 -21 -12 -33t-30 -12zM210 549
q-15 0 -24 9t-9 23q0 11 7 24l56 86q11 17 30 17q14 0 24 -9t10 -23q0 -12 -8 -25l-58 -86q-12 -16 -28 -16z" />
    <glyph glyph-name="Rcommaaccent" unicode="&#x156;" horiz-adv-x="617" 
d="M129 -5q-20 0 -32.5 12.5t-12.5 35.5v597q0 18 10.5 29t29.5 11h213q49 0 89 -14t68 -39.5t43 -61.5t15 -81q0 -69 -34 -116t-95 -67l122 -240q6 -12 6 -24q0 -17 -11.5 -29.5t-31.5 -12.5q-27 0 -43 28l-134 265h-152q-6 0 -6 -6v-239q0 -23 -12 -35.5t-32 -12.5z
M338 371q60 0 93 29.5t33 83.5t-33 83.5t-93 29.5h-159q-6 0 -6 -6v-214q0 -6 6 -6h159zM317 -189q-9 -31 -36 -31q-17 0 -28 10t-11 27q0 8 3 17l28 87q9 30 36 30q17 0 28.5 -9t11.5 -26q0 -10 -3 -19z" />
    <glyph glyph-name="rcommaaccent" unicode="&#x157;" horiz-adv-x="407" 
d="M124 -5q-18 0 -30 12t-12 33v399q0 21 12 33t30 12t30 -12t12 -33v-22h1q15 32 46.5 52.5t76.5 20.5q25 0 42 -5t29 -12q24 -13 24 -36q0 -18 -11.5 -30t-30.5 -12q-9 0 -21 5q-14 5 -27 8.5t-28 3.5q-54 0 -77.5 -40t-23.5 -100v-232q0 -21 -12 -33t-30 -12zM130 -189
q-9 -31 -36 -31q-17 0 -28 10t-11 27q0 8 3 17l28 87q9 30 36 30q17 0 28.5 -9t11.5 -26q0 -10 -3 -19z" />
    <glyph glyph-name="Rcaron" unicode="&#x158;" horiz-adv-x="617" 
d="M129 -5q-20 0 -32.5 12.5t-12.5 35.5v597q0 18 10.5 29t29.5 11h213q49 0 89 -14t68 -39.5t43 -61.5t15 -81q0 -69 -34 -116t-95 -67l122 -240q6 -12 6 -24q0 -17 -11.5 -29.5t-31.5 -12.5q-27 0 -43 28l-134 265h-152q-6 0 -6 -6v-239q0 -23 -12 -35.5t-32 -12.5z
M338 371q60 0 93 29.5t33 83.5t-33 83.5t-93 29.5h-159q-6 0 -6 -6v-214q0 -6 6 -6h159zM357 892q12 13 25 13q11 0 19 -7.5t8 -18.5q0 -10 -8 -20l-69 -87q-11 -14 -21 -20.5t-24 -6.5t-24 6.5t-21 20.5l-69 87q-8 10 -8 20q0 11 8 18.5t19 7.5q13 0 25 -13l69 -78h2z" />
    <glyph glyph-name="rcaron" unicode="&#x159;" horiz-adv-x="407" 
d="M124 -5q-18 0 -30 12t-12 33v399q0 21 12 33t30 12t30 -12t12 -33v-22h1q15 32 46.5 52.5t76.5 20.5q25 0 42 -5t29 -12q24 -13 24 -36q0 -18 -11.5 -30t-30.5 -12q-9 0 -21 5q-14 5 -27 8.5t-28 3.5q-54 0 -77.5 -40t-23.5 -100v-232q0 -21 -12 -33t-30 -12zM298 694
q12 13 25 13q11 0 19 -7.5t8 -18.5q0 -10 -8 -20l-69 -87q-11 -14 -21 -20.5t-24 -6.5t-24 6.5t-21 20.5l-69 87q-8 10 -8 20q0 11 8 18.5t19 7.5q13 0 25 -13l69 -78h2z" />
    <glyph glyph-name="Sacute" unicode="&#x15a;" horiz-adv-x="591" 
d="M289 -11q-66 0 -120.5 19.5t-90.5 44.5q-22 16 -22 39q0 17 11.5 29.5t31.5 12.5q14 0 28 -9q37 -23 78.5 -38t90.5 -15q72 0 112 31.5t40 84.5q0 22 -6.5 39.5t-23 31.5t-44 24t-68.5 16l-33 5q-103 16 -152 62t-49 127q0 45 15.5 82t44.5 62.5t70 39.5t92 14
q55 0 102 -13.5t78 -32.5q24 -16 24 -39q0 -17 -11.5 -28.5t-28.5 -11.5q-7 0 -14.5 2.5t-14.5 5.5q-32 14 -66 24t-72 10q-65 0 -97 -31t-32 -79q0 -21 7 -38.5t23.5 -31t43.5 -23.5t67 -16l33 -5q103 -16 152.5 -62.5t49.5 -128.5q0 -44 -15.5 -81.5t-47 -64.5t-78 -42.5
t-108.5 -15.5zM344 890q11 13 27 13q14 0 24 -9.5t10 -23.5t-10 -26l-69 -76q-14 -15 -30 -15q-13 0 -22.5 9t-9.5 23t11 27z" />
    <glyph glyph-name="sacute" unicode="&#x15b;" horiz-adv-x="490" 
d="M245 -11q-55 0 -99.5 16t-74.5 37q-20 14 -20 35q0 15 11 26.5t28 11.5q6 0 12.5 -2t15.5 -7q29 -17 61 -29.5t73 -12.5q52 0 78.5 20t26.5 52q0 30 -18.5 46t-75.5 22l-50 5q-71 8 -107 42.5t-36 92.5q0 69 46 107.5t131 38.5q42 0 78.5 -9.5t64.5 -25.5q25 -13 25 -35
q0 -15 -10.5 -25.5t-25.5 -10.5q-13 0 -30 8q-24 11 -50.5 18t-55.5 7q-45 0 -68 -18.5t-23 -47.5t20 -44.5t74 -20.5l50 -5q75 -8 109.5 -42.5t34.5 -93.5q0 -71 -49.5 -113.5t-145.5 -42.5zM242 549q-15 0 -24 9t-9 23q0 11 7 24l56 86q11 17 30 17q14 0 24 -9t10 -23
q0 -12 -8 -25l-58 -86q-12 -16 -28 -16z" />
    <glyph glyph-name="Scircumflex" unicode="&#x15c;" horiz-adv-x="591" 
d="M289 -11q-66 0 -120.5 19.5t-90.5 44.5q-22 16 -22 39q0 17 11.5 29.5t31.5 12.5q14 0 28 -9q37 -23 78.5 -38t90.5 -15q72 0 112 31.5t40 84.5q0 22 -6.5 39.5t-23 31.5t-44 24t-68.5 16l-33 5q-103 16 -152 62t-49 127q0 45 15.5 82t44.5 62.5t70 39.5t92 14
q55 0 102 -13.5t78 -32.5q24 -16 24 -39q0 -17 -11.5 -28.5t-28.5 -11.5q-7 0 -14.5 2.5t-14.5 5.5q-32 14 -66 24t-72 10q-65 0 -97 -31t-32 -79q0 -21 7 -38.5t23.5 -31t43.5 -23.5t67 -16l33 -5q103 -16 152.5 -62.5t49.5 -128.5q0 -44 -15.5 -81.5t-47 -64.5t-78 -42.5
t-108.5 -15.5zM299 836h-2l-69 -78q-12 -13 -25 -13q-11 0 -19 7.5t-8 18.5q0 10 8 20l69 87q11 14 21 20.5t24 6.5t24 -6.5t21 -20.5l69 -87q8 -10 8 -20q0 -11 -8 -18.5t-19 -7.5q-13 0 -25 13z" />
    <glyph glyph-name="scircumflex" unicode="&#x15d;" horiz-adv-x="490" 
d="M245 -11q-55 0 -99.5 16t-74.5 37q-20 14 -20 35q0 15 11 26.5t28 11.5q6 0 12.5 -2t15.5 -7q29 -17 61 -29.5t73 -12.5q52 0 78.5 20t26.5 52q0 30 -18.5 46t-75.5 22l-50 5q-71 8 -107 42.5t-36 92.5q0 69 46 107.5t131 38.5q42 0 78.5 -9.5t64.5 -25.5q25 -13 25 -35
q0 -15 -10.5 -25.5t-25.5 -10.5q-13 0 -30 8q-24 11 -50.5 18t-55.5 7q-45 0 -68 -18.5t-23 -47.5t20 -44.5t74 -20.5l50 -5q75 -8 109.5 -42.5t34.5 -93.5q0 -71 -49.5 -113.5t-145.5 -42.5zM248 639h-2l-69 -78q-12 -13 -25 -13q-11 0 -19 7.5t-8 18.5q0 10 8 20l69 87
q11 14 21 20.5t24 6.5t24 -6.5t21 -20.5l69 -87q8 -10 8 -20q0 -11 -8 -18.5t-19 -7.5q-13 0 -25 13z" />
    <glyph glyph-name="Scedilla" unicode="&#x15e;" horiz-adv-x="591" 
d="M292 -136q-9 -26 -34 -26q-15 0 -25 8.5t-10 24.5q0 4 1 9t3 10l37 100q-57 4 -105 22t-81 41q-22 16 -22 39q0 17 11.5 29.5t31.5 12.5q14 0 28 -9q37 -23 78.5 -38t90.5 -15q72 0 112 31.5t40 84.5q0 22 -6.5 39.5t-23 31.5t-44 24t-68.5 16l-33 5q-103 16 -152 62
t-49 127q0 45 15.5 82t44.5 62.5t70 39.5t92 14q55 0 102 -13.5t78 -32.5q24 -16 24 -39q0 -17 -11.5 -28.5t-28.5 -11.5q-7 0 -14.5 2.5t-14.5 5.5q-32 14 -66 24t-72 10q-65 0 -97 -31t-32 -79q0 -21 7 -38.5t23.5 -31t43.5 -23.5t67 -16l33 -5q103 -16 152.5 -62.5
t49.5 -128.5q0 -78 -49.5 -133.5t-152.5 -67.5z" />
    <glyph glyph-name="scedilla" unicode="&#x15f;" horiz-adv-x="490" 
d="M245 -136q-9 -26 -34 -26q-15 0 -25 8.5t-10 24.5q0 4 1 9t3 10l37 100q-43 4 -81.5 18.5t-64.5 33.5q-20 14 -20 35q0 15 11 26.5t28 11.5q6 0 12.5 -2t15.5 -7q29 -17 61 -29.5t73 -12.5q52 0 78.5 20t26.5 52q0 30 -18.5 46t-75.5 22l-50 5q-71 8 -107 42.5t-36 92.5
q0 69 46 107.5t131 38.5q42 0 78.5 -9.5t64.5 -25.5q25 -13 25 -35q0 -15 -10.5 -25.5t-25.5 -10.5q-13 0 -30 8q-24 11 -50.5 18t-55.5 7q-45 0 -68 -18.5t-23 -47.5t20 -44.5t74 -20.5l50 -5q75 -8 109.5 -42.5t34.5 -93.5q0 -61 -38 -102.5t-113 -50.5z" />
    <glyph glyph-name="Scaron" unicode="&#x160;" horiz-adv-x="591" 
d="M289 -11q-66 0 -120.5 19.5t-90.5 44.5q-22 16 -22 39q0 17 11.5 29.5t31.5 12.5q14 0 28 -9q37 -23 78.5 -38t90.5 -15q72 0 112 31.5t40 84.5q0 22 -6.5 39.5t-23 31.5t-44 24t-68.5 16l-33 5q-103 16 -152 62t-49 127q0 45 15.5 82t44.5 62.5t70 39.5t92 14
q55 0 102 -13.5t78 -32.5q24 -16 24 -39q0 -17 -11.5 -28.5t-28.5 -11.5q-7 0 -14.5 2.5t-14.5 5.5q-32 14 -66 24t-72 10q-65 0 -97 -31t-32 -79q0 -21 7 -38.5t23.5 -31t43.5 -23.5t67 -16l33 -5q103 -16 152.5 -62.5t49.5 -128.5q0 -44 -15.5 -81.5t-47 -64.5t-78 -42.5
t-108.5 -15.5zM367 892q12 13 25 13q11 0 19 -7.5t8 -18.5q0 -10 -8 -20l-69 -87q-11 -14 -21 -20.5t-24 -6.5t-24 6.5t-21 20.5l-69 87q-8 10 -8 20q0 11 8 18.5t19 7.5q13 0 25 -13l69 -78h2z" />
    <glyph glyph-name="scaron" unicode="&#x161;" horiz-adv-x="490" 
d="M245 -11q-55 0 -99.5 16t-74.5 37q-20 14 -20 35q0 15 11 26.5t28 11.5q6 0 12.5 -2t15.5 -7q29 -17 61 -29.5t73 -12.5q52 0 78.5 20t26.5 52q0 30 -18.5 46t-75.5 22l-50 5q-71 8 -107 42.5t-36 92.5q0 69 46 107.5t131 38.5q42 0 78.5 -9.5t64.5 -25.5q25 -13 25 -35
q0 -15 -10.5 -25.5t-25.5 -10.5q-13 0 -30 8q-24 11 -50.5 18t-55.5 7q-45 0 -68 -18.5t-23 -47.5t20 -44.5t74 -20.5l50 -5q75 -8 109.5 -42.5t34.5 -93.5q0 -71 -49.5 -113.5t-145.5 -42.5zM317 694q12 13 25 13q11 0 19 -7.5t8 -18.5q0 -10 -8 -20l-69 -87
q-11 -14 -21 -20.5t-24 -6.5t-24 6.5t-21 20.5l-69 87q-8 10 -8 20q0 11 8 18.5t19 7.5q13 0 25 -13l69 -78h2z" />
    <glyph glyph-name="Tcommaaccent" unicode="&#x162;" horiz-adv-x="537" 
d="M476 680q20 0 32 -12t12 -30q0 -17 -12 -29t-32 -12h-157q-6 0 -6 -6v-548q0 -23 -12 -35.5t-32 -12.5t-32.5 12.5t-12.5 35.5v548q0 6 -6 6h-157q-20 0 -32 12t-12 29q0 18 12 30t32 12h415zM273 -189q-9 -31 -36 -31q-17 0 -28 10t-11 27q0 8 3 17l28 87q9 30 36 30
q17 0 28.5 -9t11.5 -26q0 -10 -3 -19z" />
    <glyph glyph-name="tcommaaccent" unicode="&#x163;" horiz-adv-x="318" 
d="M226 -5q-74 0 -104 33t-30 108v269q0 6 -6 6h-27q-17 0 -26.5 9.5t-9.5 24.5t9.5 24.5t26.5 9.5h27q6 0 6 6v105q0 21 12 33t30 12t30 -12t12 -33v-105q0 -6 6 -6h63q17 0 26.5 -9.5t9.5 -24.5t-9.5 -24.5t-26.5 -9.5h-63q-6 0 -6 -6v-266q0 -38 13 -52t51 -14
q20 0 30.5 -11t10.5 -28t-11 -28t-34 -11h-10zM193 -189q-9 -31 -36 -31q-17 0 -28 10t-11 27q0 8 3 17l28 87q9 30 36 30q17 0 28.5 -9t11.5 -26q0 -10 -3 -19z" />
    <glyph glyph-name="Tcaron" unicode="&#x164;" horiz-adv-x="537" 
d="M476 680q20 0 32 -12t12 -30q0 -17 -12 -29t-32 -12h-157q-6 0 -6 -6v-548q0 -23 -12 -35.5t-32 -12.5t-32.5 12.5t-12.5 35.5v548q0 6 -6 6h-157q-20 0 -32 12t-12 29q0 18 12 30t32 12h415zM337 892q12 13 25 13q11 0 19 -7.5t8 -18.5q0 -10 -8 -20l-69 -87
q-11 -14 -21 -20.5t-24 -6.5t-24 6.5t-21 20.5l-69 87q-8 10 -8 20q0 11 8 18.5t19 7.5q13 0 25 -13l69 -78h2z" />
    <glyph glyph-name="tcaron" unicode="&#x165;" horiz-adv-x="318" 
d="M226 -5q-74 0 -104 33t-30 108v269q0 6 -6 6h-27q-17 0 -26.5 9.5t-9.5 24.5t9.5 24.5t26.5 9.5h27q6 0 6 6v105q0 21 12 33t30 12t30 -12t12 -33v-105q0 -6 6 -6h63q17 0 26.5 -9.5t9.5 -24.5t-9.5 -24.5t-26.5 -9.5h-63q-6 0 -6 -6v-266q0 -38 13 -52t51 -14
q20 0 30.5 -11t10.5 -28t-11 -28t-34 -11h-10zM304 547q-11 -30 -36 -30q-17 0 -27.5 9.5t-10.5 26.5q0 9 3 17l26 83q10 30 36 30q17 0 28 -9.5t11 -26.5q0 -10 -3 -17z" />
    <glyph glyph-name="Tbar" unicode="&#x166;" horiz-adv-x="537" 
d="M268 -5q-19 0 -31.5 12.5t-12.5 35.5v314q0 6 -6 6h-75q-20 0 -31 11t-11 28q0 18 11 29t31 11h75q6 0 6 7v142q0 6 -6 6h-157q-20 0 -32 12t-12 29q0 18 12 30t32 12h415q20 0 32 -12t12 -30q0 -17 -12 -29t-32 -12h-157q-6 0 -6 -6v-142q0 -7 6 -7h75q20 0 31 -11
t11 -29q0 -17 -11 -28t-31 -11h-75q-6 0 -6 -6v-314q0 -23 -12.5 -35.5t-32.5 -12.5z" />
    <glyph glyph-name="tbar" unicode="&#x167;" horiz-adv-x="318" 
d="M182 274q-6 0 -6 -6v-129q0 -38 13 -52t51 -14q20 0 30.5 -11t10.5 -28t-11 -28t-34 -11h-10q-74 0 -104 33t-30 108v132q0 6 -6 6h-19q-17 0 -25.5 9t-8.5 23t8.5 23t25.5 9h19q6 0 6 6v61q0 6 -6 6h-27q-17 0 -26.5 9.5t-9.5 24.5t9.5 24.5t26.5 9.5h27q6 0 6 6v105
q0 21 12 33t30 12t30 -12t12 -33v-105q0 -6 6 -6h63q17 0 26.5 -9.5t9.5 -24.5t-9.5 -24.5t-26.5 -9.5h-63q-6 0 -6 -6v-61q0 -6 6 -6h48q17 0 25.5 -9t8.5 -23t-8.5 -23t-25.5 -9h-48z" />
    <glyph glyph-name="Utilde" unicode="&#x168;" horiz-adv-x="639" 
d="M471 637q0 23 12.5 35.5t32.5 12.5t32 -12.5t12 -35.5v-399q0 -62 -17 -109t-48.5 -78t-76 -46.5t-99.5 -15.5q-54 0 -98.5 15.5t-76 46.5t-48.5 78t-17 109v399q0 23 12.5 35.5t32.5 12.5t32 -12.5t12 -35.5v-399q0 -83 41.5 -124.5t110.5 -41.5q68 0 109.5 41.5
t41.5 124.5v399zM266 809q-11 0 -19 -5t-18 -18q-11 -13 -25 -13q-13 0 -21 7.5t-8 19.5t8 23q18 26 38 38t42 12q19 0 33 -5.5t31 -16.5t27 -15t18 -4q11 0 19 5t18 18q11 13 25 13q13 0 21 -7.5t8 -19.5t-8 -23q-18 -26 -38 -38t-42 -12q-19 0 -33 5.5t-31 16.5t-27 15
t-18 4z" />
    <glyph glyph-name="utilde" unicode="&#x169;" horiz-adv-x="539" 
d="M457 40q0 -21 -12 -33t-30 -12t-30 12t-12 33v14h-1q-17 -28 -50 -46.5t-82 -18.5q-78 0 -121.5 49t-43.5 131v270q0 21 12 33t30 12t30 -12t12 -33v-250q0 -58 26 -90t80 -32q49 0 78.5 31.5t29.5 85.5v255q0 21 12 33t30 12t30 -12t12 -33v-399zM215 621q-11 0 -19 -5
t-18 -18q-11 -13 -25 -13q-13 0 -21 7.5t-8 19.5t8 23q18 26 38 38t42 12q19 0 33 -5.5t31 -16.5t27 -15t18 -4q11 0 19 5t18 18q11 13 25 13q13 0 21 -7.5t8 -19.5t-8 -23q-18 -26 -38 -38t-42 -12q-19 0 -33 5.5t-31 16.5t-27 15t-18 4z" />
    <glyph glyph-name="Umacron" unicode="&#x16a;" horiz-adv-x="639" 
d="M471 637q0 23 12.5 35.5t32.5 12.5t32 -12.5t12 -35.5v-399q0 -62 -17 -109t-48.5 -78t-76 -46.5t-99.5 -15.5q-54 0 -98.5 15.5t-76 46.5t-48.5 78t-17 109v399q0 23 12.5 35.5t32.5 12.5t32 -12.5t12 -35.5v-399q0 -83 41.5 -124.5t110.5 -41.5q68 0 109.5 41.5
t41.5 124.5v399zM210 790q-17 0 -26 9t-9 23t9 23.5t26 9.5h218q17 0 26 -9.5t9 -23.5t-9 -23t-26 -9h-218z" />
    <glyph glyph-name="umacron" unicode="&#x16b;" horiz-adv-x="539" 
d="M457 40q0 -21 -12 -33t-30 -12t-30 12t-12 33v14h-1q-17 -28 -50 -46.5t-82 -18.5q-78 0 -121.5 49t-43.5 131v270q0 21 12 33t30 12t30 -12t12 -33v-250q0 -58 26 -90t80 -32q49 0 78.5 31.5t29.5 85.5v255q0 21 12 33t30 12t30 -12t12 -33v-399zM160 601q-17 0 -26 9
t-9 23t9 23.5t26 9.5h218q17 0 26 -9.5t9 -23.5t-9 -23t-26 -9h-218z" />
    <glyph glyph-name="Ubreve" unicode="&#x16c;" horiz-adv-x="639" 
d="M471 637q0 23 12.5 35.5t32.5 12.5t32 -12.5t12 -35.5v-399q0 -62 -17 -109t-48.5 -78t-76 -46.5t-99.5 -15.5q-54 0 -98.5 15.5t-76 46.5t-48.5 78t-17 109v399q0 23 12.5 35.5t32.5 12.5t32 -12.5t12 -35.5v-399q0 -83 41.5 -124.5t110.5 -41.5q68 0 109.5 41.5
t41.5 124.5v399zM319 761q-30 0 -54 9t-41 24t-26.5 33.5t-9.5 37.5q0 11 6.5 18.5t18.5 7.5q11 0 17.5 -6.5t11.5 -17.5q21 -46 77 -46t77 46q5 11 11.5 17.5t17.5 6.5q12 0 18.5 -7.5t6.5 -18.5q0 -19 -9.5 -37.5t-26.5 -33.5t-41 -24t-54 -9z" />
    <glyph glyph-name="ubreve" unicode="&#x16d;" horiz-adv-x="539" 
d="M457 40q0 -21 -12 -33t-30 -12t-30 12t-12 33v14h-1q-17 -28 -50 -46.5t-82 -18.5q-78 0 -121.5 49t-43.5 131v270q0 21 12 33t30 12t30 -12t12 -33v-250q0 -58 26 -90t80 -32q49 0 78.5 31.5t29.5 85.5v255q0 21 12 33t30 12t30 -12t12 -33v-399zM269 561q-30 0 -54 9
t-41 24t-26.5 33.5t-9.5 37.5q0 11 6.5 18.5t18.5 7.5q11 0 17.5 -6.5t11.5 -17.5q21 -46 77 -46t77 46q5 11 11.5 17.5t17.5 6.5q12 0 18.5 -7.5t6.5 -18.5q0 -19 -9.5 -37.5t-26.5 -33.5t-41 -24t-54 -9z" />
    <glyph glyph-name="Uring" unicode="&#x16e;" horiz-adv-x="639" 
d="M471 637q0 23 12.5 35.5t32.5 12.5t32 -12.5t12 -35.5v-399q0 -62 -17 -109t-48.5 -78t-76 -46.5t-99.5 -15.5q-54 0 -98.5 15.5t-76 46.5t-48.5 78t-17 109v399q0 23 12.5 35.5t32.5 12.5t32 -12.5t12 -35.5v-399q0 -83 41.5 -124.5t110.5 -41.5q68 0 109.5 41.5
t41.5 124.5v399zM319 728q-40 0 -67.5 27t-27.5 68t27.5 68t67.5 27t67.5 -27t27.5 -68t-27.5 -68t-67.5 -27zM319 770q22 0 36.5 15t14.5 38t-14.5 38t-36.5 15t-36.5 -15t-14.5 -38t14.5 -38t36.5 -15z" />
    <glyph glyph-name="uring" unicode="&#x16f;" horiz-adv-x="539" 
d="M457 40q0 -21 -12 -33t-30 -12t-30 12t-12 33v14h-1q-17 -28 -50 -46.5t-82 -18.5q-78 0 -121.5 49t-43.5 131v270q0 21 12 33t30 12t30 -12t12 -33v-250q0 -58 26 -90t80 -32q49 0 78.5 31.5t29.5 85.5v255q0 21 12 33t30 12t30 -12t12 -33v-399zM269 534
q-40 0 -67.5 27t-27.5 68t27.5 68t67.5 27t67.5 -27t27.5 -68t-27.5 -68t-67.5 -27zM269 576q22 0 36.5 15t14.5 38t-14.5 38t-36.5 15t-36.5 -15t-14.5 -38t14.5 -38t36.5 -15z" />
    <glyph glyph-name="Uhungarumlaut" unicode="&#x170;" horiz-adv-x="639" 
d="M471 637q0 23 12.5 35.5t32.5 12.5t32 -12.5t12 -35.5v-399q0 -62 -17 -109t-48.5 -78t-76 -46.5t-99.5 -15.5q-54 0 -98.5 15.5t-76 46.5t-48.5 78t-17 109v399q0 23 12.5 35.5t32.5 12.5t32 -12.5t12 -35.5v-399q0 -83 41.5 -124.5t110.5 -41.5q68 0 109.5 41.5
t41.5 124.5v399zM427 771q-12 -17 -29 -17q-13 0 -23 8.5t-10 22.5q0 12 8 25l50 74q12 17 30 17q14 0 24 -9t10 -23q0 -13 -9 -25zM285 771q-12 -17 -29 -17q-13 0 -23 8.5t-10 22.5q0 12 8 25l50 74q12 17 30 17q14 0 24 -9t10 -23q0 -13 -9 -25z" />
    <glyph glyph-name="uhungarumlaut" unicode="&#x171;" horiz-adv-x="539" 
d="M457 40q0 -21 -12 -33t-30 -12t-30 12t-12 33v14h-1q-17 -28 -50 -46.5t-82 -18.5q-78 0 -121.5 49t-43.5 131v270q0 21 12 33t30 12t30 -12t12 -33v-250q0 -58 26 -90t80 -32q49 0 78.5 31.5t29.5 85.5v255q0 21 12 33t30 12t30 -12t12 -33v-399zM378 570
q-13 -21 -31 -21q-14 0 -23.5 9t-9.5 23q0 11 6 22l50 85q7 11 15 15.5t18 4.5q14 0 24 -8.5t10 -22.5q0 -11 -7 -23zM233 570q-13 -21 -31 -21q-14 0 -23.5 9t-9.5 23q0 11 6 22l50 85q7 11 15 15.5t18 4.5q14 0 24 -8.5t10 -22.5q0 -11 -7 -23z" />
    <glyph glyph-name="Uogonek" unicode="&#x172;" horiz-adv-x="639" 
d="M330 -179q-38 0 -60.5 20.5t-22.5 56.5q0 23 8.5 43.5t31.5 49.5q-95 8 -151.5 69.5t-56.5 177.5v399q0 23 12.5 35.5t32.5 12.5t32 -12.5t12 -35.5v-399q0 -83 41.5 -124.5t110.5 -41.5q68 0 109.5 41.5t41.5 124.5v399q0 23 12.5 35.5t32.5 12.5t32 -12.5t12 -35.5
v-399q0 -111 -51.5 -171.5t-140.5 -73.5q-32 -33 -41 -52t-9 -31q0 -24 24 -24q9 0 18 4q9 3 16 3q12 0 19.5 -8.5t7.5 -20.5q0 -19 -16 -28q-23 -15 -57 -15z" />
    <glyph glyph-name="uogonek" unicode="&#x173;" horiz-adv-x="539" 
d="M373 54h-1q-17 -28 -50 -46.5t-82 -18.5q-78 0 -121.5 49t-43.5 131v270q0 21 12 33t30 12t30 -12t12 -33v-250q0 -58 26 -90t80 -32q49 0 78.5 31.5t29.5 85.5v255q0 21 12 33t30 12t30 -12t12 -33v-399q0 -13 -4 -22.5t-16 -20.5q-22 -19 -35.5 -32t-21 -23t-10 -17.5
t-2.5 -14.5q0 -24 23 -24q10 0 19 4q7 3 16 3q12 0 19.5 -8.5t7.5 -20.5q0 -18 -16 -28q-11 -7 -26 -11t-32 -4q-38 0 -60 20.5t-22 56.5q0 29 18 57t63 60q-5 8 -5 25v14z" />
    <glyph glyph-name="Wcircumflex" unicode="&#x174;" horiz-adv-x="822" 
d="M595 -5q-18 0 -29 11t-19 37l-134 474h-2l-136 -474q-8 -26 -19 -37t-29 -11t-29.5 11t-18.5 37l-148 579q-3 12 -3 21q0 17 11.5 29.5t31.5 12.5q34 0 43 -38l117 -482h2l133 477q12 43 46 43q33 0 45 -43l136 -478h2l113 483q9 38 43 38q20 0 31.5 -12.5t11.5 -29.5
q0 -9 -3 -21l-148 -579q-7 -26 -18.5 -37t-29.5 -11zM412 836h-2l-69 -78q-12 -13 -25 -13q-11 0 -19 7.5t-8 18.5q0 10 8 20l69 87q11 14 21 20.5t24 6.5t24 -6.5t21 -20.5l69 -87q8 -10 8 -20q0 -11 -8 -18.5t-19 -7.5q-13 0 -25 13z" />
    <glyph glyph-name="wcircumflex" unicode="&#x175;" horiz-adv-x="745" 
d="M524 -5q-38 0 -51 43l-99 315h-2l-100 -315q-14 -43 -50 -43t-50 43l-127 388q-3 9 -3 18q0 17 11 28.5t30 11.5q30 0 41 -36l101 -325h2l100 320q13 41 46 41t46 -41l102 -320h2l99 325q10 36 41 36q18 0 29 -11.5t11 -28.5q0 -9 -3 -18l-127 -388q-14 -43 -49 -43z
M374 639h-2l-69 -78q-12 -13 -25 -13q-11 0 -19 7.5t-8 18.5q0 10 8 20l69 87q11 14 21 20.5t24 6.5t24 -6.5t21 -20.5l69 -87q8 -10 8 -20q0 -11 -8 -18.5t-19 -7.5q-13 0 -25 13z" />
    <glyph glyph-name="Ycircumflex" unicode="&#x176;" horiz-adv-x="526" 
d="M307 276v-233q0 -23 -12 -35.5t-32 -12.5q-19 0 -31.5 12.5t-12.5 35.5v233l-186 343q-7 14 -7 26q0 17 12 28.5t30 11.5q25 0 39 -26l156 -290h3l154 290q14 26 39 26q18 0 29.5 -11.5t11.5 -28.5q0 -12 -7 -26zM264 836h-2l-69 -78q-12 -13 -25 -13q-11 0 -19 7.5
t-8 18.5q0 10 8 20l69 87q11 14 21 20.5t24 6.5t24 -6.5t21 -20.5l69 -87q8 -10 8 -20q0 -11 -8 -18.5t-19 -7.5q-13 0 -25 13z" />
    <glyph glyph-name="ycircumflex" unicode="&#x177;" horiz-adv-x="477" 
d="M102 -180q-20 0 -30.5 11t-10.5 28t10.5 28t30.5 11q29 0 48 14.5t35 57.5l16 44l-163 411q-2 5 -3 10t-1 10q0 17 12 28t30 11q29 0 40 -30l125 -331h2l120 331q10 30 39 30q19 0 30 -11t11 -28q0 -5 -1 -10t-3 -10l-180 -472q-16 -41 -31.5 -66.5t-33 -40.5t-38 -20.5
t-46.5 -5.5h-8zM242 639h-2l-69 -78q-12 -13 -25 -13q-11 0 -19 7.5t-8 18.5q0 10 8 20l69 87q11 14 21 20.5t24 6.5t24 -6.5t21 -20.5l69 -87q8 -10 8 -20q0 -11 -8 -18.5t-19 -7.5q-13 0 -25 13z" />
    <glyph glyph-name="Ydieresis" unicode="&#x178;" horiz-adv-x="526" 
d="M307 276v-233q0 -23 -12 -35.5t-32 -12.5q-19 0 -31.5 12.5t-12.5 35.5v233l-186 343q-7 14 -7 26q0 17 12 28.5t30 11.5q25 0 39 -26l156 -290h3l154 290q14 26 39 26q18 0 29.5 -11.5t11.5 -28.5q0 -12 -7 -26zM363 773q-20 0 -35 14.5t-15 34.5q0 21 15 36t35 15
q21 0 35.5 -15t14.5 -36q0 -20 -14.5 -34.5t-35.5 -14.5zM164 773q-21 0 -35.5 14.5t-14.5 34.5q0 21 14.5 36t35.5 15q20 0 35 -15t15 -36q0 -20 -15 -34.5t-35 -14.5z" />
    <glyph glyph-name="Zacute" unicode="&#x179;" horiz-adv-x="536" 
d="M88 0q-22 0 -34.5 11.5t-12.5 30.5q0 14 6 27.5t20 35.5l318 491v1h-287q-20 0 -32 12t-12 29q0 18 12 30t32 12h350q22 0 34.5 -12t12.5 -31q0 -13 -5 -25t-19 -35l-320 -493v-1h300q20 0 32 -12t12 -29q0 -18 -12 -30t-32 -12h-363zM311 890q11 13 27 13q14 0 24 -9.5
t10 -23.5t-10 -26l-69 -76q-14 -15 -30 -15q-13 0 -22.5 9t-9.5 23t11 27z" />
    <glyph glyph-name="zacute" unicode="&#x17a;" horiz-adv-x="453" 
d="M76 0q-19 0 -29.5 10.5t-10.5 27.5q0 13 5.5 24.5t18.5 28.5l249 310v2h-220q-20 0 -30 10.5t-10 27.5t10 27.5t30 10.5h288q19 0 29.5 -10.5t10.5 -27.5q0 -12 -4.5 -24t-18.5 -29l-249 -310v-2h232q20 0 30 -10.5t10 -27.5t-10 -27.5t-30 -10.5h-301zM229 549
q-15 0 -24 9t-9 23q0 11 7 24l56 86q11 17 30 17q14 0 24 -9t10 -23q0 -12 -8 -25l-58 -86q-12 -16 -28 -16z" />
    <glyph glyph-name="Zdotaccent" unicode="&#x17b;" horiz-adv-x="536" 
d="M88 0q-22 0 -34.5 11.5t-12.5 30.5q0 14 6 27.5t20 35.5l318 491v1h-287q-20 0 -32 12t-12 29q0 18 12 30t32 12h350q22 0 34.5 -12t12.5 -31q0 -13 -5 -25t-19 -35l-320 -493v-1h300q20 0 32 -12t12 -29q0 -18 -12 -30t-32 -12h-363zM267 766q-23 0 -39 16t-16 39t16 39
t39 16t39 -16t16 -39t-16 -39t-39 -16z" />
    <glyph glyph-name="zdotaccent" unicode="&#x17c;" horiz-adv-x="453" 
d="M76 0q-19 0 -29.5 10.5t-10.5 27.5q0 13 5.5 24.5t18.5 28.5l249 310v2h-220q-20 0 -30 10.5t-10 27.5t10 27.5t30 10.5h288q19 0 29.5 -10.5t10.5 -27.5q0 -12 -4.5 -24t-18.5 -29l-249 -310v-2h232q20 0 30 -10.5t10 -27.5t-10 -27.5t-30 -10.5h-301zM229 575
q-23 0 -39 16t-16 39t16 39t39 16t39 -16t16 -39t-16 -39t-39 -16z" />
    <glyph glyph-name="Zcaron" unicode="&#x17d;" horiz-adv-x="536" 
d="M88 0q-22 0 -34.5 11.5t-12.5 30.5q0 14 6 27.5t20 35.5l318 491v1h-287q-20 0 -32 12t-12 29q0 18 12 30t32 12h350q22 0 34.5 -12t12.5 -31q0 -13 -5 -25t-19 -35l-320 -493v-1h300q20 0 32 -12t12 -29q0 -18 -12 -30t-32 -12h-363zM337 892q12 13 25 13q11 0 19 -7.5
t8 -18.5q0 -10 -8 -20l-69 -87q-11 -14 -21 -20.5t-24 -6.5t-24 6.5t-21 20.5l-69 87q-8 10 -8 20q0 11 8 18.5t19 7.5q13 0 25 -13l69 -78h2z" />
    <glyph glyph-name="zcaron" unicode="&#x17e;" horiz-adv-x="453" 
d="M76 0q-19 0 -29.5 10.5t-10.5 27.5q0 13 5.5 24.5t18.5 28.5l249 310v2h-220q-20 0 -30 10.5t-10 27.5t10 27.5t30 10.5h288q19 0 29.5 -10.5t10.5 -27.5q0 -12 -4.5 -24t-18.5 -29l-249 -310v-2h232q20 0 30 -10.5t10 -27.5t-10 -27.5t-30 -10.5h-301zM299 694
q12 13 25 13q11 0 19 -7.5t8 -18.5q0 -10 -8 -20l-69 -87q-11 -14 -21 -20.5t-24 -6.5t-24 6.5t-21 20.5l-69 87q-8 10 -8 20q0 11 8 18.5t19 7.5q13 0 25 -13l69 -78h2z" />
    <glyph glyph-name="florin" unicode="&#x192;" 
d="M325 335l-56 -364q-6 -42 -18 -71t-31.5 -46.5t-46.5 -25.5t-64 -8h-6q-20 0 -30 10.5t-10 26.5q0 17 10 28t30 11q39 0 58 15.5t26 59.5l56 364h-56q-17 0 -27 9.5t-10 24.5t10 24.5t27 9.5h66l20 126q6 42 18 71t31.5 46.5t46.5 25.5t64 8h6q19 0 29 -10.5t10 -26.5
q0 -17 -10 -28t-29 -11q-40 0 -58.5 -15.5t-25.5 -59.5l-20 -126h72q17 0 26.5 -9.5t9.5 -24.5t-9.5 -24.5t-26.5 -9.5h-82z" />
    <glyph glyph-name="Aringacute" unicode="&#x1fa;" horiz-adv-x="607" 
d="M339 785q-12 -9 -25 -9q-12 0 -22 8.5t-10 22.5q0 15 15 29l70 58q12 9 24 9q13 0 23 -9t10 -23q0 -17 -16 -30zM443 158h-279l-46 -131q-11 -32 -43 -32q-17 0 -29.5 11t-12.5 30q0 5 1 10t3 10l191 529l4 8q-25 27 -25 66q0 41 27.5 68t67.5 27t67.5 -27t27.5 -68
q0 -35 -22 -62q4 -4 7 -12l188 -529q2 -5 3 -10t1 -10q0 -19 -12.5 -30t-29.5 -11q-32 0 -43 32zM302 606q22 0 36.5 15t14.5 38t-14.5 38t-36.5 15t-36.5 -15t-14.5 -38t14.5 -38t36.5 -15zM192 240h222l-109 314h-3z" />
    <glyph glyph-name="aringacute" unicode="&#x1fb;" horiz-adv-x="520" 
d="M296 772q-12 -12 -27 -12q-14 0 -23.5 9.5t-9.5 23.5t13 27l61 68q11 11 25 11t24 -9.5t10 -23.5q0 -15 -13 -28zM467 59q7 -12 7 -24q0 -17 -12 -28.5t-31 -11.5q-22 0 -37 21l-19 30h-1q-24 -27 -59 -42t-88 -15q-81 0 -125 37.5t-44 106.5q0 75 48.5 111.5t138.5 36.5
h109q6 0 6 6v23q0 51 -26 78t-89 27q-28 0 -54.5 -7.5t-43.5 -16.5q-14 -7 -24 -7q-17 0 -26.5 9.5t-9.5 26.5q0 10 4.5 19t15.5 15q23 15 59.5 25.5t86.5 10.5q97 0 142.5 -45t45.5 -134v-172q0 -19 2 -28.5t7 -20.5zM239 61q56 0 88.5 24.5t32.5 69.5v53q0 6 -6 6h-96
q-62 0 -90.5 -18.5t-28.5 -59.5q0 -38 26 -56.5t74 -18.5zM263 534q-40 0 -67.5 27t-27.5 68t27.5 68t67.5 27t67.5 -27t27.5 -68t-27.5 -68t-67.5 -27zM263 576q22 0 36.5 15t14.5 38t-14.5 38t-36.5 15t-36.5 -15t-14.5 -38t14.5 -38t36.5 -15z" />
    <glyph glyph-name="AEacute" unicode="&#x1fc;" horiz-adv-x="932" 
d="M843 680q20 0 32 -12t12 -29q0 -18 -12 -30t-32 -12h-295q-6 0 -6 -6v-200q0 -6 6 -6h246q20 0 32 -12t12 -29q0 -18 -12 -30t-32 -12h-246q-6 0 -6 -6v-207q0 -6 6 -6h295q20 0 32 -12t12 -29q0 -18 -12 -30t-32 -12h-350q-18 0 -29 10.5t-11 29.5v112q0 6 -6 6h-250
l-78 -136q-14 -26 -42 -26q-17 0 -29.5 11t-12.5 30q0 6 1 12.5t5 13.5l336 577q12 21 26 30.5t37 9.5h403zM244 240h203q6 0 6 6v351h-3zM560 890q11 13 27 13q14 0 24 -9.5t10 -23.5t-10 -26l-69 -76q-14 -15 -30 -15q-13 0 -22.5 9t-9.5 23t11 27z" />
    <glyph glyph-name="aeacute" unicode="&#x1fd;" horiz-adv-x="814" 
d="M564 -11q-109 0 -162 76h-2q-32 -44 -75 -60t-98 -16q-81 0 -125 37.5t-44 106.5q0 75 48.5 111.5t138.5 36.5h109q6 0 6 6v23q0 51 -26 78t-89 27q-28 0 -54.5 -7.5t-43.5 -16.5q-14 -7 -24 -7q-17 0 -26.5 9.5t-9.5 26.5q0 10 4.5 19t15.5 15q23 15 59.5 25.5
t86.5 10.5q113 0 155 -66h2q52 66 147 66q71 0 119.5 -33t68.5 -95q16 -47 16 -116q0 -14 -9 -23t-24 -9h-281q-6 0 -6 -6q0 -17 1.5 -30.5t6.5 -27.5q14 -42 45 -62.5t76 -20.5q35 0 61.5 10.5t53.5 30.5q15 12 29 12q15 0 25 -10t10 -25q0 -17 -13 -30
q-31 -29 -73.5 -47.5t-98.5 -18.5zM669 281q6 0 6 6q0 33 -7 54q-12 36 -40.5 55.5t-69.5 19.5t-69.5 -19.5t-40.5 -55.5q-7 -21 -7 -54q0 -6 6 -6h222zM239 61q56 0 88.5 24.5t32.5 69.5v53q0 6 -6 6h-96q-62 0 -90.5 -18.5t-28.5 -59.5q0 -38 26 -56.5t74 -18.5zM427 549
q-15 0 -24 9t-9 23q0 11 7 24l56 86q11 17 30 17q14 0 24 -9t10 -23q0 -12 -8 -25l-58 -86q-12 -16 -28 -16z" />
    <glyph glyph-name="Oslashacute" unicode="&#x1fe;" horiz-adv-x="619" 
d="M128 -18q-10 -17 -25 -17q-11 0 -19 7t-8 19q0 7 6 18l37 63q-25 32 -40 78q-6 18 -9.5 36.5t-6 40.5t-3 49.5t-0.5 63.5t0.5 63.5t3 49.5t6 40.5t9.5 36.5q26 78 84 119.5t146 41.5q89 0 149 -43l29 51q10 16 25 16q11 0 19 -6.5t8 -18.5q0 -9 -6 -18l-36 -62
q28 -35 43 -80q6 -18 9.5 -36.5t6 -40.5t3 -49.5t0.5 -63.5t-0.5 -63.5t-3 -49.5t-6 -40.5t-9.5 -36.5q-26 -78 -84 -119.5t-147 -41.5q-90 0 -151 44zM150 340q0 -36 1 -62.5t3.5 -47t7 -37.5t10.5 -33l239 412q-38 36 -102 36q-59 0 -93.5 -28.5t-49.5 -76.5
q-4 -12 -7 -26.5t-5 -33.5t-3 -44t-1 -59zM309 72q60 0 94.5 28.5t49.5 76.5q4 12 7 26.5t5 33.5t3 44t1 59q0 38 -1 65.5t-4 48.5t-7.5 37t-11.5 32l-240 -413q38 -38 104 -38zM355 890q11 13 27 13q14 0 24 -9.5t10 -23.5t-10 -26l-69 -76q-14 -15 -30 -15q-13 0 -22.5 9
t-9.5 23t11 27z" />
    <glyph glyph-name="oslashacute" unicode="&#x1ff;" horiz-adv-x="516" 
d="M83 -35q-8 0 -14 5.5t-6 15.5q0 7 6 16l35 52q-23 26 -35 64q-8 25 -12 52.5t-4 69.5t4 69t12 52q20 62 69.5 95.5t119.5 33.5q72 0 121 -35l33 48q9 12 20 12q20 0 20 -20q0 -8 -6 -17l-35 -52q24 -27 36 -65q8 -25 12 -52t4 -69t-4 -69.5t-12 -52.5q-20 -61 -69.5 -95
t-119.5 -34q-74 0 -123 36l-32 -48q-8 -12 -20 -12zM139 240q0 -50 5 -75t12 -39l175 262q-29 24 -73 24q-40 0 -68 -19.5t-40 -55.5q-6 -20 -8.5 -41t-2.5 -56zM258 67q40 0 68 19.5t40 55.5q6 20 8.5 41.5t2.5 56.5q0 42 -4 66.5t-13 45.5l-177 -261q30 -24 75 -24z
M262 549q-15 0 -24 9t-9 23q0 11 7 24l56 86q11 17 30 17q14 0 24 -9t10 -23q0 -12 -8 -25l-58 -86q-12 -16 -28 -16z" />
    <glyph glyph-name="Scommaaccent" unicode="&#x218;" horiz-adv-x="591" 
d="M289 -11q-66 0 -120.5 19.5t-90.5 44.5q-22 16 -22 39q0 17 11.5 29.5t31.5 12.5q14 0 28 -9q37 -23 78.5 -38t90.5 -15q72 0 112 31.5t40 84.5q0 22 -6.5 39.5t-23 31.5t-44 24t-68.5 16l-33 5q-103 16 -152 62t-49 127q0 45 15.5 82t44.5 62.5t70 39.5t92 14
q55 0 102 -13.5t78 -32.5q24 -16 24 -39q0 -17 -11.5 -28.5t-28.5 -11.5q-7 0 -14.5 2.5t-14.5 5.5q-32 14 -66 24t-72 10q-65 0 -97 -31t-32 -79q0 -21 7 -38.5t23.5 -31t43.5 -23.5t67 -16l33 -5q103 -16 152.5 -62.5t49.5 -128.5q0 -44 -15.5 -81.5t-47 -64.5t-78 -42.5
t-108.5 -15.5zM312 -189q-9 -31 -36 -31q-17 0 -28 10t-11 27q0 8 3 17l28 87q9 30 36 30q17 0 28.5 -9t11.5 -26q0 -10 -3 -19z" />
    <glyph glyph-name="scommaaccent" unicode="&#x219;" horiz-adv-x="490" 
d="M245 -11q-55 0 -99.5 16t-74.5 37q-20 14 -20 35q0 15 11 26.5t28 11.5q6 0 12.5 -2t15.5 -7q29 -17 61 -29.5t73 -12.5q52 0 78.5 20t26.5 52q0 30 -18.5 46t-75.5 22l-50 5q-71 8 -107 42.5t-36 92.5q0 69 46 107.5t131 38.5q42 0 78.5 -9.5t64.5 -25.5q25 -13 25 -35
q0 -15 -10.5 -25.5t-25.5 -10.5q-13 0 -30 8q-24 11 -50.5 18t-55.5 7q-45 0 -68 -18.5t-23 -47.5t20 -44.5t74 -20.5l50 -5q75 -8 109.5 -42.5t34.5 -93.5q0 -71 -49.5 -113.5t-145.5 -42.5zM258 -189q-9 -31 -36 -31q-17 0 -28 10t-11 27q0 8 3 17l28 87q9 30 36 30
q17 0 28.5 -9t11.5 -26q0 -10 -3 -19z" />
    <glyph glyph-name="uni021A" unicode="&#x21a;" horiz-adv-x="537" 
d="M476 680q20 0 32 -12t12 -30q0 -17 -12 -29t-32 -12h-157q-6 0 -6 -6v-548q0 -23 -12 -35.5t-32 -12.5t-32.5 12.5t-12.5 35.5v548q0 6 -6 6h-157q-20 0 -32 12t-12 29q0 18 12 30t32 12h415zM273 -189q-9 -31 -36 -31q-17 0 -28 10t-11 27q0 8 3 17l28 87q9 30 36 30
q17 0 28.5 -9t11.5 -26q0 -10 -3 -19z" />
    <glyph glyph-name="uni021B" unicode="&#x21b;" horiz-adv-x="318" 
d="M226 -5q-74 0 -104 33t-30 108v269q0 6 -6 6h-27q-17 0 -26.5 9.5t-9.5 24.5t9.5 24.5t26.5 9.5h27q6 0 6 6v105q0 21 12 33t30 12t30 -12t12 -33v-105q0 -6 6 -6h63q17 0 26.5 -9.5t9.5 -24.5t-9.5 -24.5t-26.5 -9.5h-63q-6 0 -6 -6v-266q0 -38 13 -52t51 -14
q20 0 30.5 -11t10.5 -28t-11 -28t-34 -11h-10zM193 -189q-9 -31 -36 -31q-17 0 -28 10t-11 27q0 8 3 17l28 87q9 30 36 30q17 0 28.5 -9t11.5 -26q0 -10 -3 -19z" />
    <glyph glyph-name="uni0237" unicode="&#x237;" horiz-adv-x="248" 
d="M82 439q0 21 12 33t30 12t30 -12t12 -33v-475q0 -77 -34.5 -110.5t-103.5 -33.5q-20 0 -30 11t-10 28t9.5 27t27.5 12q33 3 45 15.5t12 49.5v476z" />
    <glyph glyph-name="circumflex" unicode="&#x2c6;" horiz-adv-x="433" 
d="M218 639h-2l-69 -78q-12 -13 -25 -13q-11 0 -19 7.5t-8 18.5q0 10 8 20l69 87q11 14 21 20.5t24 6.5t24 -6.5t21 -20.5l69 -87q8 -10 8 -20q0 -11 -8 -18.5t-19 -7.5q-13 0 -25 13z" />
    <glyph glyph-name="caron" unicode="&#x2c7;" horiz-adv-x="433" 
d="M287 694q12 13 25 13q11 0 19 -7.5t8 -18.5q0 -10 -8 -20l-69 -87q-11 -14 -21 -20.5t-24 -6.5t-24 6.5t-21 20.5l-69 87q-8 10 -8 20q0 11 8 18.5t19 7.5q13 0 25 -13l69 -78h2z" />
    <glyph glyph-name="uni02C9" unicode="&#x2c9;" horiz-adv-x="433" 
d="M108 790q-17 0 -26 9t-9 23t9 23.5t26 9.5h218q17 0 26 -9.5t9 -23.5t-9 -23t-26 -9h-218z" />
    <glyph glyph-name="breve" unicode="&#x2d8;" horiz-adv-x="433" 
d="M217 561q-30 0 -54 9t-41 24t-26.5 33.5t-9.5 37.5q0 11 6.5 18.5t18.5 7.5q11 0 17.5 -6.5t11.5 -17.5q21 -46 77 -46t77 46q5 11 11.5 17.5t17.5 6.5q12 0 18.5 -7.5t6.5 -18.5q0 -19 -9.5 -37.5t-26.5 -33.5t-41 -24t-54 -9z" />
    <glyph glyph-name="dotaccent" unicode="&#x2d9;" horiz-adv-x="433" 
d="M217 575q-23 0 -39 16t-16 39t16 39t39 16t39 -16t16 -39t-16 -39t-39 -16z" />
    <glyph glyph-name="ring" unicode="&#x2da;" horiz-adv-x="433" 
d="M217 534q-40 0 -67.5 27t-27.5 68t27.5 68t67.5 27t67.5 -27t27.5 -68t-27.5 -68t-67.5 -27zM217 576q22 0 36.5 15t14.5 38t-14.5 38t-36.5 15t-36.5 -15t-14.5 -38t14.5 -38t36.5 -15z" />
    <glyph glyph-name="ogonek" unicode="&#x2db;" horiz-adv-x="433" 
d="M220 -179q-38 0 -60 20.5t-22 56.5q0 54 64 102q8 6 13.5 8t11.5 2h62q5 0 5.5 -4t-3.5 -6q-48 -32 -65 -52.5t-17 -37.5q0 -24 23 -24q10 0 19 4q7 3 16 3q12 0 19.5 -8.5t7.5 -20.5q0 -18 -16 -28q-11 -7 -26 -11t-32 -4z" />
    <glyph glyph-name="tilde" unicode="&#x2dc;" horiz-adv-x="433" 
d="M164 621q-11 0 -19 -5t-18 -18q-11 -13 -25 -13q-13 0 -21 7.5t-8 19.5t8 23q18 26 38 38t42 12q19 0 33 -5.5t31 -16.5t27 -15t18 -4q11 0 19 5t18 18q11 13 25 13q13 0 21 -7.5t8 -19.5t-8 -23q-18 -26 -38 -38t-42 -12q-19 0 -33 5.5t-31 16.5t-27 15t-18 4z" />
    <glyph glyph-name="hungarumlaut" unicode="&#x2dd;" horiz-adv-x="433" 
d="M294 570q-13 -21 -31 -21q-14 0 -23.5 9t-9.5 23q0 11 6 22l50 85q7 11 15 15.5t18 4.5q14 0 24 -8.5t10 -22.5q0 -11 -7 -23zM149 570q-13 -21 -31 -21q-14 0 -23.5 9t-9.5 23q0 11 6 22l50 85q7 11 15 15.5t18 4.5q14 0 24 -8.5t10 -22.5q0 -11 -7 -23z" />
    <glyph glyph-name="Delta" unicode="&#x394;" horiz-adv-x="607" 
d="M76 0q-20 0 -31 10.5t-11 27.5q0 8 7 29l205 568q8 24 21.5 37t36.5 13t37 -13t23 -37l202 -568q7 -21 7 -29q0 -17 -11.5 -27.5t-31.5 -10.5h-454zM463 78q7 0 5 8l-162 463h-3l-164 -463q-3 -8 5 -8h319z" />
    <glyph glyph-name="Delta" unicode="&#x2206;" horiz-adv-x="607" 
d="M76 0q-20 0 -31 10.5t-11 27.5q0 8 7 29l205 568q8 24 21.5 37t36.5 13t37 -13t23 -37l202 -568q7 -21 7 -29q0 -17 -11.5 -27.5t-31.5 -10.5h-454zM463 78q7 0 5 8l-162 463h-3l-164 -463q-3 -8 5 -8h319z" />
    <glyph glyph-name="Omega" unicode="&#x3a9;" horiz-adv-x="625" 
d="M312 608q-60 0 -95.5 -28.5t-50.5 -76.5q-4 -12 -7 -26.5t-5 -33.5t-3 -44t-1 -59q0 -55 5.5 -95t17 -69t29 -48.5t41.5 -34.5q23 -14 29.5 -25.5t6.5 -26.5q0 -18 -11.5 -29.5t-31.5 -11.5h-135q-20 0 -31.5 11.5t-11.5 29.5t11.5 29.5t31.5 11.5h49v2q-21 13 -38 33.5
t-28.5 51t-17.5 73t-6 98.5q0 36 0.5 63.5t3 49.5t6 40.5t9.5 36.5q26 78 85 119.5t148 41.5q90 0 149 -41.5t85 -119.5q6 -18 9.5 -36.5t6 -40.5t3 -49.5t0.5 -63.5q0 -56 -6 -98.5t-17.5 -73t-28.5 -51t-38 -33.5v-2h49q20 0 31.5 -11.5t11.5 -29.5t-11.5 -29.5
t-31.5 -11.5h-135q-20 0 -31.5 11.5t-11.5 29.5q0 15 6.5 26.5t29.5 25.5q24 15 41.5 34.5t29 48.5t17 69t5.5 95q0 34 -1 59t-3 44t-5 33.5t-7 26.5q-15 48 -51 76.5t-96 28.5z" />
    <glyph glyph-name="Omega" unicode="&#x2126;" horiz-adv-x="625" 
d="M312 608q-60 0 -95.5 -28.5t-50.5 -76.5q-4 -12 -7 -26.5t-5 -33.5t-3 -44t-1 -59q0 -55 5.5 -95t17 -69t29 -48.5t41.5 -34.5q23 -14 29.5 -25.5t6.5 -26.5q0 -18 -11.5 -29.5t-31.5 -11.5h-135q-20 0 -31.5 11.5t-11.5 29.5t11.5 29.5t31.5 11.5h49v2q-21 13 -38 33.5
t-28.5 51t-17.5 73t-6 98.5q0 36 0.5 63.5t3 49.5t6 40.5t9.5 36.5q26 78 85 119.5t148 41.5q90 0 149 -41.5t85 -119.5q6 -18 9.5 -36.5t6 -40.5t3 -49.5t0.5 -63.5q0 -56 -6 -98.5t-17.5 -73t-28.5 -51t-38 -33.5v-2h49q20 0 31.5 -11.5t11.5 -29.5t-11.5 -29.5
t-31.5 -11.5h-135q-20 0 -31.5 11.5t-11.5 29.5q0 15 6.5 26.5t29.5 25.5q24 15 41.5 34.5t29 48.5t17 69t5.5 95q0 34 -1 59t-3 44t-5 33.5t-7 26.5q-15 48 -51 76.5t-96 28.5z" />
    <glyph glyph-name="pi" unicode="&#x3c0;" horiz-adv-x="578" 
d="M106 395q0 6 -7 6h-19q-20 0 -30.5 11t-10.5 28t10.5 28t30.5 11h416q20 0 30.5 -11t10.5 -28t-10.5 -28t-30.5 -11h-19q-6 0 -6 -6v-298q0 -11 4.5 -17t16.5 -7q19 -2 29 -12.5t10 -27.5t-11 -28t-34 -11h-6q-52 0 -72.5 29.5t-20.5 83.5v288q0 6 -6 6h-185q-6 0 -6 -6
v-355q0 -21 -12 -33t-30 -12t-30 12t-12 33v355z" />
    <glyph glyph-name="Wgrave" unicode="&#x1e80;" horiz-adv-x="822" 
d="M595 -5q-18 0 -29 11t-19 37l-134 474h-2l-136 -474q-8 -26 -19 -37t-29 -11t-29.5 11t-18.5 37l-148 579q-3 12 -3 21q0 17 11.5 29.5t31.5 12.5q34 0 43 -38l117 -482h2l133 477q12 43 46 43q33 0 45 -43l136 -478h2l113 483q9 38 43 38q20 0 31.5 -12.5t11.5 -29.5
q0 -9 -3 -21l-148 -579q-7 -26 -18.5 -37t-29.5 -11zM421 812q11 -13 11 -27t-9.5 -23t-22.5 -9q-17 0 -30 15l-69 76q-10 12 -10 26t10 23.5t24 9.5q16 0 27 -13z" />
    <glyph glyph-name="wgrave" unicode="&#x1e81;" horiz-adv-x="745" 
d="M524 -5q-38 0 -51 43l-99 315h-2l-100 -315q-14 -43 -50 -43t-50 43l-127 388q-3 9 -3 18q0 17 11 28.5t30 11.5q30 0 41 -36l101 -325h2l100 320q13 41 46 41t46 -41l102 -320h2l99 325q10 36 41 36q18 0 29 -11.5t11 -28.5q0 -9 -3 -18l-127 -388q-14 -43 -49 -43z
M361 549q-16 0 -28 16l-58 86q-8 13 -8 25q0 14 10 23t24 9q19 0 30 -17l56 -86q7 -13 7 -24q0 -14 -9 -23t-24 -9z" />
    <glyph glyph-name="Wacute" unicode="&#x1e82;" horiz-adv-x="822" 
d="M595 -5q-18 0 -29 11t-19 37l-134 474h-2l-136 -474q-8 -26 -19 -37t-29 -11t-29.5 11t-18.5 37l-148 579q-3 12 -3 21q0 17 11.5 29.5t31.5 12.5q34 0 43 -38l117 -482h2l133 477q12 43 46 43q33 0 45 -43l136 -478h2l113 483q9 38 43 38q20 0 31.5 -12.5t11.5 -29.5
q0 -9 -3 -21l-148 -579q-7 -26 -18.5 -37t-29.5 -11zM477 890q11 13 27 13q14 0 24 -9.5t10 -23.5t-10 -26l-69 -76q-14 -15 -30 -15q-13 0 -22.5 9t-9.5 23t11 27z" />
    <glyph glyph-name="wacute" unicode="&#x1e83;" horiz-adv-x="745" 
d="M524 -5q-38 0 -51 43l-99 315h-2l-100 -315q-14 -43 -50 -43t-50 43l-127 388q-3 9 -3 18q0 17 11 28.5t30 11.5q30 0 41 -36l101 -325h2l100 320q13 41 46 41t46 -41l102 -320h2l99 325q10 36 41 36q18 0 29 -11.5t11 -28.5q0 -9 -3 -18l-127 -388q-14 -43 -49 -43z
M390 549q-15 0 -24 9t-9 23q0 11 7 24l56 86q11 17 30 17q14 0 24 -9t10 -23q0 -12 -8 -25l-58 -86q-12 -16 -28 -16z" />
    <glyph glyph-name="Wdieresis" unicode="&#x1e84;" horiz-adv-x="822" 
d="M595 -5q-18 0 -29 11t-19 37l-134 474h-2l-136 -474q-8 -26 -19 -37t-29 -11t-29.5 11t-18.5 37l-148 579q-3 12 -3 21q0 17 11.5 29.5t31.5 12.5q34 0 43 -38l117 -482h2l133 477q12 43 46 43q33 0 45 -43l136 -478h2l113 483q9 38 43 38q20 0 31.5 -12.5t11.5 -29.5
q0 -9 -3 -21l-148 -579q-7 -26 -18.5 -37t-29.5 -11zM511 773q-20 0 -35 14.5t-15 34.5q0 21 15 36t35 15q21 0 35.5 -15t14.5 -36q0 -20 -14.5 -34.5t-35.5 -14.5zM312 773q-21 0 -35.5 14.5t-14.5 34.5q0 21 14.5 36t35.5 15q20 0 35 -15t15 -36q0 -20 -15 -34.5
t-35 -14.5z" />
    <glyph glyph-name="wdieresis" unicode="&#x1e85;" horiz-adv-x="745" 
d="M524 -5q-38 0 -51 43l-99 315h-2l-100 -315q-14 -43 -50 -43t-50 43l-127 388q-3 9 -3 18q0 17 11 28.5t30 11.5q30 0 41 -36l101 -325h2l100 320q13 41 46 41t46 -41l102 -320h2l99 325q10 36 41 36q18 0 29 -11.5t11 -28.5q0 -9 -3 -18l-127 -388q-14 -43 -49 -43z
M472 582q-20 0 -35 14.5t-15 35.5q0 20 15 35t35 15q21 0 35.5 -15t14.5 -35q0 -21 -14.5 -35.5t-35.5 -14.5zM273 582q-21 0 -35.5 14.5t-14.5 35.5q0 20 14.5 35t35.5 15q20 0 35 -15t15 -35q0 -21 -15 -35.5t-35 -14.5z" />
    <glyph glyph-name="Ygrave" unicode="&#x1ef2;" horiz-adv-x="526" 
d="M307 276v-233q0 -23 -12 -35.5t-32 -12.5q-19 0 -31.5 12.5t-12.5 35.5v233l-186 343q-7 14 -7 26q0 17 12 28.5t30 11.5q25 0 39 -26l156 -290h3l154 290q14 26 39 26q18 0 29.5 -11.5t11.5 -28.5q0 -12 -7 -26zM275 812q11 -13 11 -27t-9.5 -23t-22.5 -9q-17 0 -30 15
l-69 76q-10 12 -10 26t10 23.5t24 9.5q16 0 27 -13z" />
    <glyph glyph-name="ygrave" unicode="&#x1ef3;" horiz-adv-x="477" 
d="M102 -180q-20 0 -30.5 11t-10.5 28t10.5 28t30.5 11q29 0 48 14.5t35 57.5l16 44l-163 411q-2 5 -3 10t-1 10q0 17 12 28t30 11q29 0 40 -30l125 -331h2l120 331q10 30 39 30q19 0 30 -11t11 -28q0 -5 -1 -10t-3 -10l-180 -472q-16 -41 -31.5 -66.5t-33 -40.5t-38 -20.5
t-46.5 -5.5h-8zM243 549q-16 0 -28 16l-58 86q-8 13 -8 25q0 14 10 23t24 9q19 0 30 -17l56 -86q7 -13 7 -24q0 -14 -9 -23t-24 -9z" />
    <glyph glyph-name="endash" unicode="&#x2013;" horiz-adv-x="512" 
d="M60 229q-19 0 -29.5 10t-10.5 27t10.5 27t29.5 10h392q19 0 29.5 -10t10.5 -27t-10.5 -27t-29.5 -10h-392z" />
    <glyph glyph-name="emdash" unicode="&#x2014;" horiz-adv-x="850" 
d="M60 229q-19 0 -29.5 10t-10.5 27t10.5 27t29.5 10h730q20 0 30 -10t10 -27t-10 -27t-30 -10h-730z" />
    <glyph glyph-name="quoteleft" unicode="&#x2018;" horiz-adv-x="215" 
d="M88 483q-17 0 -27.5 10t-10.5 27q0 11 3 20l37 114q9 31 37 31q17 0 27.5 -10t10.5 -27q0 -11 -3 -20l-37 -114q-9 -31 -37 -31z" />
    <glyph glyph-name="quoteright" unicode="&#x2019;" horiz-adv-x="215" 
d="M88 483q-17 0 -27.5 10t-10.5 27q0 11 3 20l37 114q9 31 37 31q17 0 27.5 -10t10.5 -27q0 -11 -3 -20l-37 -114q-9 -31 -37 -31z" />
    <glyph glyph-name="quotesinglbase" unicode="&#x201a;" horiz-adv-x="215" 
d="M88 -119q-17 0 -27.5 10t-10.5 27q0 11 3 20l37 114q9 31 37 31q17 0 27.5 -10t10.5 -27q0 -11 -3 -20l-37 -114q-9 -31 -37 -31z" />
    <glyph glyph-name="quotedblleft" unicode="&#x201c;" horiz-adv-x="368" 
d="M241 483q-17 0 -27.5 10t-10.5 27q0 11 3 20l37 114q9 31 37 31q17 0 27.5 -10t10.5 -27q0 -11 -3 -20l-37 -114q-9 -31 -37 -31zM88 483q-17 0 -27.5 10t-10.5 27q0 11 3 20l37 114q9 31 37 31q17 0 27.5 -10t10.5 -27q0 -11 -3 -20l-37 -114q-9 -31 -37 -31z" />
    <glyph glyph-name="quotedblright" unicode="&#x201d;" horiz-adv-x="368" 
d="M241 483q-17 0 -27.5 10t-10.5 27q0 11 3 20l37 114q9 31 37 31q17 0 27.5 -10t10.5 -27q0 -11 -3 -20l-37 -114q-9 -31 -37 -31zM88 483q-17 0 -27.5 10t-10.5 27q0 11 3 20l37 114q9 31 37 31q17 0 27.5 -10t10.5 -27q0 -11 -3 -20l-37 -114q-9 -31 -37 -31z" />
    <glyph glyph-name="quotedblbase" unicode="&#x201e;" horiz-adv-x="368" 
d="M241 -119q-17 0 -27.5 10t-10.5 27q0 11 3 20l37 114q9 31 37 31q17 0 27.5 -10t10.5 -27q0 -11 -3 -20l-37 -114q-9 -31 -37 -31zM88 -119q-17 0 -27.5 10t-10.5 27q0 11 3 20l37 114q9 31 37 31q17 0 27.5 -10t10.5 -27q0 -11 -3 -20l-37 -114q-9 -31 -37 -31z" />
    <glyph glyph-name="dagger" unicode="&#x2020;" horiz-adv-x="494" 
d="M247 -185q-18 0 -29.5 12t-11.5 32v499q0 6 -6 6h-114q-19 0 -29.5 10.5t-10.5 27.5t10.5 27.5t29.5 10.5h114q6 0 6 6v195q0 20 11.5 32t29.5 12t29.5 -12t11.5 -32v-195q0 -6 6 -6h114q19 0 29.5 -10.5t10.5 -27.5t-10.5 -27.5t-29.5 -10.5h-114q-6 0 -6 -6v-499
q0 -20 -11.5 -32t-29.5 -12z" />
    <glyph glyph-name="daggerdbl" unicode="&#x2021;" horiz-adv-x="494" 
d="M408 105q19 0 29.5 -10.5t10.5 -27.5t-10.5 -27.5t-29.5 -10.5h-114q-6 0 -6 -6v-164q0 -20 -11.5 -32t-29.5 -12t-29.5 12t-11.5 32v164q0 6 -6 6h-114q-19 0 -29.5 10.5t-10.5 27.5t10.5 27.5t29.5 10.5h114q6 0 6 6v278q0 6 -6 6h-114q-19 0 -29.5 10.5t-10.5 27.5
t10.5 27.5t29.5 10.5h114q6 0 6 6v164q0 20 11.5 32t29.5 12t29.5 -12t11.5 -32v-164q0 -6 6 -6h114q19 0 29.5 -10.5t10.5 -27.5t-10.5 -27.5t-29.5 -10.5h-114q-6 0 -6 -6v-278q0 -6 6 -6h114z" />
    <glyph glyph-name="bullet" unicode="&#x2022;" horiz-adv-x="444" 
d="M222 180q-26 0 -49.5 10t-41 27.5t-27.5 41t-10 49.5t10 49.5t27.5 41t41 27.5t49.5 10t49.5 -10t41 -27.5t27.5 -41t10 -49.5t-10 -49.5t-27.5 -41t-41 -27.5t-49.5 -10z" />
    <glyph glyph-name="ellipsis" unicode="&#x2026;" horiz-adv-x="702" 
d="M585 -5q-23 0 -40 17t-17 40t17 40t40 17t40 -17t17 -40t-17 -40t-40 -17zM351 -5q-23 0 -40 17t-17 40t17 40t40 17t40 -17t17 -40t-17 -40t-40 -17zM117 -5q-23 0 -40 17t-17 40t17 40t40 17t40 -17t17 -40t-17 -40t-40 -17z" />
    <glyph glyph-name="perthousand" unicode="&#x2030;" horiz-adv-x="1082" 
d="M200 -15q-12 0 -20 8t-8 21q0 10 4 18l374 645q10 18 28 18q12 0 20 -8t8 -21q0 -10 -4 -18l-374 -645q-9 -18 -28 -18zM198 330q-43 0 -73 21t-42 56q-2 7 -3.5 14t-2.5 17.5t-1.5 27t-0.5 43.5t0.5 43.5t1.5 27t2.5 17.5t3.5 14q12 35 42 56t73 21t73 -21t42 -56
q2 -7 3.5 -14t2.5 -17.5t1.5 -27t0.5 -43.5t-0.5 -43.5t-1.5 -27t-2.5 -17.5t-3.5 -14q-12 -35 -42 -56t-73 -21zM198 388q20 0 34 9t20 26q1 4 2 9t1.5 14.5t1 24.5t0.5 38t-0.5 38t-1 24.5t-1.5 14.5t-2 9q-6 17 -20 26t-34 9t-34 -9t-20 -26q-1 -4 -2 -9t-1.5 -14.5
t-1 -24.5t-0.5 -38t0.5 -38t1 -24.5t1.5 -14.5t2 -9q6 -17 20 -26t34 -9zM884 -9q-43 0 -73 21t-42 56q-2 7 -3.5 14t-2.5 17.5t-1.5 27t-0.5 43.5t0.5 43.5t1.5 27t2.5 17.5t3.5 14q12 35 42 56t73 21t73 -21t42 -56q2 -7 3.5 -14t2.5 -17.5t1.5 -27t0.5 -43.5t-0.5 -43.5
t-1.5 -27t-2.5 -17.5t-3.5 -14q-12 -35 -42 -56t-73 -21zM580 -9q-43 0 -73 21t-42 56q-2 7 -3.5 14t-2.5 17.5t-1.5 27t-0.5 43.5t0.5 43.5t1.5 27t2.5 17.5t3.5 14q12 35 42 56t73 21t73 -21t42 -56q2 -7 3.5 -14t2.5 -17.5t1.5 -27t0.5 -43.5t-0.5 -43.5t-1.5 -27
t-2.5 -17.5t-3.5 -14q-12 -35 -42 -56t-73 -21zM884 49q20 0 34 9t20 26q1 4 2 9t1.5 14.5t1 24.5t0.5 38t-0.5 38t-1 24.5t-1.5 14.5t-2 9q-6 17 -20 26t-34 9t-34 -9t-20 -26q-1 -4 -2 -9t-1.5 -14.5t-1 -24.5t-0.5 -38t0.5 -38t1 -24.5t1.5 -14.5t2 -9q6 -17 20 -26
t34 -9zM580 49q20 0 34 9t20 26q1 4 2 9t1.5 14.5t1 24.5t0.5 38t-0.5 38t-1 24.5t-1.5 14.5t-2 9q-6 17 -20 26t-34 9t-34 -9t-20 -26q-1 -4 -2 -9t-1.5 -14.5t-1 -24.5t-0.5 -38t0.5 -38t1 -24.5t1.5 -14.5t2 -9q6 -17 20 -26t34 -9z" />
    <glyph glyph-name="guilsinglleft" unicode="&#x2039;" horiz-adv-x="320" 
d="M225 85q-14 0 -26 12l-132 133q-18 18 -18 34t18 34l132 133q12 12 26 12t23.5 -9t9.5 -23t-12 -26l-115 -117q-4 -4 0 -8l115 -117q12 -12 12 -26t-9.5 -23t-23.5 -9z" />
    <glyph glyph-name="guilsinglright" unicode="&#x203a;" horiz-adv-x="320" 
d="M95 85q-14 0 -23.5 9t-9.5 23t12 26l115 117q4 4 0 8l-115 117q-12 12 -12 26t9.5 23t23.5 9t26 -12l132 -133q18 -18 18 -34t-18 -34l-132 -133q-12 -12 -26 -12z" />
    <glyph glyph-name="fraction" unicode="&#x2044;" horiz-adv-x="224" 
d="M-84 3q-10 -18 -28 -18q-12 0 -20 8t-8 21q0 8 5 18l374 645q10 18 28 18q12 0 20 -8t8 -21q0 -8 -5 -18z" />
    <glyph glyph-name="uni2070" unicode="&#x2070;" horiz-adv-x="341" 
d="M170 423q-49 0 -79.5 21.5t-44.5 61.5q-2 6 -4 14t-3 22t-1.5 36t-0.5 55t0.5 55t1.5 36t3 22t4 14q14 40 44.5 61.5t79.5 21.5t79.5 -21.5t44.5 -61.5q2 -6 4 -14t3 -22t1.5 -36t0.5 -55t-0.5 -55t-1.5 -36t-3 -22t-4 -14q-13 -40 -44 -61.5t-80 -21.5zM170 484
q46 0 58 39l2.5 10t2 17.5t1 31t0.5 51.5t-0.5 51.5t-1 31t-2 17t-2.5 10.5q-12 39 -58 39t-58 -39q-2 -5 -3 -10.5t-1.5 -17t-1 -31t-0.5 -51.5t0.5 -51.5t1 -31t1.5 -17.5t3 -10q12 -39 58 -39z" />
    <glyph glyph-name="uni2074" unicode="&#x2074;" horiz-adv-x="341" 
d="M236 427q-15 0 -24 9t-9 25v30q0 6 -6 6h-142q-14 0 -24 8.5t-10 23.5q0 16 15 46l116 242q11 23 31 23q14 0 23.5 -8.5t9.5 -22.5q0 -10 -5 -19l-111 -231v-1h97q6 0 6 6v66q0 17 9 26t24 9q14 0 23 -9t9 -26v-66q0 -6 6 -6h13q15 0 23.5 -8.5t8.5 -21.5
q0 -14 -8.5 -22.5t-23.5 -8.5h-13q-6 0 -6 -6v-30q0 -16 -9 -25t-23 -9z" />
    <glyph glyph-name="uni2075" unicode="&#x2075;" horiz-adv-x="341" 
d="M265 836q16 0 24.5 -8.5t8.5 -22.5t-8.5 -22t-24.5 -8h-143q-6 0 -6 -6v-97h1q10 11 26 17.5t41 6.5q83 0 108 -68q4 -11 6 -26.5t2 -39.5q0 -23 -2 -37.5t-6 -26.5q-13 -37 -44.5 -56t-78.5 -19q-39 0 -68.5 15t-44.5 43q-7 13 -7 24q0 13 9 21t23 8q9 0 16.5 -5.5
t13.5 -13.5q12 -17 25 -23.5t33 -6.5q47 0 59 36q4 12 4 40q0 25 -4 38q-5 17 -19 26.5t-37 9.5q-18 0 -30.5 -6t-20.5 -16q-17 -18 -37 -18q-14 0 -23 9t-9 25v177q0 14 8 22t22 8h183z" />
    <glyph glyph-name="uni2076" unicode="&#x2076;" horiz-adv-x="341" 
d="M160 819q11 20 31 20q14 0 23.5 -8t9.5 -22q0 -9 -5 -19l-67 -120l1 -1q12 7 32 7q53 0 87 -34.5t34 -91.5q0 -58 -38 -92.5t-98 -34.5t-97.5 34.5t-37.5 92.5q0 25 7.5 48t23.5 52zM170 484q31 0 49.5 18t18.5 47t-18.5 47.5t-49.5 18.5q-30 0 -48.5 -18.5t-18.5 -47.5
t18.5 -47t48.5 -18z" />
    <glyph glyph-name="uni2077" unicode="&#x2077;" horiz-adv-x="341" 
d="M164 450q-10 -23 -32 -23q-14 0 -23 8t-9 22q0 4 1 8t3 9l127 299v2h-113q-6 0 -6 -6v-19q0 -15 -9 -24.5t-24 -9.5t-24 9.5t-9 24.5v56q0 30 30 30h200q16 0 24 -8.5t8 -22.5q0 -10 -3 -20.5t-10 -27.5z" />
    <glyph glyph-name="uni2078" unicode="&#x2078;" horiz-adv-x="341" 
d="M170 423q-60 0 -98.5 33.5t-38.5 89.5q0 34 15.5 59t39.5 39v1q-19 12 -32 32.5t-13 48.5q0 24 8.5 45t25 37t40 25.5t53.5 9.5t53.5 -9.5t40 -25.5t25.5 -37t9 -45q0 -28 -13.5 -48.5t-31.5 -32.5v-1q24 -14 39.5 -39t15.5 -59q0 -28 -10.5 -50.5t-28.5 -38.5t-43.5 -25
t-55.5 -9zM170 671q26 0 43 16t17 39q0 24 -17 40t-43 16t-42.5 -16t-16.5 -40q0 -23 16.5 -39t42.5 -16zM170 484q30 0 50 18t20 46q0 29 -20 47t-50 18t-49.5 -18t-19.5 -47q0 -28 19.5 -46t49.5 -18z" />
    <glyph glyph-name="uni2079" unicode="&#x2079;" horiz-adv-x="341" 
d="M150 427q-14 0 -23.5 8t-9.5 22q0 9 5 19l67 120l-1 1q-12 -7 -32 -7q-53 0 -87 34.5t-34 91.5q0 58 38 92.5t98 34.5t97.5 -34.5t37.5 -92.5q0 -25 -7.5 -48t-23.5 -52l-94 -169q-11 -20 -31 -20zM171 651q30 0 48.5 18.5t18.5 47.5t-18.5 47t-48.5 18q-31 0 -49.5 -18
t-18.5 -47t18.5 -47.5t49.5 -18.5z" />
    <glyph glyph-name="uni2080" unicode="&#x2080;" horiz-adv-x="341" 
d="M170 -162q-49 0 -79.5 21.5t-44.5 61.5q-2 6 -4 14t-3 22t-1.5 36t-0.5 55t0.5 55t1.5 36t3 22t4 14q14 40 44.5 61.5t79.5 21.5t79.5 -21.5t44.5 -61.5q2 -6 4 -14t3 -22t1.5 -36t0.5 -55t-0.5 -55t-1.5 -36t-3 -22t-4 -14q-13 -40 -44 -61.5t-80 -21.5zM170 -101
q46 0 58 39l2.5 10t2 17.5t1 31t0.5 51.5t-0.5 51.5t-1 31t-2 17t-2.5 10.5q-12 39 -58 39t-58 -39q-2 -5 -3 -10.5t-1.5 -17t-1 -31t-0.5 -51.5t0.5 -51.5t1 -31t1.5 -17.5t3 -10q12 -39 58 -39z" />
    <glyph glyph-name="uni2081" unicode="&#x2081;" horiz-adv-x="341" 
d="M197 -158q-15 0 -24.5 10t-9.5 27v292h-1l-39 -27q-11 -6 -21 -6q-13 0 -21 8.5t-8 22.5q0 18 17 29l58 39q11 8 21.5 12.5t23.5 4.5q37 0 37 -39v-336q0 -17 -9.5 -27t-23.5 -10z" />
    <glyph glyph-name="uni2082" unicode="&#x2082;" horiz-adv-x="341" 
d="M270 -94q16 0 24.5 -8.5t8.5 -21.5q0 -14 -8.5 -22.5t-24.5 -8.5h-200q-33 0 -33 31q0 20 24 44l137 159q15 17 23 32t8 32q0 24 -15 39t-42 15q-47 0 -63 -39q-12 -24 -32 -24q-14 0 -22.5 8t-8.5 21q0 9 3 17q11 29 42 53.5t82 24.5q57 0 90 -33t33 -82
q0 -29 -10.5 -52t-33.5 -48l-122 -135v-2h140z" />
    <glyph glyph-name="uni2083" unicode="&#x2083;" horiz-adv-x="341" 
d="M164 23q-16 0 -24.5 8.5t-8.5 22.5q0 13 8.5 21.5t24.5 8.5q28 0 44.5 15.5t16.5 42.5q0 26 -15.5 40.5t-43.5 14.5q-22 0 -33.5 -7t-22.5 -21q-14 -20 -33 -20q-13 0 -21.5 7.5t-8.5 20.5q0 7 3 16q11 26 41.5 45.5t76.5 19.5q59 0 92 -31t33 -80q0 -29 -12 -51t-34 -36
v-1q20 -8 37.5 -33.5t17.5 -64.5q0 -55 -35.5 -89t-95.5 -34q-47 0 -78 19.5t-46 48.5q-4 8 -4 17q0 12 8.5 20.5t21.5 8.5q19 0 33 -21q9 -13 24.5 -22.5t39.5 -9.5q29 0 47 16.5t18 45.5q0 28 -18.5 45t-52.5 17z" />
    <glyph glyph-name="uni2084" unicode="&#x2084;" horiz-adv-x="341" 
d="M236 -158q-15 0 -24 9t-9 25v30q0 6 -6 6h-142q-14 0 -24 8.5t-10 23.5q0 16 15 46l116 242q11 23 31 23q14 0 23.5 -8.5t9.5 -22.5q0 -10 -5 -19l-111 -231v-1h97q6 0 6 6v66q0 17 9 26t24 9q14 0 23 -9t9 -26v-66q0 -6 6 -6h13q15 0 23.5 -8.5t8.5 -21.5
q0 -14 -8.5 -22.5t-23.5 -8.5h-13q-6 0 -6 -6v-30q0 -16 -9 -25t-23 -9z" />
    <glyph glyph-name="uni2085" unicode="&#x2085;" horiz-adv-x="341" 
d="M265 251q16 0 24.5 -8.5t8.5 -22.5t-8.5 -22t-24.5 -8h-143q-6 0 -6 -6v-97h1q10 11 26 17.5t41 6.5q83 0 108 -68q4 -11 6 -26.5t2 -39.5q0 -23 -2 -37.5t-6 -26.5q-13 -37 -44.5 -56t-78.5 -19q-39 0 -68.5 15t-44.5 43q-7 13 -7 24q0 13 9 21t23 8q9 0 16.5 -5.5
t13.5 -13.5q12 -17 25 -23.5t33 -6.5q47 0 59 36q4 12 4 40q0 25 -4 38q-5 17 -19 26.5t-37 9.5q-18 0 -30.5 -6t-20.5 -16q-17 -18 -37 -18q-14 0 -23 9t-9 25v177q0 14 8 22t22 8h183z" />
    <glyph glyph-name="uni2086" unicode="&#x2086;" horiz-adv-x="341" 
d="M160 234q11 20 31 20q14 0 23.5 -8t9.5 -22q0 -9 -5 -19l-67 -120l1 -1q12 7 32 7q53 0 87 -34.5t34 -91.5q0 -58 -38 -92.5t-98 -34.5t-97.5 34.5t-37.5 92.5q0 25 7.5 48t23.5 52zM170 -101q31 0 49.5 18t18.5 47t-18.5 47.5t-49.5 18.5q-30 0 -48.5 -18.5t-18.5 -47.5
t18.5 -47t48.5 -18z" />
    <glyph glyph-name="uni2087" unicode="&#x2087;" horiz-adv-x="341" 
d="M164 -135q-10 -23 -32 -23q-14 0 -23 8t-9 22q0 4 1 8t3 9l127 299v2h-113q-6 0 -6 -6v-19q0 -15 -9 -24.5t-24 -9.5t-24 9.5t-9 24.5v56q0 30 30 30h200q16 0 24 -8.5t8 -22.5q0 -10 -3 -20.5t-10 -27.5z" />
    <glyph glyph-name="uni2088" unicode="&#x2088;" horiz-adv-x="341" 
d="M170 -162q-60 0 -98.5 33.5t-38.5 89.5q0 34 15.5 59t39.5 39v1q-19 12 -32 32.5t-13 48.5q0 24 8.5 45t25 37t40 25.5t53.5 9.5t53.5 -9.5t40 -25.5t25.5 -37t9 -45q0 -28 -13.5 -48.5t-31.5 -32.5v-1q24 -14 39.5 -39t15.5 -59q0 -28 -10.5 -50.5t-28.5 -38.5
t-43.5 -25t-55.5 -9zM170 86q26 0 43 16t17 39q0 24 -17 40t-43 16t-42.5 -16t-16.5 -40q0 -23 16.5 -39t42.5 -16zM170 -101q30 0 50 18t20 46q0 29 -20 47t-50 18t-49.5 -18t-19.5 -47q0 -28 19.5 -46t49.5 -18z" />
    <glyph glyph-name="uni2089" unicode="&#x2089;" horiz-adv-x="341" 
d="M150 -158q-14 0 -23.5 8t-9.5 22q0 9 5 19l67 120l-1 1q-12 -7 -32 -7q-53 0 -87 34.5t-34 91.5q0 58 38 92.5t98 34.5t97.5 -34.5t37.5 -92.5q0 -25 -7.5 -48t-23.5 -52l-94 -169q-11 -20 -31 -20zM171 66q30 0 48.5 18.5t18.5 47.5t-18.5 47t-48.5 18q-31 0 -49.5 -18
t-18.5 -47t18.5 -47.5t49.5 -18.5z" />
    <glyph glyph-name="Euro" unicode="&#x20ac;" 
d="M104 310q6 0 6 6v54q0 6 -6 6h-26q-34 0 -34 31t34 31h26q6 0 6 6q0 40 3 65.5t11 47.5q21 66 70 100t122 34q33 0 61 -8.5t50 -22.5t38 -32.5t26 -37.5q5 -10 5 -21q0 -16 -11.5 -26t-26.5 -10q-11 0 -20.5 7t-17.5 18q-17 25 -42 40t-62 15q-85 0 -110 -77
q-5 -17 -7.5 -35.5t-2.5 -56.5q0 -6 6 -6h182q34 0 34 -31t-34 -31h-182q-6 0 -6 -6v-54q0 -6 6 -6h142q34 0 34 -31t-34 -31h-142q-6 0 -6 -6q0 -42 2.5 -62t7.5 -36q25 -77 110 -77q37 0 62 15t42 40q8 11 17.5 18t20.5 7q15 0 26.5 -10t11.5 -26q0 -11 -5 -21
q-10 -20 -26 -38t-38 -32t-50 -22.5t-61 -8.5q-73 0 -122 34t-70 100q-8 22 -11 48t-3 71q0 6 -6 6h-26q-34 0 -34 31t34 31h26z" />
    <glyph glyph-name="afii61289" unicode="&#x2113;" horiz-adv-x="410" 
d="M230 -11q-57 0 -85.5 33.5t-28.5 104.5v76l-10 -8q-14 -11 -27 -11q-15 0 -24.5 10t-9.5 24q0 18 19 33l52 41v210q0 93 33 141t97 48q52 0 84 -36t32 -102q0 -71 -37 -142.5t-124 -149.5v-134q0 -32 12 -46t33 -14q12 0 20.5 3.5t19.5 11.5q14 10 27 10q15 0 24.5 -10
t9.5 -25q0 -17 -14 -29q-20 -19 -47 -29t-56 -10zM201 357q48 51 68 98t20 98q0 32 -11 50t-30 18q-10 0 -18.5 -5t-15 -17.5t-10 -34t-3.5 -54.5v-153z" />
    <glyph glyph-name="trademark" unicode="&#x2122;" horiz-adv-x="833" 
d="M751 283q-14 0 -22 8.5t-8 22.5v226h-2l-84 -177q-11 -24 -35 -24q-23 0 -34 24l-84 177h-2v-226q0 -14 -9 -22.5t-21 -8.5q-14 0 -22.5 8.5t-8.5 22.5v335q0 16 9 25t24 9q24 0 38 -30l109 -234h4l109 234q8 16 15.5 23t21.5 7q32 0 32 -34v-335q0 -14 -8.5 -22.5
t-21.5 -8.5zM194 283q-14 0 -23 9t-9 25v299q0 6 -6 6h-88q-14 0 -22 8.5t-8 20.5t8 20.5t22 8.5h252q14 0 22 -8.5t8 -20.5t-8 -20.5t-22 -8.5h-88q-6 0 -6 -6v-299q0 -16 -9 -25t-23 -9z" />
    <glyph glyph-name="estimated" unicode="&#x212e;" horiz-adv-x="620" 
d="M308 -10q-53 0 -96 19.5t-73 53.5t-46.5 79.5t-16.5 97.5q0 53 16.5 98.5t46.5 79.5t73 53t96 19t96.5 -18.5t74 -51.5t48 -79t17.5 -101h-366v-165q54 -51 130 -51q57 0 99 25.5t75 83.5l33 -22q-42 -63 -88.5 -92t-118.5 -29zM441 405q-29 27 -61.5 41t-71.5 14
q-77 0 -130 -55v-131h263v131z" />
    <glyph glyph-name="onethird" unicode="&#x2153;" horiz-adv-x="885" 
d="M206 271q-15 0 -24.5 10t-9.5 27v292h-1l-39 -27q-11 -6 -21 -6q-13 0 -21 8.5t-8 22.5q0 18 17 29l58 39q11 8 21.5 12.5t23.5 4.5q37 0 37 -39v-336q0 -17 -9.5 -27t-23.5 -10zM245 3q-10 -18 -28 -18q-12 0 -20 8t-8 21q0 8 5 18l374 645q10 18 28 18q12 0 20 -8
t8 -21q0 -8 -5 -18zM660 179q-16 0 -24.5 8.5t-8.5 22.5q0 13 8.5 21.5t24.5 8.5q28 0 44.5 15.5t16.5 42.5q0 26 -15.5 40.5t-43.5 14.5q-22 0 -33.5 -7t-22.5 -21q-14 -20 -33 -20q-13 0 -21.5 7.5t-8.5 20.5q0 7 3 16q11 26 41.5 45.5t76.5 19.5q59 0 92 -31t33 -80
q0 -29 -12 -51t-34 -36v-1q20 -8 37.5 -33.5t17.5 -64.5q0 -55 -35.5 -89t-95.5 -34q-47 0 -78 19.5t-46 48.5q-4 8 -4 17q0 12 8.5 20.5t21.5 8.5q19 0 33 -21q9 -13 24.5 -22.5t39.5 -9.5q29 0 47 16.5t18 45.5q0 28 -18.5 45t-52.5 17z" />
    <glyph glyph-name="twothirds" unicode="&#x2154;" horiz-adv-x="981" 
d="M318 335q16 0 24.5 -8.5t8.5 -21.5q0 -14 -8.5 -22.5t-24.5 -8.5h-200q-33 0 -33 31q0 20 24 44l137 159q15 17 23 32t8 32q0 24 -15 39t-42 15q-47 0 -63 -39q-12 -24 -32 -24q-14 0 -22.5 8t-8.5 21q0 9 3 17q11 29 42 53.5t82 24.5q57 0 90 -33t33 -82
q0 -29 -10.5 -52t-33.5 -48l-122 -135v-2h140zM336 3q-10 -18 -28 -18q-12 0 -20 8t-8 21q0 8 5 18l374 645q10 18 28 18q12 0 20 -8t8 -21q0 -8 -5 -18zM750 179q-16 0 -24.5 8.5t-8.5 22.5q0 13 8.5 21.5t24.5 8.5q28 0 44.5 15.5t16.5 42.5q0 26 -15.5 40.5t-43.5 14.5
q-22 0 -33.5 -7t-22.5 -21q-14 -20 -33 -20q-13 0 -21.5 7.5t-8.5 20.5q0 7 3 16q11 26 41.5 45.5t76.5 19.5q59 0 92 -31t33 -80q0 -29 -12 -51t-34 -36v-1q20 -8 37.5 -33.5t17.5 -64.5q0 -55 -35.5 -89t-95.5 -34q-47 0 -78 19.5t-46 48.5q-4 8 -4 17q0 12 8.5 20.5
t21.5 8.5q19 0 33 -21q9 -13 24.5 -22.5t39.5 -9.5q29 0 47 16.5t18 45.5q0 28 -18.5 45t-52.5 17z" />
    <glyph glyph-name="oneeighth" unicode="&#x215b;" horiz-adv-x="887" 
d="M206 271q-15 0 -24.5 10t-9.5 27v292h-1l-39 -27q-11 -6 -21 -6q-13 0 -21 8.5t-8 22.5q0 18 17 29l58 39q11 8 21.5 12.5t23.5 4.5q37 0 37 -39v-336q0 -17 -9.5 -27t-23.5 -10zM658 -6q-60 0 -98.5 33.5t-38.5 89.5q0 34 15.5 59t39.5 39v1q-19 12 -32 32.5t-13 48.5
q0 24 8.5 45t25 37t40 25.5t53.5 9.5t53.5 -9.5t40 -25.5t25.5 -37t9 -45q0 -28 -13.5 -48.5t-31.5 -32.5v-1q24 -14 39.5 -39t15.5 -59q0 -28 -10.5 -50.5t-28.5 -38.5t-43.5 -25t-55.5 -9zM658 242q26 0 43 16t17 39q0 24 -17 40t-43 16t-42.5 -16t-16.5 -40
q0 -23 16.5 -39t42.5 -16zM658 55q30 0 50 18t20 46q0 29 -20 47t-50 18t-49.5 -18t-19.5 -47q0 -28 19.5 -46t49.5 -18zM245 3q-10 -18 -28 -18q-12 0 -20 8t-8 21q0 8 5 18l374 645q10 18 28 18q12 0 20 -8t8 -21q0 -8 -5 -18z" />
    <glyph glyph-name="threeeighths" unicode="&#x215c;" horiz-adv-x="956" 
d="M722 -6q-60 0 -98.5 33.5t-38.5 89.5q0 34 15.5 59t39.5 39v1q-19 12 -32 32.5t-13 48.5q0 24 8.5 45t25 37t40 25.5t53.5 9.5t53.5 -9.5t40 -25.5t25.5 -37t9 -45q0 -28 -13.5 -48.5t-31.5 -32.5v-1q24 -14 39.5 -39t15.5 -59q0 -28 -10.5 -50.5t-28.5 -38.5t-43.5 -25
t-55.5 -9zM722 242q26 0 43 16t17 39q0 24 -17 40t-43 16t-42.5 -16t-16.5 -40q0 -23 16.5 -39t42.5 -16zM722 55q30 0 50 18t20 46q0 29 -20 47t-50 18t-49.5 -18t-19.5 -47q0 -28 19.5 -46t49.5 -18zM309 3q-10 -18 -28 -18q-12 0 -20 8t-8 21q0 8 5 18l374 645
q10 18 28 18q12 0 20 -8t8 -21q0 -8 -5 -18zM220 452q-16 0 -24.5 8.5t-8.5 22.5q0 13 8.5 21.5t24.5 8.5q28 0 44.5 15.5t16.5 42.5q0 26 -15.5 40.5t-43.5 14.5q-22 0 -33.5 -7t-22.5 -21q-14 -20 -33 -20q-13 0 -21.5 7.5t-8.5 20.5q0 7 3 16q11 26 41.5 45.5t76.5 19.5
q59 0 92 -31t33 -80q0 -29 -12 -51t-34 -36v-1q20 -8 37.5 -33.5t17.5 -64.5q0 -55 -35.5 -89t-95.5 -34q-47 0 -78 19.5t-46 48.5q-4 8 -4 17q0 12 8.5 20.5t21.5 8.5q19 0 33 -21q9 -13 24.5 -22.5t39.5 -9.5q29 0 47 16.5t18 45.5q0 28 -18.5 45t-52.5 17z" />
    <glyph glyph-name="fiveeighths" unicode="&#x215d;" horiz-adv-x="948" 
d="M716 -6q-60 0 -98.5 33.5t-38.5 89.5q0 34 15.5 59t39.5 39v1q-19 12 -32 32.5t-13 48.5q0 24 8.5 45t25 37t40 25.5t53.5 9.5t53.5 -9.5t40 -25.5t25.5 -37t9 -45q0 -28 -13.5 -48.5t-31.5 -32.5v-1q24 -14 39.5 -39t15.5 -59q0 -28 -10.5 -50.5t-28.5 -38.5t-43.5 -25
t-55.5 -9zM716 242q26 0 43 16t17 39q0 24 -17 40t-43 16t-42.5 -16t-16.5 -40q0 -23 16.5 -39t42.5 -16zM716 55q30 0 50 18t20 46q0 29 -20 47t-50 18t-49.5 -18t-19.5 -47q0 -28 19.5 -46t49.5 -18zM303 3q-10 -18 -28 -18q-12 0 -20 8t-8 21q0 8 5 18l374 645
q10 18 28 18q12 0 20 -8t8 -21q0 -8 -5 -18zM313 680q16 0 24.5 -8.5t8.5 -22.5t-8.5 -22t-24.5 -8h-143q-6 0 -6 -6v-97h1q10 11 26 17.5t41 6.5q83 0 108 -68q4 -11 6 -26.5t2 -39.5q0 -23 -2 -37.5t-6 -26.5q-13 -37 -44.5 -56t-78.5 -19q-39 0 -68.5 15t-44.5 43
q-7 13 -7 24q0 13 9 21t23 8q9 0 16.5 -5.5t13.5 -13.5q12 -17 25 -23.5t33 -6.5q47 0 59 36q4 12 4 40q0 25 -4 38q-5 17 -19 26.5t-37 9.5q-18 0 -30.5 -6t-20.5 -16q-17 -18 -37 -18q-14 0 -23 9t-9 25v177q0 14 8 22t22 8h183z" />
    <glyph glyph-name="seveneighths" unicode="&#x215e;" horiz-adv-x="874" 
d="M650 -6q-60 0 -98.5 33.5t-38.5 89.5q0 34 15.5 59t39.5 39v1q-19 12 -32 32.5t-13 48.5q0 24 8.5 45t25 37t40 25.5t53.5 9.5t53.5 -9.5t40 -25.5t25.5 -37t9 -45q0 -28 -13.5 -48.5t-31.5 -32.5v-1q24 -14 39.5 -39t15.5 -59q0 -28 -10.5 -50.5t-28.5 -38.5t-43.5 -25
t-55.5 -9zM650 242q26 0 43 16t17 39q0 24 -17 40t-43 16t-42.5 -16t-16.5 -40q0 -23 16.5 -39t42.5 -16zM650 55q30 0 50 18t20 46q0 29 -20 47t-50 18t-49.5 -18t-19.5 -47q0 -28 19.5 -46t49.5 -18zM211 294q-10 -23 -32 -23q-14 0 -23 8t-9 22q0 4 1 8t3 9l127 299v2
h-113q-6 0 -6 -6v-19q0 -15 -9 -24.5t-24 -9.5t-24 9.5t-9 24.5v56q0 30 30 30h200q16 0 24 -8.5t8 -22.5q0 -10 -3 -20.5t-10 -27.5zM237 3q-10 -18 -28 -18q-12 0 -20 8t-8 21q0 8 5 18l374 645q10 18 28 18q12 0 20 -8t8 -21q0 -8 -5 -18z" />
    <glyph glyph-name="partialdiff" unicode="&#x2202;" 
d="M251 -10q-45 0 -82 15.5t-62.5 43.5t-39.5 66.5t-14 84.5t14.5 85.5t41 69t63.5 46t82 16.5q94 0 154 -73h1q1 57 -8.5 106.5t-29.5 86t-50.5 57.5t-72.5 21q-47 0 -93 -30q-12 -8 -26 -8q-15 0 -25 10.5t-10 25.5q0 18 18 33q25 19 61 32t78 13q60 0 104.5 -25.5
t74 -70.5t44.5 -107t15 -135q0 -82 -14.5 -149t-44.5 -114.5t-74.5 -73.5t-104.5 -26zM257 66q66 0 103 53.5t45 152.5q-27 35 -62.5 54t-75.5 19q-62 0 -97 -38t-35 -105q0 -62 32.5 -99t89.5 -37z" />
    <glyph glyph-name="product" unicode="&#x220f;" horiz-adv-x="652" 
d="M524 -185q-20 0 -32.5 12.5t-12.5 34.5v789q0 6 -6 6h-294q-6 0 -6 -6v-789q0 -22 -12.5 -34.5t-32.5 -12.5t-32 12.5t-12 34.5v834q0 20 12 32t32 12h397q20 0 31.5 -12t11.5 -32v-834q0 -22 -12 -34.5t-32 -12.5z" />
    <glyph glyph-name="summation" unicode="&#x2211;" horiz-adv-x="534" 
d="M92 -180q-22 0 -34 11.5t-12 29.5q0 6 0.5 12t3 13.5t6.5 17.5t11 24l172 392l-168 314q-15 26 -19 39t-4 25q0 18 12 30t34 12h349q20 0 32 -12t12 -30q0 -17 -12 -29t-32 -12h-287l159 -295q11 -22 11 -37q0 -18 -10 -38l-169 -384h305q20 0 32 -12t12 -29
q0 -18 -12 -30t-32 -12h-360z" />
    <glyph glyph-name="minus" unicode="&#x2212;" 
d="M98 239q-20 0 -30.5 10t-10.5 27t10.5 27t30.5 10h346q20 0 30.5 -10t10.5 -27t-10.5 -27t-30.5 -10h-346z" />
    <glyph glyph-name="uni2215" unicode="&#x2215;" horiz-adv-x="224" 
d="M-84 3q-10 -18 -28 -18q-12 0 -20 8t-8 21q0 8 5 18l374 645q10 18 28 18q12 0 20 -8t8 -21q0 -8 -5 -18z" />
    <glyph glyph-name="uni2219" unicode="&#x2219;" horiz-adv-x="236" 
d="M118 207q-23 0 -40 17t-17 40t17 40t40 17t40 -17t17 -40t-17 -40t-40 -17z" />
    <glyph glyph-name="radical" unicode="&#x221a;" horiz-adv-x="629" 
d="M319 -185q-17 0 -28.5 11t-22.5 33l-123 253q-3 6 -9 3l-54 -25q-10 -4 -18 -4q-13 0 -22 9.5t-9 23.5q0 21 23 32l88 44q10 5 20 5q20 0 31 -22l117 -244h3l214 780q9 31 37 31q16 0 26.5 -10t10.5 -27q0 -5 -2 -13l-232 -836q-13 -44 -50 -44z" />
    <glyph glyph-name="infinity" unicode="&#x221e;" horiz-adv-x="766" 
d="M567 87q-49 0 -92.5 26t-91.5 82q-49 -55 -93 -81.5t-92 -26.5q-33 0 -61.5 11.5t-49.5 32.5t-33 50.5t-12 65.5q0 35 11.5 64.5t32.5 50.5t50 33t63 12q47 0 89.5 -27.5t93.5 -84.5q52 60 94.5 86t89.5 26q34 0 63 -11.5t50 -32.5t33 -50.5t12 -65.5q0 -35 -12 -64.5
t-33 -50.5t-49.5 -33t-62.5 -12zM564 149q45 0 70.5 30t25.5 69q0 40 -25 68.5t-71 28.5q-32 0 -63 -22.5t-76 -76.5q24 -27 42.5 -46t34.5 -30t31 -16t31 -5zM202 149q31 0 62.5 23t76.5 74q-45 53 -76 76t-63 23q-46 0 -71 -28t-25 -69q0 -42 26 -70.5t70 -28.5z" />
    <glyph glyph-name="integral" unicode="&#x222b;" horiz-adv-x="414" 
d="M107 -180h-9.5t-10.5 1q-17 2 -27 11t-10 26t10.5 27.5t33.5 11.5q37 1 54 22.5t17 77.5v553q0 102 34.5 145.5t107.5 44.5h9.5t10.5 -1q17 -2 27 -11t10 -26t-10.5 -27.5t-33.5 -11.5q-37 -1 -54 -22.5t-17 -77.5v-553q0 -102 -34.5 -145.5t-107.5 -44.5z" />
    <glyph glyph-name="approxequal" unicode="&#x2248;" 
d="M476 376q-21 -34 -52.5 -52.5t-67.5 -18.5q-31 0 -56 11.5t-45 25.5q-17 11 -34 19.5t-37 8.5t-34.5 -8.5t-28.5 -28.5q-14 -18 -30 -18q-14 0 -23 8.5t-9 22.5q0 13 7 24q21 34 52.5 52.5t67.5 18.5q31 0 56 -11.5t45 -25.5q17 -11 34 -19.5t37 -8.5t34.5 8.5t28.5 28.5
q13 17 30 17q14 0 23 -8t9 -22q0 -13 -7 -24zM476 182q-21 -34 -52.5 -52.5t-67.5 -18.5q-31 0 -56 11.5t-45 25.5q-17 11 -34 19.5t-37 8.5t-34.5 -8.5t-28.5 -28.5q-14 -18 -30 -18q-14 0 -23 8.5t-9 22.5q0 13 7 24q21 34 52.5 52.5t67.5 18.5q31 0 56 -11.5t45 -25.5
q17 -11 34 -19.5t37 -8.5t34.5 8.5t28.5 28.5q13 17 30 17q14 0 23 -8t9 -22q0 -13 -7 -24z" />
    <glyph glyph-name="notequal" unicode="&#x2260;" 
d="M231 139l-51 -95q-11 -19 -29 -19q-12 0 -20 7t-8 21q0 9 4 17l37 69h-66q-20 0 -30.5 10t-10.5 27t10.5 27t30.5 10h105l68 126h-173q-20 0 -30.5 10t-10.5 27t10.5 27t30.5 10h213l51 95q11 19 29 19q12 0 20 -7t8 -21q0 -9 -4 -17l-37 -69h66q20 0 30.5 -10t10.5 -27
t-10.5 -27t-30.5 -10h-106l-68 -126h174q20 0 30.5 -10t10.5 -27t-10.5 -27t-30.5 -10h-213z" />
    <glyph glyph-name="lessequal" unicode="&#x2264;" 
d="M98 0q-20 0 -30.5 10t-10.5 27t10.5 27t30.5 10h346q20 0 30.5 -10t10.5 -27t-10.5 -27t-30.5 -10h-346zM98 297q-41 16 -41 47q0 30 41 47l332 137q7 3 18 3q16 0 26.5 -9.5t10.5 -26.5q0 -27 -27 -37l-285 -113v-2l285 -113q27 -11 27 -37q0 -17 -10.5 -26.5
t-26.5 -9.5q-11 0 -18 3z" />
    <glyph glyph-name="greaterequal" unicode="&#x2265;" 
d="M98 0q-20 0 -30.5 10t-10.5 27t10.5 27t30.5 10h346q20 0 30.5 -10t10.5 -27t-10.5 -27t-30.5 -10h-346zM112 160q-8 -3 -18 -3q-16 0 -26.5 9.5t-10.5 26.5q0 26 27 37l285 113v2l-285 113q-27 10 -27 37q0 17 10.5 26.5t26.5 9.5q5 0 10 -0.5t8 -2.5l332 -137
q41 -17 41 -47q0 -31 -41 -47z" />
    <glyph glyph-name="lozenge" unicode="&#x25ca;" horiz-adv-x="559" 
d="M280 -57q-18 0 -31 10.5t-24 33.5l-155 318q-6 12 -6 24t6 24l155 318q11 23 24 33.5t31 10.5q17 0 30 -10.5t24 -33.5l155 -318q6 -12 6 -24t-6 -24l-155 -318q-11 -23 -24 -33.5t-30 -10.5zM419 329l-139 291h-2l-138 -291l140 -291h2z" />
    <glyph glyph-name="uniF8FF" unicode="&#xf8ff;" horiz-adv-x="477" 
d="M25 0q-25 0 -25 25v630q0 25 25 25h427q25 0 25 -25v-630q0 -25 -25 -25h-427zM422 47q6 0 6 6v574q0 6 -6 6h-367q-6 0 -6 -6v-574q0 -6 6 -6h367zM227 226q-13 0 -21 8t-8 22v12q0 21 5 35t17 29l39 48q18 23 25 37.5t7 32.5q0 26 -17 43t-44 17q-26 0 -40.5 -12.5
t-24.5 -38.5q-10 -20 -26 -20q-12 0 -19.5 7.5t-7.5 20.5q0 6 2 14q10 34 39.5 57.5t78.5 23.5q54 0 86 -32t32 -79q0 -27 -8.5 -46.5t-27.5 -42.5l-41 -50q-11 -13 -14 -22t-3 -25v-9q0 -14 -8 -22t-21 -8zM227 109q-16 0 -27 11t-11 27t11 26.5t27 10.5q15 0 26 -10.5
t11 -26.5t-11 -27t-26 -11z" />
    <glyph glyph-name="glyph220" horiz-adv-x="0" 
 />
    <glyph glyph-name="glyph221" horiz-adv-x="433" 
d="M270 812q11 -13 11 -27t-9.5 -23t-22.5 -9q-17 0 -30 15l-69 76q-10 12 -10 26t10 23.5t24 9.5q16 0 27 -13z" />
    <glyph glyph-name="glyph222" horiz-adv-x="433" 
d="M232 890q11 13 27 13q14 0 24 -9.5t10 -23.5t-10 -26l-69 -76q-14 -15 -30 -15q-13 0 -22.5 9t-9.5 23t11 27z" />
    <glyph glyph-name="glyph223" horiz-adv-x="433" 
d="M218 836h-2l-69 -78q-12 -13 -25 -13q-11 0 -19 7.5t-8 18.5q0 10 8 20l69 87q11 14 21 20.5t24 6.5t24 -6.5t21 -20.5l69 -87q8 -10 8 -20q0 -11 -8 -18.5t-19 -7.5q-13 0 -25 13z" />
    <glyph glyph-name="glyph224" horiz-adv-x="433" 
d="M287 892q12 13 25 13q11 0 19 -7.5t8 -18.5q0 -10 -8 -20l-69 -87q-11 -14 -21 -20.5t-24 -6.5t-24 6.5t-21 20.5l-69 87q-8 10 -8 20q0 11 8 18.5t19 7.5q13 0 25 -13l69 -78h2z" />
    <glyph glyph-name="glyph225" horiz-adv-x="433" 
d="M243 547q-11 -30 -36 -30q-17 0 -27.5 9.5t-10.5 26.5q0 9 3 17l26 83q10 30 36 30q17 0 28 -9.5t11 -26.5q0 -10 -3 -17z" />
    <glyph glyph-name="glyph226" horiz-adv-x="433" 
d="M164 809q-11 0 -19 -5t-18 -18q-11 -13 -25 -13q-13 0 -21 7.5t-8 19.5t8 23q18 26 38 38t42 12q19 0 33 -5.5t31 -16.5t27 -15t18 -4q11 0 19 5t18 18q11 13 25 13q13 0 21 -7.5t8 -19.5t-8 -23q-18 -26 -38 -38t-42 -12q-19 0 -33 5.5t-31 16.5t-27 15t-18 4z" />
    <glyph glyph-name="glyph227" horiz-adv-x="433" 
d="M316 773q-20 0 -35 14.5t-15 34.5q0 21 15 36t35 15q21 0 35.5 -15t14.5 -36q0 -20 -14.5 -34.5t-35.5 -14.5zM117 773q-21 0 -35.5 14.5t-14.5 34.5q0 21 14.5 36t35.5 15q20 0 35 -15t15 -36q0 -20 -15 -34.5t-35 -14.5z" />
    <glyph glyph-name="glyph228" horiz-adv-x="433" 
d="M108 790q-17 0 -26 9t-9 23t9 23.5t26 9.5h218q17 0 26 -9.5t9 -23.5t-9 -23t-26 -9h-218z" />
    <glyph glyph-name="glyph229" horiz-adv-x="433" 
d="M217 761q-30 0 -54 9t-41 24t-26.5 33.5t-9.5 37.5q0 11 6.5 18.5t18.5 7.5q11 0 17.5 -6.5t11.5 -17.5q21 -46 77 -46t77 46q5 11 11.5 17.5t17.5 6.5q12 0 18.5 -7.5t6.5 -18.5q0 -19 -9.5 -37.5t-26.5 -33.5t-41 -24t-54 -9z" />
    <glyph glyph-name="glyph230" horiz-adv-x="433" 
d="M217 728q-40 0 -67.5 27t-27.5 68t27.5 68t67.5 27t67.5 -27t27.5 -68t-27.5 -68t-67.5 -27zM217 770q22 0 36.5 15t14.5 38t-14.5 38t-36.5 15t-36.5 -15t-14.5 -38t14.5 -38t36.5 -15z" />
    <glyph glyph-name="glyph231" horiz-adv-x="433" 
d="M291 771q-12 -17 -29 -17q-13 0 -23 8.5t-10 22.5q0 12 8 25l50 74q12 17 30 17q14 0 24 -9t10 -23q0 -13 -9 -25zM149 771q-12 -17 -29 -17q-13 0 -23 8.5t-10 22.5q0 12 8 25l50 74q12 17 30 17q14 0 24 -9t10 -23q0 -13 -9 -25z" />
    <glyph glyph-name="glyph232" horiz-adv-x="433" 
d="M217 766q-23 0 -39 16t-16 39t16 39t39 16t39 -16t16 -39t-16 -39t-39 -16z" />
    <glyph glyph-name="glyph233" horiz-adv-x="433" 
d="M240 -189q-9 -31 -36 -31q-17 0 -28 10t-11 27q0 8 3 17l28 87q9 30 36 30q17 0 28.5 -9t11.5 -26q0 -10 -3 -19z" />
    <glyph glyph-name="glyph234" horiz-adv-x="433" 
d="M244 592q-11 -31 -36 -31q-16 0 -27.5 9t-11.5 26q0 10 3 19l29 90q11 31 36 31q16 0 27 -9.5t11 -26.5q0 -5 -1 -10t-2 -8z" />
    <glyph glyph-name="glyph235" horiz-adv-x="607" 
d="M76 0q-20 0 -31 10.5t-11 27.5q0 8 7 29l205 568q8 24 21.5 37t36.5 13t37 -13t23 -37l202 -568q7 -21 7 -29q0 -17 -11.5 -27.5t-31.5 -10.5h-454zM463 78q7 0 5 8l-162 463h-3l-164 -463q-3 -8 5 -8h319z" />
    <glyph glyph-name="glyph236" horiz-adv-x="625" 
d="M312 608q-60 0 -95.5 -28.5t-50.5 -76.5q-4 -12 -7 -26.5t-5 -33.5t-3 -44t-1 -59q0 -55 5.5 -95t17 -69t29 -48.5t41.5 -34.5q23 -14 29.5 -25.5t6.5 -26.5q0 -18 -11.5 -29.5t-31.5 -11.5h-135q-20 0 -31.5 11.5t-11.5 29.5t11.5 29.5t31.5 11.5h49v2q-21 13 -38 33.5
t-28.5 51t-17.5 73t-6 98.5q0 36 0.5 63.5t3 49.5t6 40.5t9.5 36.5q26 78 85 119.5t148 41.5q90 0 149 -41.5t85 -119.5q6 -18 9.5 -36.5t6 -40.5t3 -49.5t0.5 -63.5q0 -56 -6 -98.5t-17.5 -73t-28.5 -51t-38 -33.5v-2h49q20 0 31.5 -11.5t11.5 -29.5t-11.5 -29.5
t-31.5 -11.5h-135q-20 0 -31.5 11.5t-11.5 29.5q0 15 6.5 26.5t29.5 25.5q24 15 41.5 34.5t29 48.5t17 69t5.5 95q0 34 -1 59t-3 44t-5 33.5t-7 26.5q-15 48 -51 76.5t-96 28.5z" />
    <glyph glyph-name="glyph237" horiz-adv-x="546" 
d="M262 -11q-66 0 -95 40h-1v-169q0 -21 -11.5 -33t-30.5 -12t-30.5 12t-11.5 33v579q0 21 12 33t30 12t30 -12t12 -33v-250q0 -58 26 -90t80 -32q49 0 78.5 31.5t29.5 85.5v255q0 21 12 33t30 12t30 -12t12 -33v-399q0 -21 -12 -33t-30 -12t-30 12t-12 33v14h-1
q-17 -29 -46 -47t-71 -18z" />
    <glyph glyph-name="zero.oldstyle" 
d="M271 -11q-54 0 -99 19t-77.5 53t-50.5 80t-18 99t18 99t50.5 79.5t77.5 52.5t99 19t99 -19t77.5 -52.5t50.5 -79.5t18 -99t-18 -99t-50.5 -80t-77.5 -53t-99 -19zM271 71q36 0 65 13.5t50 36.5t32 53.5t11 65.5t-11 65.5t-32 53.5t-50 36t-65 13t-65 -13t-50 -36
t-32 -53.5t-11 -65.5t11 -65.5t32 -53.5t50 -36.5t65 -13.5z" />
    <glyph glyph-name="one.oldstyle" 
d="M309 -5q-19 0 -30.5 12t-11.5 33v344h-2l-95 -39q-12 -5 -22 -5q-17 0 -28 11t-11 29q0 26 26 38l114 50q17 8 30 12t27 4q20 0 32.5 -13t12.5 -36v-395q0 -21 -11.5 -33t-30.5 -12z" />
    <glyph glyph-name="two.oldstyle" 
d="M108 0q-19 0 -28.5 11t-9.5 26q0 29 37 52l176 112q30 19 49 34t29.5 28.5t14.5 27t4 29.5q0 40 -28 66t-81 26q-42 0 -68.5 -17.5t-42.5 -49.5q-9 -19 -19.5 -26t-24.5 -7q-17 0 -28 9.5t-11 25.5q0 4 0.5 9.5t2.5 9.5q17 54 67 89t125 35q46 0 82 -13.5t61 -36.5
t38 -53.5t13 -65.5q0 -54 -27.5 -92t-88.5 -75l-122 -74v-2h203q20 0 30.5 -11t10.5 -28t-10.5 -28t-30.5 -11h-323z" />
    <glyph glyph-name="three.oldstyle" 
d="M262 -191q-72 0 -123 33.5t-68 84.5q-2 4 -2.5 9t-0.5 10q0 17 11 27t29 10q24 0 40 -28q17 -29 44.5 -48.5t68.5 -19.5q56 0 88.5 33t32.5 94q0 60 -36 92.5t-107 32.5q-21 0 -33.5 11.5t-12.5 30.5q0 14 5.5 25.5t19.5 28.5l124 164v2h-232q-20 0 -30.5 11.5
t-10.5 28.5t10.5 27.5t30.5 10.5h303q20 0 31 -10t11 -28q0 -12 -5.5 -23.5t-19.5 -28.5l-133 -175v-2q81 -8 126 -60t45 -139q0 -46 -15.5 -83.5t-42.5 -64.5t-65 -41.5t-83 -14.5z" />
    <glyph glyph-name="four.oldstyle" 
d="M370 -185q-18 0 -30 12t-12 32v135q0 6 -6 6h-226q-21 0 -32.5 11.5t-11.5 29.5q0 11 3 20.5t12 29.5l173 364q14 29 39 29q17 0 28.5 -11t11.5 -29q0 -10 -5 -20l-164 -344v-2h172q6 0 6 6v141q0 21 12 32.5t30 11.5t30 -11.5t12 -32.5v-141q0 -6 6 -6h40q19 0 30 -11
t11 -28t-11 -28t-30 -11h-40q-6 0 -6 -6v-135q0 -20 -12 -32t-30 -12z" />
    </font>
</defs>
</svg>
